SplineFontDB: 1.0
FontName: Kochi-Gothic
FullName: Kochi Gothic
FamilyName: Kochi Gothic
Weight: Book
Copyright: Wada lab's font license (except NAGA10)
Version: 0.00
ItalicAngle: 0
UnderlinePosition: -96
UnderlineWidth: 48
Ascent: 880
Descent: 144
Order2: 1
NeedsXUIDChange: 1
FSType: 0
PfmFamily: 17
TTFWeight: 400
TTFWidth: 5
Panose: 2 0 6 9 0 0 0 0 0 0
LineGap: 0
VLineGap: 0
OS2TypoAscent: 880
OS2TypoDescent: -144
OS2WinAscent: 880
OS2WinDescent: 144
ScriptLang: 1
 1 kana 2 JAN  dflt 
TableOrder: GSUB 1
	'vert'
TtfTable: prep 642
\,lV`YQ9`g!J*[-Yl]MG7'QiH77=B`KLJ;6"bfB5Ym,qO7'QuP77=BdLda_:$&M)=YmQ@W7'R,X
77=BhN($.>%?3eEYmud_7'R8`77=BlO@;RB&WoLMYnE3g7'RDh77=BpPXS!F'pV3UYniWo7'RPp
77=BtQpjEJ)4<o]Yo9'"7'R]#77=C#S4,iN*M#VeYo]K*7'Ri+77=C'TLD8R+e_=mYp,o27'Ru3
77=C+Ud[\V-)F$uYpQ>:7'S,;77=C/W's+Z.B,a(YpubB7'S8C77=C3X@5O^/ZhH0YqE1J7'SDK
77=C7YXLsb0sO/8YqiUR7'SPS77=C;ZpdBf275k@Yr9$Z7'S\[77=C?\4&fj3OqRHYr]Hb7'Shc
77=CC]L>5n4hX9PYs,lj7'Stk77=CG^dUYr6,>uXYsQ;r7'T+s77=CK`'m)!7E%\`Ysu`%7'T8&
77=COa@/M%8]aChYtE/-7'TD.77=CSbXFq):!H*pYtiS57'TP677=CWcp^@-;:.g#Yu9"=7'T\>
77=C[e3ud1<RjN+Yu]FE7'ThF77=C_fL835=kQ53Z!,jM7'TtN77=CcgdOW9?/7q;Z!Q9U7'U+V
77=Cgi'g&=@GsXCZ!u]]7'U7^77=Ckj@)JAA`Z?KZ"E,e7'UCf77=CokX@nEC$A&SZ"iPm7'UOn
77=CslpX=ID='b[Z#8tu7'U\!77=D"n3oaMEUcIcZ#]D(7'Uh)77=D&oL20QFnJ0kZ$,h07'Ut1
77=D*pdITUH20lsZ$Q787'V+977=D.r'a#YIJlT&Z$u[@7'V7A777+U
EndTtf
TtfTable: fpgm 179
YQ-4-r@P5S/2-ra/[,:-0E"!q/[,=.0E"!q4>!c?/2'-a/[,C000K1q/[,F100K1q4>!cB/2'-a
4?P_XYQud54?WQoYR)j64?WR)/[,R500DAq4?P4"$S3qn4T.B)4>!cG/2'+J4T-k9%4j.p4?WR)
/[,^900D?ZrB*1oYR`9<4?Pb)4?P_XYRi?J/[,g<0<c!;r@P5d/2-t+&1T99'.bf@&1[X_&1T73
EndTtf
TtfTable: cvt  512
zzzzzzzzzzzzzzzzzzzzzzzzzzzzzzzzzzzzzzzzzzzzzzzzzzzzzzzzzzzzzzzz!!!!"!!3-&
!!E9*!!WE.!!iQ2!"&]6!"8i:!"Ju>!"],B!"o8F!#,DJ!#>PN!#P\R!#bhV!#ttZ!$2+^!$D7b
!$VCf!$hOj!%%[n!%7gr!%It!!%\+%!%n7)!&+C-!&=O1!&O[5!&ag9!&ss=!'1*A!'C6E!'UBI
!'gNM!($ZQ!(6fU!(HrY!([)]!(m5a!)*Ae!)<Mi!)NYm!)`eq!)rqu!*0)$!*B5(!*TA,!*fM0

StartChar: .notdef
Encoding: 0 -1 0
Width: 1024
Flags: W
Fore
400 400 m 1,0,-1
 400 620 l 1,1,-1
 620 620 l 1,2,-1
 620 400 l 1,3,-1
 400 400 l 1,0,-1
EndSplineSet
EndChar
StartChar: exclam
Encoding: 33 33 3
Width: 512
Flags: W
Fore
319 756 m 1,0,1
 319 692 319 692 303 484 c 128,-1,2
 287 276 287 276 287 190 c 1,3,-1
 227 190 l 1,4,5
 227 276 227 276 211 484 c 128,-1,6
 195 692 195 692 195 756 c 1,7,-1
 319 756 l 1,0,1
202 -56 m 1,8,-1
 202 58 l 1,9,-1
 310 58 l 1,10,-1
 310 -56 l 1,11,-1
 202 -56 l 1,8,-1
EndSplineSet
EndChar
StartChar: quotedbl
Encoding: 34 34 4
Width: 512
Flags: W
Fore
72 620 m 1,0,-1
 132 820 l 1,1,-1
 244 820 l 1,2,-1
 120 620 l 1,3,-1
 72 620 l 1,0,-1
220 620 m 1,4,-1
 304 820 l 1,5,-1
 424 820 l 1,6,-1
 268 620 l 1,7,-1
 220 620 l 1,4,-1
EndSplineSet
EndChar
StartChar: numbersign
Encoding: 35 35 5
Width: 512
Flags: W
Fore
134 -51 m 1,0,-1
 77 -51 l 1,1,-1
 100 166 l 1,2,-1
 2 166 l 1,3,-1
 8 242 l 1,4,-1
 109 242 l 1,5,-1
 141 541 l 1,6,-1
 29 541 l 1,7,-1
 35 617 l 1,8,-1
 149 617 l 1,9,-1
 170 810 l 1,10,-1
 227 810 l 1,11,-1
 206 617 l 1,12,-1
 338 617 l 1,13,-1
 359 810 l 1,14,-1
 416 810 l 1,15,-1
 395 617 l 1,16,-1
 510 617 l 1,17,-1
 504 541 l 1,18,-1
 387 541 l 1,19,-1
 355 242 l 1,20,-1
 483 242 l 1,21,-1
 477 166 l 1,22,-1
 346 166 l 1,23,-1
 323 -51 l 1,24,-1
 266 -51 l 1,25,-1
 289 166 l 1,26,-1
 157 166 l 1,27,-1
 134 -51 l 1,0,-1
198 541 m 1,28,-1
 166 242 l 1,29,-1
 298 242 l 1,30,-1
 330 541 l 1,31,-1
 198 541 l 1,28,-1
EndSplineSet
EndChar
StartChar: dollar
Encoding: 36 36 6
Width: 512
Flags: W
Fore
31 226 m 1,0,-1
 123 226 l 1,1,2
 123 168 123 168 156.5 140.5 c 128,-1,3
 190 113 190 113 226 106 c 1,4,-1
 226 358 l 1,5,6
 125 383 125 383 91 436 c 128,-1,7
 57 489 57 489 57 550 c 0,8,9
 57 610 57 610 108.5 665.5 c 128,-1,10
 160 721 160 721 226 730 c 1,11,-1
 226 830 l 1,12,-1
 280 830 l 1,13,-1
 280 731 l 1,14,15
 354 725 354 725 406.5 677.5 c 128,-1,16
 459 630 459 630 459 550 c 1,17,-1
 367 550 l 1,18,19
 367 600 367 600 342 622.5 c 128,-1,20
 317 645 317 645 280 650 c 1,21,-1
 280 423 l 1,22,23
 366 405 366 405 424.5 356 c 128,-1,24
 483 307 483 307 483 226 c 0,25,26
 483 144 483 144 429 86 c 128,-1,27
 375 28 375 28 280 23 c 1,28,-1
 280 -108 l 1,29,-1
 226 -108 l 1,30,-1
 226 24 l 1,31,32
 147 32 147 32 89 88 c 128,-1,33
 31 144 31 144 31 226 c 1,0,-1
391 226 m 0,34,35
 391 277 391 277 356.5 301.5 c 128,-1,36
 322 326 322 326 280 341 c 1,37,-1
 280 104 l 1,38,39
 337 109 337 109 364 141.5 c 128,-1,40
 391 174 391 174 391 226 c 0,34,35
149 550 m 0,41,42
 149 497 149 497 168.5 474.5 c 128,-1,43
 188 452 188 452 226 438 c 1,44,-1
 226 648 l 1,45,46
 195 642 195 642 172 619 c 128,-1,47
 149 596 149 596 149 550 c 0,41,42
EndSplineSet
EndChar
StartChar: percent
Encoding: 37 37 7
Width: 512
Flags: W
Fore
435 817 m 1,0,-1
 487 800 l 1,1,-1
 90 -105 l 1,2,-1
 37 -91 l 1,3,-1
 435 817 l 1,0,-1
4 562 m 0,4,5
 4 640 4 640 36.5 696 c 128,-1,6
 69 752 69 752 129 752 c 0,7,8
 188 752 188 752 221 696 c 128,-1,9
 254 640 254 640 254 562 c 0,10,11
 254 483 254 483 221 427.5 c 128,-1,12
 188 372 188 372 129 372 c 0,13,14
 69 372 69 372 36.5 427.5 c 128,-1,15
 4 483 4 483 4 562 c 0,4,5
77 562 m 0,16,17
 77 511 77 511 90.5 479 c 128,-1,18
 104 447 104 447 129 447 c 0,19,20
 153 447 153 447 167 479 c 128,-1,21
 181 511 181 511 181 562 c 0,22,23
 181 613 181 613 167 645.5 c 128,-1,24
 153 678 153 678 129 678 c 0,25,26
 104 678 104 678 90.5 645.5 c 128,-1,27
 77 613 77 613 77 562 c 0,16,17
262 166 m 0,28,29
 262 244 262 244 294.5 300 c 128,-1,30
 327 356 327 356 387 356 c 0,31,32
 446 356 446 356 479 300 c 128,-1,33
 512 244 512 244 512 166 c 0,34,35
 512 87 512 87 479 31.5 c 128,-1,36
 446 -24 446 -24 387 -24 c 0,37,38
 327 -24 327 -24 294.5 31.5 c 128,-1,39
 262 87 262 87 262 166 c 0,28,29
335 166 m 0,40,41
 335 115 335 115 348.5 83 c 128,-1,42
 362 51 362 51 387 51 c 0,43,44
 411 51 411 51 425 83 c 128,-1,45
 439 115 439 115 439 166 c 0,46,47
 439 217 439 217 425 249.5 c 128,-1,48
 411 282 411 282 387 282 c 0,49,50
 362 282 362 282 348.5 249.5 c 128,-1,51
 335 217 335 217 335 166 c 0,40,41
EndSplineSet
EndChar
StartChar: ampersand
Encoding: 38 38 8
Width: 512
Flags: W
Fore
508 58 m 1,0,-1
 509 47 l 1,1,2
 479 26 479 26 428 -27 c 1,3,4
 378 21 378 21 337 64 c 1,5,6
 325 52 325 52 288 25 c 128,-1,7
 251 -2 251 -2 186 -2 c 0,8,9
 110 -2 110 -2 60.5 64 c 128,-1,10
 11 130 11 130 11 196 c 0,11,12
 11 271 11 271 46.5 315 c 128,-1,13
 82 359 82 359 119 389 c 1,14,15
 99 436 99 436 83.5 487.5 c 128,-1,16
 68 539 68 539 68 589 c 0,17,18
 68 655 68 655 110.5 705.5 c 128,-1,19
 153 756 153 756 228 756 c 1,20,21
 294 754 294 754 337.5 706.5 c 128,-1,22
 381 659 381 659 383 593 c 1,23,24
 383 514 383 514 333 465.5 c 128,-1,25
 283 417 283 417 216 368 c 1,26,27
 260 280 260 280 335 198 c 1,28,29
 357 251 357 251 361 326 c 1,30,-1
 443 326 l 1,31,32
 439 224 439 224 398 142 c 1,33,34
 444 103 444 103 508 58 c 1,0,-1
97 196 m 0,35,36
 97 142 97 142 117.5 110.5 c 128,-1,37
 138 79 138 79 186 79 c 0,38,39
 243 79 243 79 262 96 c 128,-1,40
 281 113 281 113 287 119 c 1,41,42
 269 140 269 140 231.5 188 c 128,-1,43
 194 236 194 236 153 317 c 1,44,45
 137 302 137 302 117 278 c 128,-1,46
 97 254 97 254 97 196 c 0,35,36
301 593 m 1,47,48
 299 638 299 638 277.5 660.5 c 128,-1,49
 256 683 256 683 226 683 c 0,50,51
 195 683 195 683 171.5 664.5 c 128,-1,52
 148 646 148 646 148 589 c 0,53,54
 148 543 148 543 156 511 c 128,-1,55
 164 479 164 479 185 433 c 1,56,57
 228 462 228 462 264.5 495 c 128,-1,58
 301 528 301 528 301 593 c 1,47,48
EndSplineSet
EndChar
StartChar: quotesingle
Encoding: 39 39 9
Width: 512
Flags: W
Fore
306 738 m 1,0,-1
 218 584 l 1,1,-1
 186 584 l 1,2,-1
 232 712 l 1,3,-1
 180 712 l 1,4,-1
 180 836 l 1,5,-1
 306 836 l 1,6,-1
 306 738 l 1,0,-1
EndSplineSet
EndChar
StartChar: parenleft
Encoding: 40 40 10
Width: 512
Flags: W
Fore
404 -75 m 1,0,-1
 338 -107 l 1,1,2
 232 5 232 5 172 118 c 128,-1,3
 112 231 112 231 112 373 c 0,4,5
 112 515 112 515 172 628 c 128,-1,6
 232 741 232 741 338 853 c 1,7,-1
 404 821 l 1,8,9
 294 711 294 711 245 613 c 128,-1,10
 196 515 196 515 196 373 c 0,11,12
 196 231 196 231 245 133 c 128,-1,13
 294 35 294 35 404 -75 c 1,0,-1
EndSplineSet
EndChar
StartChar: parenright
Encoding: 41 41 11
Width: 512
Flags: W
Fore
102 -75 m 1,0,1
 212 35 212 35 261 133 c 128,-1,2
 310 231 310 231 310 373 c 0,3,4
 310 515 310 515 261 613 c 128,-1,5
 212 711 212 711 102 821 c 1,6,-1
 168 853 l 1,7,8
 274 741 274 741 334 628 c 128,-1,9
 394 515 394 515 394 373 c 0,10,11
 394 231 394 231 334 118 c 128,-1,12
 274 5 274 5 168 -107 c 1,13,-1
 102 -75 l 1,0,1
EndSplineSet
EndChar
StartChar: asterisk
Encoding: 42 42 12
Width: 512
Flags: W
Fore
292 672 m 1,0,1
 292 648 292 648 284.5 566 c 128,-1,2
 277 484 277 484 275 417 c 1,3,4
 325 458 325 458 384 514 c 128,-1,5
 443 570 443 570 462 585 c 1,6,-1
 507 526 l 1,7,8
 489 511 489 511 419 466 c 128,-1,9
 349 421 349 421 294 381 c 1,10,-1
 294 378 l 1,11,12
 349 338 349 338 419 293 c 128,-1,13
 489 248 489 248 507 233 c 1,14,-1
 462 174 l 1,15,16
 443 189 443 189 384 245 c 128,-1,17
 325 301 325 301 275 342 c 1,18,19
 277 276 277 276 284.5 195.5 c 128,-1,20
 292 115 292 115 292 91 c 1,21,-1
 218 91 l 1,22,23
 218 115 218 115 225.5 195.5 c 128,-1,24
 233 276 233 276 235 342 c 1,25,26
 185 301 185 301 126 245 c 128,-1,27
 67 189 67 189 48 174 c 1,28,-1
 3 233 l 1,29,30
 21 248 21 248 91 293 c 128,-1,31
 161 338 161 338 216 378 c 1,32,-1
 216 381 l 1,33,34
 161 421 161 421 91 466 c 128,-1,35
 21 511 21 511 3 526 c 1,36,-1
 48 585 l 1,37,38
 67 570 67 570 126 514 c 128,-1,39
 185 458 185 458 235 417 c 1,40,41
 233 484 233 484 225.5 566 c 128,-1,42
 218 648 218 648 218 672 c 1,43,-1
 292 672 l 1,0,1
EndSplineSet
EndChar
StartChar: plus
Encoding: 43 43 13
Width: 512
Flags: W
Fore
28 431 m 1,0,-1
 230 431 l 1,1,-1
 230 720 l 1,2,-1
 303 720 l 1,3,-1
 303 431 l 1,4,-1
 490 431 l 1,5,-1
 490 359 l 1,6,-1
 303 359 l 1,7,-1
 303 25 l 1,8,-1
 230 25 l 1,9,-1
 230 359 l 1,10,-1
 28 359 l 1,11,-1
 28 431 l 1,0,-1
EndSplineSet
EndChar
StartChar: comma
Encoding: 44 44 14
Width: 512
Flags: W
Fore
278 -18 m 1,0,-1
 190 -144 l 1,1,-1
 158 -144 l 1,2,-1
 204 -44 l 1,3,-1
 152 -44 l 1,4,-1
 152 80 l 1,5,-1
 278 80 l 1,6,-1
 278 -18 l 1,0,-1
EndSplineSet
EndChar
StartChar: hyphen
Encoding: 45 45 15
Width: 512
Flags: W
Fore
32 431 m 1,0,-1
 486 431 l 1,1,-1
 486 359 l 1,2,-1
 32 359 l 1,3,-1
 32 431 l 1,0,-1
EndSplineSet
EndChar
StartChar: period
Encoding: 46 46 16
Width: 512
Flags: W
Fore
278 -44 m 1,0,-1
 152 -44 l 1,1,-1
 152 80 l 1,2,-1
 278 80 l 1,3,-1
 278 -44 l 1,0,-1
EndSplineSet
EndChar
StartChar: slash
Encoding: 47 47 17
Width: 512
Flags: W
Fore
454 814 m 1,0,-1
 510 793 l 1,1,-1
 56 -67 l 1,2,-1
 -1 -50 l 1,3,-1
 454 814 l 1,0,-1
EndSplineSet
EndChar
StartChar: zero
Encoding: 48 48 18
Width: 512
Flags: W
Fore
46 378 m 0,0,1
 46 528 46 528 110.5 642 c 128,-1,2
 175 756 175 756 259 756 c 0,3,4
 343 756 343 756 408 642 c 128,-1,5
 473 528 473 528 473 377 c 0,6,7
 473 226 473 226 408 112 c 128,-1,8
 343 -2 343 -2 259 -2 c 0,9,10
 175 -2 175 -2 110.5 112 c 128,-1,11
 46 226 46 226 46 378 c 0,0,1
138 377 m 0,12,13
 138 238 138 238 176 158.5 c 128,-1,14
 214 79 214 79 259 79 c 0,15,16
 304 79 304 79 342.5 158.5 c 128,-1,17
 381 238 381 238 381 378 c 0,18,19
 381 521 381 521 342.5 598 c 128,-1,20
 304 675 304 675 259 675 c 0,21,22
 214 675 214 675 176 598 c 128,-1,23
 138 521 138 521 138 377 c 0,12,13
EndSplineSet
EndChar
StartChar: one
Encoding: 49 49 19
Width: 512
Flags: W
Fore
307 -12 m 1,0,-1
 221 -12 l 1,1,-1
 221 600 l 2,2,3
 221 631 221 631 185 631 c 2,4,-1
 114 631 l 1,5,-1
 114 688 l 1,6,7
 235 695 235 695 256 761 c 1,8,-1
 307 761 l 1,9,-1
 307 699 l 1,10,-1
 307 -12 l 1,0,-1
EndSplineSet
EndChar
StartChar: two
Encoding: 50 50 20
Width: 512
Flags: W
Fore
261 756 m 0,0,1
 350 756 350 756 404.5 703 c 128,-1,2
 459 650 459 650 459 552 c 0,3,4
 459 459 459 459 372 360 c 1,5,-1
 131 94 l 1,6,-1
 452 94 l 1,7,-1
 439 4 l 1,8,-1
 46 4 l 1,9,-1
 46 106 l 1,10,-1
 288 378 l 1,11,12
 367 457 367 457 367 553 c 0,13,14
 367 630 367 630 335 652.5 c 128,-1,15
 303 675 303 675 261 675 c 0,16,17
 218 675 218 675 183.5 655 c 128,-1,18
 149 635 149 635 149 544 c 1,19,-1
 63 544 l 1,20,21
 63 658 63 658 122 707 c 128,-1,22
 181 756 181 756 261 756 c 0,0,1
EndSplineSet
EndChar
StartChar: three
Encoding: 51 51 21
Width: 512
Flags: W
Fore
261 756 m 0,0,1
 346 756 346 756 402.5 695 c 128,-1,2
 459 634 459 634 459 560 c 0,3,4
 459 513 459 513 427.5 463.5 c 128,-1,5
 396 414 396 414 352 402 c 1,6,7
 396 392 396 392 439.5 339.5 c 128,-1,8
 483 287 483 287 483 210 c 0,9,10
 483 128 483 128 424.5 63 c 128,-1,11
 366 -2 366 -2 261 -2 c 0,12,13
 169 -2 169 -2 108 50 c 128,-1,14
 47 102 47 102 47 210 c 1,15,-1
 133 210 l 1,16,17
 133 125 133 125 169.5 102 c 128,-1,18
 206 79 206 79 261 79 c 0,19,20
 319 79 319 79 355 109.5 c 128,-1,21
 391 140 391 140 391 209 c 0,22,23
 391 285 391 285 342 326.5 c 128,-1,24
 293 368 293 368 228 368 c 1,25,-1
 228 432 l 1,26,27
 294 432 294 432 330.5 474.5 c 128,-1,28
 367 517 367 517 367 561 c 0,29,30
 367 614 367 614 335 644.5 c 128,-1,31
 303 675 303 675 261 675 c 0,32,33
 218 675 218 675 183.5 652 c 128,-1,34
 149 629 149 629 149 544 c 1,35,-1
 63 544 l 1,36,37
 63 660 63 660 124 708 c 128,-1,38
 185 756 185 756 261 756 c 0,0,1
EndSplineSet
EndChar
StartChar: four
Encoding: 52 52 22
Width: 512
Flags: W
Fore
377 -12 m 1,0,-1
 291 -12 l 1,1,-1
 291 164 l 1,2,-1
 21 164 l 1,3,-1
 21 210 l 1,4,-1
 302 761 l 1,5,-1
 377 761 l 1,6,-1
 377 254 l 1,7,-1
 488 254 l 1,8,-1
 488 164 l 1,9,-1
 377 164 l 1,10,-1
 377 -12 l 1,0,-1
291 575 m 1,11,-1
 124 254 l 1,12,-1
 291 254 l 1,13,-1
 291 575 l 1,11,-1
EndSplineSet
EndChar
StartChar: five
Encoding: 53 53 23
Width: 512
Flags: W
Fore
277 478 m 0,0,1
 366 478 366 478 424.5 417 c 128,-1,2
 483 356 483 356 483 248 c 0,3,4
 483 144 483 144 416.5 71 c 128,-1,5
 350 -2 350 -2 239 -2 c 0,6,7
 147 -2 147 -2 97 55 c 128,-1,8
 47 112 47 112 47 186 c 1,9,-1
 133 186 l 1,10,11
 133 135 133 135 162.5 107 c 128,-1,12
 192 79 192 79 239 79 c 0,13,14
 303 79 303 79 347 123.5 c 128,-1,15
 391 168 391 168 391 248 c 0,16,17
 391 324 391 324 358 360.5 c 128,-1,18
 325 397 325 397 277 397 c 0,19,20
 228 397 228 397 194.5 382.5 c 128,-1,21
 161 368 161 368 149 341 c 1,22,-1
 71 341 l 1,23,-1
 95 750 l 1,24,-1
 444 750 l 1,25,-1
 425 660 l 1,26,-1
 167 660 l 1,27,-1
 155 444 l 1,28,29
 215 478 215 478 277 478 c 0,0,1
EndSplineSet
EndChar
StartChar: six
Encoding: 54 54 24
Width: 512
Flags: W
Fore
277 478 m 0,0,1
 352 478 352 478 417.5 416 c 128,-1,2
 483 354 483 354 483 240 c 0,3,4
 483 144 483 144 417.5 71 c 128,-1,5
 352 -2 352 -2 255 -2 c 0,6,7
 163 -2 163 -2 97 70 c 128,-1,8
 31 142 31 142 31 376 c 0,9,10
 31 558 31 558 100.5 657 c 128,-1,11
 170 756 170 756 271 756 c 0,12,13
 349 756 349 756 404 707 c 128,-1,14
 459 658 459 658 459 602 c 1,15,-1
 365 602 l 1,16,17
 365 639 365 639 335.5 657 c 128,-1,18
 306 675 306 675 271 675 c 0,19,20
 221 675 221 675 175 616.5 c 128,-1,21
 129 558 129 558 124 420 c 1,22,23
 187 478 187 478 277 478 c 0,0,1
255 79 m 0,24,25
 315 79 315 79 353 119.5 c 128,-1,26
 391 160 391 160 391 240 c 0,27,28
 391 324 391 324 358 360.5 c 128,-1,29
 325 397 325 397 277 397 c 0,30,31
 204 397 204 397 170 364.5 c 128,-1,32
 136 332 136 332 126 281 c 1,33,34
 133 156 133 156 168.5 117.5 c 128,-1,35
 204 79 204 79 255 79 c 0,24,25
EndSplineSet
EndChar
StartChar: seven
Encoding: 55 55 25
Width: 512
Flags: W
Fore
68 750 m 1,0,-1
 460 750 l 1,1,-1
 460 668 l 1,2,-1
 228 -12 l 1,3,-1
 140 -12 l 1,4,-1
 361 660 l 1,5,-1
 68 660 l 1,6,-1
 68 750 l 1,0,-1
EndSplineSet
EndChar
StartChar: eight
Encoding: 56 56 26
Width: 512
Flags: W
Fore
23 210 m 0,0,1
 23 291 23 291 62 331.5 c 128,-1,2
 101 372 101 372 146 393 c 1,3,4
 99 419 99 419 77 462 c 128,-1,5
 55 505 55 505 55 566 c 0,6,7
 55 638 55 638 113 697 c 128,-1,8
 171 756 171 756 257 756 c 0,9,10
 343 756 343 756 401 697 c 128,-1,11
 459 638 459 638 459 566 c 0,12,13
 459 505 459 505 433 462.5 c 128,-1,14
 407 420 407 420 360 391 c 1,15,16
 403 369 403 369 447 330 c 128,-1,17
 491 291 491 291 491 210 c 0,18,19
 491 120 491 120 421 59 c 128,-1,20
 351 -2 351 -2 257 -2 c 0,21,22
 163 -2 163 -2 93 59 c 128,-1,23
 23 120 23 120 23 210 c 0,0,1
115 210 m 0,24,25
 115 144 115 144 154.5 111.5 c 128,-1,26
 194 79 194 79 257 79 c 0,27,28
 320 79 320 79 359.5 111.5 c 128,-1,29
 399 144 399 144 399 210 c 0,30,31
 399 271 399 271 361 298.5 c 128,-1,32
 323 326 323 326 240 355 c 1,33,34
 184 336 184 336 149.5 301 c 128,-1,35
 115 266 115 266 115 210 c 0,24,25
367 566 m 0,36,37
 367 618 367 618 337.5 646.5 c 128,-1,38
 308 675 308 675 257 675 c 0,39,40
 206 675 206 675 176.5 646.5 c 128,-1,41
 147 618 147 618 147 566 c 0,42,43
 147 509 147 509 164 483 c 128,-1,44
 181 457 181 457 276 426 c 1,45,46
 315 442 315 442 341 475.5 c 128,-1,47
 367 509 367 509 367 566 c 0,36,37
EndSplineSet
EndChar
StartChar: nine
Encoding: 57 57 27
Width: 512
Flags: W
Fore
237 276 m 0,0,1
 162 276 162 276 96.5 338 c 128,-1,2
 31 400 31 400 31 514 c 0,3,4
 31 610 31 610 96.5 683 c 128,-1,5
 162 756 162 756 259 756 c 0,6,7
 351 756 351 756 417 684 c 128,-1,8
 483 612 483 612 483 378 c 0,9,10
 483 196 483 196 413.5 97 c 128,-1,11
 344 -2 344 -2 243 -2 c 0,12,13
 165 -2 165 -2 110 47 c 128,-1,14
 55 96 55 96 55 152 c 1,15,-1
 149 152 l 1,16,17
 149 115 149 115 178.5 97 c 128,-1,18
 208 79 208 79 243 79 c 0,19,20
 293 79 293 79 339 137.5 c 128,-1,21
 385 196 385 196 390 334 c 1,22,23
 327 276 327 276 237 276 c 0,0,1
259 675 m 0,24,25
 199 675 199 675 161 634.5 c 128,-1,26
 123 594 123 594 123 514 c 0,27,28
 123 430 123 430 156 393.5 c 128,-1,29
 189 357 189 357 237 357 c 0,30,31
 310 357 310 357 344 389.5 c 128,-1,32
 378 422 378 422 388 473 c 1,33,34
 381 598 381 598 345.5 636.5 c 128,-1,35
 310 675 310 675 259 675 c 0,24,25
EndSplineSet
EndChar
StartChar: colon
Encoding: 58 58 28
Width: 512
Flags: W
Fore
318 422 m 1,0,-1
 192 422 l 1,1,-1
 192 546 l 1,2,-1
 318 546 l 1,3,-1
 318 422 l 1,0,-1
318 76 m 1,4,-1
 192 76 l 1,5,-1
 192 200 l 1,6,-1
 318 200 l 1,7,-1
 318 76 l 1,4,-1
EndSplineSet
EndChar
StartChar: semicolon
Encoding: 59 59 29
Width: 512
Flags: W
Fore
318 422 m 1,0,-1
 192 422 l 1,1,-1
 192 546 l 1,2,-1
 318 546 l 1,3,-1
 318 422 l 1,0,-1
318 94 m 1,4,-1
 246 -52 l 1,5,-1
 214 -52 l 1,6,-1
 244 76 l 1,7,-1
 192 76 l 1,8,-1
 192 200 l 1,9,-1
 318 200 l 1,10,-1
 318 94 l 1,4,-1
EndSplineSet
EndChar
StartChar: less
Encoding: 60 60 30
Width: 512
Flags: W
Fore
507 -55 m 1,0,-1
 461 -103 l 1,1,-1
 23 340 l 1,2,3
 5 360 5 360 23 380 c 1,4,-1
 461 823 l 1,5,-1
 507 775 l 1,6,-1
 97 361 l 1,7,-1
 507 -55 l 1,0,-1
EndSplineSet
EndChar
StartChar: equal
Encoding: 61 61 31
Width: 512
Flags: W
Fore
28 503 m 1,0,-1
 490 503 l 1,1,-1
 490 431 l 1,2,-1
 28 431 l 1,3,-1
 28 503 l 1,0,-1
28 293 m 1,4,-1
 490 293 l 1,5,-1
 490 221 l 1,6,-1
 28 221 l 1,7,-1
 28 293 l 1,4,-1
EndSplineSet
EndChar
StartChar: greater
Encoding: 62 62 32
Width: 512
Flags: W
Fore
11 -55 m 1,0,-1
 421 361 l 1,1,-1
 11 775 l 1,2,-1
 57 823 l 1,3,-1
 495 380 l 1,4,5
 513 360 513 360 495 340 c 1,6,-1
 57 -103 l 1,7,-1
 11 -55 l 1,0,-1
EndSplineSet
EndChar
StartChar: question
Encoding: 63 63 33
Width: 512
Flags: W
Fore
198 -56 m 1,0,-1
 198 58 l 1,1,-1
 306 58 l 1,2,-1
 306 -56 l 1,3,-1
 198 -56 l 1,0,-1
266 777 m 1,4,5
 334 779 334 779 393 751 c 128,-1,6
 452 723 452 723 477.5 682 c 128,-1,7
 503 641 503 641 503 595 c 0,8,9
 503 510 503 510 449 465 c 128,-1,10
 395 420 395 420 351 392.5 c 128,-1,11
 307 365 307 365 300.5 327.5 c 128,-1,12
 294 290 294 290 294 240 c 2,13,-1
 294 181 l 1,14,-1
 209 181 l 1,15,-1
 209 240 l 2,16,17
 209 290 209 290 221 338 c 128,-1,18
 233 386 233 386 282.5 424.5 c 128,-1,19
 332 463 332 463 367.5 496 c 128,-1,20
 403 529 403 529 403 594 c 0,21,22
 403 634 403 634 383 658.5 c 128,-1,23
 363 683 363 683 338 693.5 c 128,-1,24
 313 704 313 704 266 704 c 0,25,26
 219 704 219 704 187.5 692 c 128,-1,27
 156 680 156 680 138 646 c 128,-1,28
 120 612 120 612 120 570 c 2,29,-1
 120 524 l 1,30,-1
 16 524 l 1,31,-1
 16 570 l 2,32,33
 16 612 16 612 44.5 664 c 128,-1,34
 73 716 73 716 129 746.5 c 128,-1,35
 185 777 185 777 266 777 c 1,4,5
EndSplineSet
EndChar
StartChar: at
Encoding: 64 64 34
Width: 512
Flags: W
Fore
2 360 m 0,0,1
 2 534 2 534 82 659.5 c 128,-1,2
 162 785 162 785 271 785 c 0,3,4
 386 785 386 785 447 667.5 c 128,-1,5
 508 550 508 550 508 396 c 0,6,7
 508 294 508 294 461.5 214 c 128,-1,8
 415 134 415 134 371 134 c 0,9,10
 329 134 329 134 311.5 147 c 128,-1,11
 294 160 294 160 287 190 c 1,12,13
 264 162 264 162 240 146 c 128,-1,14
 216 130 216 130 179 142 c 128,-1,15
 142 154 142 154 118 199.5 c 128,-1,16
 94 245 94 245 95 304 c 128,-1,17
 96 363 96 363 114 427.5 c 128,-1,18
 132 492 132 492 169.5 541.5 c 128,-1,19
 207 591 207 591 241 603 c 128,-1,20
 275 615 275 615 296 606.5 c 128,-1,21
 317 598 317 598 330 577 c 1,22,-1
 338 631 l 1,23,-1
 398 631 l 1,24,25
 353 720 353 720 272 720 c 0,26,27
 189 720 189 720 129.5 621.5 c 128,-1,28
 70 523 70 523 70 360 c 0,29,30
 70 197 70 197 117.5 101 c 128,-1,31
 165 5 165 5 261 5 c 0,32,33
 319 5 319 5 361.5 34.5 c 128,-1,34
 404 64 404 64 453 153 c 1,35,-1
 511 127 l 1,36,37
 473 46 473 46 412 -7.5 c 128,-1,38
 351 -61 351 -61 261 -61 c 0,39,40
 138 -61 138 -61 70 62 c 128,-1,41
 2 185 2 185 2 360 c 0,0,1
360 281 m 1,42,43
 352 234 352 234 356 220.5 c 128,-1,44
 360 207 360 207 377 207 c 0,45,46
 391 207 391 207 417 256 c 128,-1,47
 443 305 443 305 443 396 c 0,48,49
 443 528 443 528 405 616 c 1,50,-1
 360 281 l 1,42,43
290 288 m 1,51,-1
 321 507 l 1,52,53
 312 538 312 538 296 547 c 128,-1,54
 280 556 280 556 258 549 c 128,-1,55
 236 542 236 542 212.5 505 c 128,-1,56
 189 468 189 468 174.5 415.5 c 128,-1,57
 160 363 160 363 159.5 312 c 128,-1,58
 159 261 159 261 168.5 235 c 128,-1,59
 178 209 178 209 199 204 c 128,-1,60
 220 199 220 199 245 213 c 128,-1,61
 270 227 270 227 290 288 c 1,51,-1
EndSplineSet
EndChar
StartChar: A
Encoding: 65 65 35
Width: 512
Flags: W
Fore
502 -12 m 1,0,-1
 414 -12 l 1,1,-1
 357 210 l 1,2,-1
 155 210 l 1,3,-1
 98 -12 l 1,4,-1
 10 -12 l 1,5,-1
 206 750 l 1,6,-1
 218 750 l 1,7,-1
 294 750 l 1,8,-1
 306 750 l 1,9,-1
 502 -12 l 1,0,-1
252 586 m 1,10,-1
 178 300 l 1,11,-1
 334 300 l 1,12,-1
 260 586 l 1,13,-1
 252 586 l 1,10,-1
EndSplineSet
EndChar
StartChar: B
Encoding: 66 66 36
Width: 512
Flags: W
Fore
407 216 m 0,0,1
 407 281 407 281 358.5 311.5 c 128,-1,2
 310 342 310 342 202 342 c 2,3,-1
 130 342 l 1,4,-1
 130 77 l 1,5,-1
 192 77 l 1,6,-1
 192 78 l 1,7,8
 331 78 331 78 369 119.5 c 128,-1,9
 407 161 407 161 407 216 c 0,0,1
381 546 m 0,10,11
 381 601 381 601 347 630.5 c 128,-1,12
 313 660 313 660 192 660 c 2,13,-1
 130 660 l 1,14,-1
 130 432 l 1,15,-1
 202 432 l 2,16,17
 310 432 310 432 345.5 461.5 c 128,-1,18
 381 491 381 491 381 546 c 0,10,11
44 -12 m 1,19,-1
 44 750 l 1,20,-1
 192 750 l 2,21,22
 352 750 352 750 412.5 698 c 128,-1,23
 473 646 473 646 473 546 c 0,24,25
 473 462 473 462 396 392 c 1,26,27
 499 322 499 322 499 216 c 0,28,29
 499 116 499 116 438.5 52 c 128,-1,30
 378 -12 378 -12 192 -12 c 2,31,-1
 44 -12 l 1,19,-1
EndSplineSet
EndChar
StartChar: C
Encoding: 67 67 37
Width: 512
Flags: W
Fore
14 378 m 0,0,1
 14 528 14 528 82.5 642 c 128,-1,2
 151 756 151 756 259 756 c 0,3,4
 345 756 345 756 412 699 c 128,-1,5
 479 642 479 642 493 496 c 1,6,-1
 397 496 l 1,7,8
 387 609 387 609 349.5 642 c 128,-1,9
 312 675 312 675 259 675 c 0,10,11
 198 675 198 675 152 598 c 128,-1,12
 106 521 106 521 106 377 c 0,13,14
 106 230 106 230 152 150.5 c 128,-1,15
 198 71 198 71 259 71 c 0,16,17
 318 71 318 71 359.5 109.5 c 128,-1,18
 401 148 401 148 409 273 c 1,19,-1
 505 273 l 1,20,21
 497 128 497 128 432 59 c 128,-1,22
 367 -10 367 -10 259 -10 c 0,23,24
 151 -10 151 -10 82.5 104 c 128,-1,25
 14 218 14 218 14 378 c 0,0,1
EndSplineSet
EndChar
StartChar: D
Encoding: 68 68 38
Width: 512
Flags: W
Fore
44 -12 m 1,0,-1
 44 750 l 1,1,-1
 208 750 l 2,2,3
 368 750 368 750 432.5 645 c 128,-1,4
 497 540 497 540 497 369 c 0,5,6
 497 198 497 198 432.5 93 c 128,-1,7
 368 -12 368 -12 208 -12 c 2,8,-1
 44 -12 l 1,0,-1
405 369 m 0,9,10
 405 503 405 503 363 581.5 c 128,-1,11
 321 660 321 660 208 660 c 2,12,-1
 130 660 l 1,13,-1
 130 78 l 1,14,-1
 208 78 l 2,15,16
 321 78 321 78 363 156.5 c 128,-1,17
 405 235 405 235 405 369 c 0,9,10
EndSplineSet
EndChar
StartChar: E
Encoding: 69 69 39
Width: 512
Flags: W
Fore
468 750 m 1,0,-1
 468 660 l 1,1,-1
 130 660 l 1,2,-1
 130 432 l 1,3,-1
 412 432 l 1,4,-1
 412 342 l 1,5,-1
 130 342 l 1,6,-1
 130 78 l 1,7,-1
 468 78 l 1,8,-1
 468 -12 l 1,9,-1
 44 -12 l 1,10,-1
 44 750 l 1,11,-1
 468 750 l 1,0,-1
EndSplineSet
EndChar
StartChar: F
Encoding: 70 70 40
Width: 512
Flags: W
Fore
130 -12 m 1,0,-1
 44 -12 l 1,1,-1
 44 750 l 1,2,-1
 468 750 l 1,3,-1
 468 660 l 1,4,-1
 130 660 l 1,5,-1
 130 432 l 1,6,-1
 412 432 l 1,7,-1
 412 342 l 1,8,-1
 130 342 l 1,9,-1
 130 -12 l 1,0,-1
EndSplineSet
EndChar
StartChar: G
Encoding: 71 71 41
Width: 512
Flags: W
Fore
14 378 m 0,0,1
 14 528 14 528 82.5 642 c 128,-1,2
 151 756 151 756 259 756 c 0,3,4
 345 756 345 756 412 699 c 128,-1,5
 479 642 479 642 493 496 c 1,6,-1
 397 496 l 1,7,8
 387 609 387 609 349.5 642 c 128,-1,9
 312 675 312 675 259 675 c 0,10,11
 198 675 198 675 152 598 c 128,-1,12
 106 521 106 521 106 377 c 0,13,14
 106 230 106 230 152 150.5 c 128,-1,15
 198 71 198 71 259 71 c 0,16,17
 318 71 318 71 360 106.5 c 128,-1,18
 402 142 402 142 410 256 c 1,19,-1
 410 320 l 1,20,-1
 274 320 l 1,21,-1
 274 400 l 1,22,-1
 490 400 l 1,23,-1
 490 -28 l 1,24,-1
 426 -28 l 1,25,-1
 405 40 l 1,26,27
 344 -10 344 -10 259 -10 c 0,28,29
 151 -10 151 -10 82.5 104 c 128,-1,30
 14 218 14 218 14 378 c 0,0,1
EndSplineSet
EndChar
StartChar: H
Encoding: 72 72 42
Width: 512
Flags: W
Fore
130 -12 m 1,0,-1
 44 -12 l 1,1,-1
 44 750 l 1,2,-1
 130 750 l 1,3,-1
 130 432 l 1,4,-1
 400 432 l 1,5,-1
 400 750 l 1,6,-1
 486 750 l 1,7,-1
 486 -12 l 1,8,-1
 400 -12 l 1,9,-1
 400 342 l 1,10,-1
 130 342 l 1,11,-1
 130 -12 l 1,0,-1
EndSplineSet
EndChar
StartChar: I
Encoding: 73 73 43
Width: 512
Flags: W
Fore
300 -12 m 1,0,-1
 214 -12 l 1,1,-1
 214 750 l 1,2,-1
 300 750 l 1,3,-1
 300 -12 l 1,0,-1
EndSplineSet
EndChar
StartChar: J
Encoding: 74 74 44
Width: 512
Flags: W
Fore
207 28 m 0,0,1
 243 28 243 28 264.5 53.5 c 128,-1,2
 286 79 286 79 286 170 c 2,3,-1
 286 750 l 1,4,-1
 372 750 l 1,5,-1
 372 170 l 2,6,7
 372 23 372 23 326 -20.5 c 128,-1,8
 280 -64 280 -64 207 -64 c 0,9,10
 135 -64 135 -64 89 -15.5 c 128,-1,11
 43 33 43 33 43 138 c 1,12,-1
 133 138 l 1,13,14
 133 81 133 81 152.5 54.5 c 128,-1,15
 172 28 172 28 207 28 c 0,0,1
EndSplineSet
EndChar
StartChar: K
Encoding: 75 75 45
Width: 512
Flags: W
Fore
130 -12 m 1,0,-1
 44 -12 l 1,1,-1
 44 750 l 1,2,-1
 130 750 l 1,3,-1
 130 418 l 1,4,-1
 352 750 l 1,5,-1
 458 750 l 1,6,-1
 275 479 l 1,7,-1
 492 -12 l 1,8,-1
 386 -12 l 1,9,-1
 214 388 l 1,10,-1
 130 264 l 1,11,-1
 130 -12 l 1,0,-1
EndSplineSet
EndChar
StartChar: L
Encoding: 76 76 46
Width: 512
Flags: W
Fore
44 750 m 1,0,-1
 130 750 l 1,1,-1
 130 78 l 1,2,-1
 468 78 l 1,3,-1
 468 -12 l 1,4,-1
 130 -12 l 1,5,-1
 44 -12 l 1,6,-1
 44 78 l 1,7,-1
 44 750 l 1,0,-1
EndSplineSet
EndChar
StartChar: M
Encoding: 77 77 47
Width: 512
Flags: W
Fore
98 -12 m 1,0,-1
 12 -12 l 1,1,-1
 12 750 l 1,2,-1
 122 750 l 1,3,-1
 252 206 l 1,4,-1
 262 206 l 1,5,-1
 392 750 l 1,6,-1
 502 750 l 1,7,-1
 502 -12 l 1,8,-1
 416 -12 l 1,9,-1
 416 552 l 1,10,-1
 411 552 l 1,11,-1
 289 -9 l 1,12,-1
 225 -9 l 1,13,-1
 103 552 l 1,14,-1
 98 552 l 1,15,-1
 98 -12 l 1,0,-1
EndSplineSet
EndChar
StartChar: N
Encoding: 78 78 48
Width: 512
Flags: W
Fore
130 -12 m 1,0,-1
 44 -12 l 1,1,-1
 44 750 l 1,2,-1
 154 750 l 1,3,-1
 400 163 l 1,4,-1
 400 750 l 1,5,-1
 486 750 l 1,6,-1
 486 -12 l 1,7,-1
 376 -12 l 1,8,-1
 130 580 l 1,9,-1
 130 -12 l 1,0,-1
EndSplineSet
EndChar
StartChar: O
Encoding: 79 79 49
Width: 512
Flags: W
Fore
14 378 m 0,0,1
 14 528 14 528 82.5 642 c 128,-1,2
 151 756 151 756 259 756 c 0,3,4
 367 756 367 756 436 642 c 128,-1,5
 505 528 505 528 505 377 c 0,6,7
 505 218 505 218 436 104 c 128,-1,8
 367 -10 367 -10 259 -10 c 0,9,10
 151 -10 151 -10 82.5 104 c 128,-1,11
 14 218 14 218 14 378 c 0,0,1
106 377 m 0,12,13
 106 230 106 230 152 150.5 c 128,-1,14
 198 71 198 71 259 71 c 0,15,16
 320 71 320 71 366.5 150.5 c 128,-1,17
 413 230 413 230 413 378 c 0,18,19
 413 521 413 521 366.5 598 c 128,-1,20
 320 675 320 675 259 675 c 0,21,22
 198 675 198 675 152 598 c 128,-1,23
 106 521 106 521 106 377 c 0,12,13
EndSplineSet
EndChar
StartChar: P
Encoding: 80 80 50
Width: 512
Flags: W
Fore
130 -12 m 1,0,-1
 44 -12 l 1,1,-1
 44 750 l 1,2,-1
 208 750 l 2,3,4
 384 750 384 750 440.5 694 c 128,-1,5
 497 638 497 638 497 546 c 0,6,7
 497 454 497 454 440.5 398 c 128,-1,8
 384 342 384 342 208 342 c 2,9,-1
 130 342 l 1,10,-1
 130 -12 l 1,0,-1
405 546 m 0,11,12
 405 601 405 601 371 630.5 c 128,-1,13
 337 660 337 660 208 660 c 2,14,-1
 130 660 l 1,15,-1
 130 432 l 1,16,-1
 208 432 l 2,17,18
 337 432 337 432 371 461.5 c 128,-1,19
 405 491 405 491 405 546 c 0,11,12
EndSplineSet
EndChar
StartChar: Q
Encoding: 81 81 51
Width: 512
Flags: W
Fore
14 378 m 0,0,1
 14 528 14 528 82.5 642 c 128,-1,2
 151 756 151 756 259 756 c 0,3,4
 367 756 367 756 436 642 c 128,-1,5
 505 528 505 528 505 377 c 0,6,7
 505 219 505 219 437 106 c 1,8,-1
 503 6 l 1,9,-1
 420 -44 l 1,10,-1
 373 30 l 1,11,12
 323 -10 323 -10 259 -10 c 0,13,14
 151 -10 151 -10 82.5 104 c 128,-1,15
 14 218 14 218 14 378 c 0,0,1
106 377 m 0,16,17
 106 230 106 230 152 150.5 c 128,-1,18
 198 71 198 71 259 71 c 0,19,20
 296 71 296 71 328 101 c 1,21,-1
 254 217 l 1,22,-1
 335 259 l 1,23,-1
 384 186 l 1,24,25
 413 259 413 259 413 378 c 0,26,27
 413 521 413 521 366.5 598 c 128,-1,28
 320 675 320 675 259 675 c 0,29,30
 198 675 198 675 152 598 c 128,-1,31
 106 521 106 521 106 377 c 0,16,17
EndSplineSet
EndChar
StartChar: R
Encoding: 82 82 52
Width: 512
Flags: W
Fore
130 -12 m 1,0,-1
 44 -12 l 1,1,-1
 44 750 l 1,2,-1
 208 750 l 2,3,4
 384 750 384 750 440.5 694 c 128,-1,5
 497 638 497 638 497 546 c 0,6,7
 497 454 497 454 453.5 410.5 c 128,-1,8
 410 367 410 367 343 354 c 1,9,-1
 510 -12 l 1,10,-1
 402 -12 l 1,11,-1
 245 343 l 1,12,-1
 208 342 l 1,13,-1
 130 342 l 1,14,-1
 130 -12 l 1,0,-1
405 546 m 0,15,16
 405 601 405 601 371 630.5 c 128,-1,17
 337 660 337 660 208 660 c 2,18,-1
 130 660 l 1,19,-1
 130 432 l 1,20,-1
 208 432 l 2,21,22
 337 432 337 432 371 461.5 c 128,-1,23
 405 491 405 491 405 546 c 0,15,16
EndSplineSet
EndChar
StartChar: S
Encoding: 83 83 53
Width: 512
Flags: W
Fore
23 202 m 1,0,-1
 115 202 l 1,1,2
 115 136 115 136 154.5 103.5 c 128,-1,3
 194 71 194 71 257 71 c 0,4,5
 332 71 332 71 365.5 106.5 c 128,-1,6
 399 142 399 142 399 202 c 0,7,8
 399 261 399 261 357 295.5 c 128,-1,9
 315 330 315 330 216 364.5 c 128,-1,10
 117 399 117 399 83 452 c 128,-1,11
 49 505 49 505 49 566 c 0,12,13
 49 634 49 634 110 695 c 128,-1,14
 171 756 171 756 257 756 c 0,15,16
 347 756 347 756 407 705 c 128,-1,17
 467 654 467 654 467 566 c 1,18,-1
 375 566 l 1,19,20
 375 624 375 624 342.5 649.5 c 128,-1,21
 310 675 310 675 257 675 c 0,22,23
 204 675 204 675 172.5 647.5 c 128,-1,24
 141 620 141 620 141 566 c 0,25,26
 141 513 141 513 165 485 c 128,-1,27
 189 457 189 457 282.5 427 c 128,-1,28
 376 397 376 397 433.5 344 c 128,-1,29
 491 291 491 291 491 202 c 0,30,31
 491 112 491 112 430 51 c 128,-1,32
 369 -10 369 -10 257 -10 c 0,33,34
 149 -10 149 -10 86 51 c 128,-1,35
 23 112 23 112 23 202 c 1,0,-1
EndSplineSet
EndChar
StartChar: T
Encoding: 84 84 54
Width: 512
Flags: W
Fore
300 -12 m 1,0,-1
 214 -12 l 1,1,-1
 214 660 l 1,2,-1
 24 660 l 1,3,-1
 24 750 l 1,4,-1
 488 750 l 1,5,-1
 488 660 l 1,6,-1
 300 660 l 1,7,-1
 300 -12 l 1,0,-1
EndSplineSet
EndChar
StartChar: U
Encoding: 85 85 55
Width: 512
Flags: W
Fore
263 71 m 0,0,1
 318 71 318 71 354 111.5 c 128,-1,2
 390 152 390 152 390 253 c 2,3,-1
 390 750 l 1,4,-1
 476 750 l 1,5,-1
 476 253 l 2,6,7
 476 104 476 104 415.5 47 c 128,-1,8
 355 -10 355 -10 263 -10 c 0,9,10
 171 -10 171 -10 110.5 47 c 128,-1,11
 50 104 50 104 50 253 c 2,12,-1
 50 750 l 1,13,-1
 136 750 l 1,14,-1
 136 253 l 2,15,16
 136 152 136 152 172 111.5 c 128,-1,17
 208 71 208 71 263 71 c 0,0,1
EndSplineSet
EndChar
StartChar: V
Encoding: 86 86 56
Width: 512
Flags: W
Fore
502 750 m 1,0,-1
 306 -12 l 1,1,-1
 294 -12 l 1,2,-1
 218 -12 l 1,3,-1
 206 -12 l 1,4,-1
 10 750 l 1,5,-1
 98 750 l 1,6,-1
 252 152 l 1,7,-1
 260 152 l 1,8,-1
 414 750 l 1,9,-1
 502 750 l 1,0,-1
EndSplineSet
EndChar
StartChar: W
Encoding: 87 87 57
Width: 512
Flags: W
Fore
1 750 m 1,0,-1
 85 750 l 1,1,-1
 151 287 l 1,2,-1
 215 750 l 1,3,-1
 299 750 l 1,4,-1
 363 287 l 1,5,-1
 429 750 l 1,6,-1
 513 750 l 1,7,-1
 405 -12 l 1,8,-1
 321 -12 l 1,9,-1
 257 448 l 1,10,-1
 193 -12 l 1,11,-1
 109 -12 l 1,12,-1
 1 750 l 1,0,-1
EndSplineSet
EndChar
StartChar: X
Encoding: 88 88 58
Width: 512
Flags: W
Fore
504 -12 m 1,0,-1
 408 -12 l 1,1,-1
 247 297 l 1,2,-1
 102 -12 l 1,3,-1
 6 -12 l 1,4,-1
 197 394 l 1,5,-1
 12 750 l 1,6,-1
 108 750 l 1,7,-1
 259 458 l 1,8,-1
 402 750 l 1,9,-1
 498 750 l 1,10,-1
 309 363 l 1,11,-1
 504 -12 l 1,0,-1
EndSplineSet
EndChar
StartChar: Y
Encoding: 89 89 59
Width: 512
Flags: W
Fore
300 -12 m 1,0,-1
 214 -12 l 1,1,-1
 214 286 l 1,2,-1
 12 744 l 1,3,-1
 100 744 l 1,4,-1
 257 388 l 1,5,-1
 414 744 l 1,6,-1
 502 744 l 1,7,-1
 300 286 l 1,8,-1
 300 -12 l 1,0,-1
EndSplineSet
EndChar
StartChar: Z
Encoding: 90 90 60
Width: 512
Flags: W
Fore
60 750 m 1,0,-1
 460 750 l 1,1,-1
 460 660 l 1,2,-1
 134 78 l 1,3,-1
 476 78 l 1,4,-1
 476 -12 l 1,5,-1
 36 -12 l 1,6,-1
 36 78 l 1,7,-1
 362 660 l 1,8,-1
 60 660 l 1,9,-1
 60 750 l 1,0,-1
EndSplineSet
EndChar
StartChar: bracketleft
Encoding: 91 91 61
Width: 512
Flags: W
Fore
175 826 m 1,0,-1
 412 826 l 1,1,-1
 412 753 l 1,2,-1
 249 753 l 1,3,-1
 249 -25 l 1,4,-1
 412 -25 l 1,5,-1
 412 -97 l 1,6,-1
 175 -97 l 1,7,-1
 175 826 l 1,0,-1
EndSplineSet
EndChar
StartChar: backslash
Encoding: 92 92 62
Width: 512
Flags: W
Fore
56 814 m 1,0,-1
 511 -50 l 1,1,-1
 454 -67 l 1,2,-1
 0 793 l 1,3,-1
 56 814 l 1,0,-1
EndSplineSet
EndChar
StartChar: bracketright
Encoding: 93 93 63
Width: 512
Flags: W
Fore
335 826 m 1,0,-1
 335 -97 l 1,1,-1
 98 -97 l 1,2,-1
 98 -25 l 1,3,-1
 261 -25 l 1,4,-1
 261 753 l 1,5,-1
 98 753 l 1,6,-1
 98 826 l 1,7,-1
 335 826 l 1,0,-1
EndSplineSet
EndChar
StartChar: asciicircum
Encoding: 94 94 64
Width: 512
Flags: W
Fore
236 836 m 1,0,-1
 276 836 l 1,1,-1
 415 695 l 1,2,-1
 364 660 l 1,3,-1
 256 773 l 1,4,-1
 148 660 l 1,5,-1
 97 695 l 1,6,-1
 236 836 l 1,0,-1
EndSplineSet
EndChar
StartChar: underscore
Encoding: 95 95 65
Width: 512
Flags: W
Fore
4 -50 m 1,0,-1
 505 -50 l 1,1,-1
 505 -121 l 1,2,-1
 4 -121 l 1,3,-1
 4 -50 l 1,0,-1
EndSplineSet
EndChar
StartChar: grave
Encoding: 96 96 66
Width: 512
Flags: W
Fore
84 730 m 1,0,-1
 84 836 l 1,1,-1
 210 836 l 1,2,-1
 210 712 l 1,3,-1
 158 712 l 1,4,-1
 188 584 l 1,5,-1
 156 584 l 1,6,-1
 84 730 l 1,0,-1
EndSplineSet
EndChar
StartChar: a
Encoding: 97 97 67
Width: 512
Flags: W
Fore
260 532 m 0,0,1
 348 532 348 532 400.5 485.5 c 128,-1,2
 453 439 453 439 453 350 c 2,3,-1
 453 104 l 2,4,5
 453 42 453 42 476 -10 c 1,6,-1
 380 -10 l 1,7,8
 373 23 373 23 370 52 c 1,9,10
 343 22 343 22 301.5 6.5 c 128,-1,11
 260 -9 260 -9 220 -10 c 0,12,13
 144 -10 144 -10 99.5 30 c 128,-1,14
 55 70 55 70 55 135 c 0,15,16
 55 184 55 184 83.5 230 c 128,-1,17
 112 276 112 276 174.5 304.5 c 128,-1,18
 237 333 237 333 367 358 c 1,19,-1
 367 378 l 2,20,21
 367 416 367 416 340.5 443.5 c 128,-1,22
 314 471 314 471 260 471 c 0,23,24
 217 471 217 471 193.5 448.5 c 128,-1,25
 170 426 170 426 162 385 c 1,26,-1
 74 385 l 1,27,28
 82 452 82 452 133 492 c 128,-1,29
 184 532 184 532 260 532 c 0,0,1
367 295 m 1,30,31
 275 275 275 275 226 255 c 128,-1,32
 177 235 177 235 162 207 c 128,-1,33
 147 179 147 179 147 136 c 0,34,35
 147 99 147 99 166.5 80 c 128,-1,36
 186 61 186 61 221 61 c 0,37,38
 256 62 256 62 295 78.5 c 128,-1,39
 334 95 334 95 367 161 c 1,40,-1
 367 295 l 1,30,31
EndSplineSet
EndChar
StartChar: b
Encoding: 98 98 68
Width: 512
Flags: W
Fore
156 -12 m 1,0,-1
 70 -12 l 1,1,-1
 70 750 l 1,2,-1
 156 750 l 1,3,-1
 156 471 l 1,4,5
 217 532 217 532 277 532 c 0,6,7
 358 532 358 532 416.5 468 c 128,-1,8
 475 404 475 404 475 272 c 0,9,10
 475 160 475 160 417.5 77 c 128,-1,11
 360 -6 360 -6 255 -10 c 1,12,13
 199 -10 199 -10 156 27 c 1,14,-1
 156 -12 l 1,0,-1
255 71 m 1,15,16
 313 75 313 75 348 129.5 c 128,-1,17
 383 184 383 184 383 272 c 0,18,19
 383 380 383 380 347 415.5 c 128,-1,20
 311 451 311 451 267 451 c 0,21,22
 218 451 218 451 190 407.5 c 128,-1,23
 162 364 162 364 156 319 c 1,24,-1
 156 137 l 1,25,26
 172 105 172 105 193 88 c 128,-1,27
 214 71 214 71 255 71 c 1,15,16
EndSplineSet
EndChar
StartChar: c
Encoding: 99 99 69
Width: 512
Flags: W
Fore
23 260 m 0,0,1
 23 368 23 368 88.5 450 c 128,-1,2
 154 532 154 532 248 532 c 0,3,4
 350 532 350 532 410 475 c 128,-1,5
 470 418 470 418 478 336 c 1,6,-1
 386 336 l 1,7,8
 378 399 378 399 342.5 425 c 128,-1,9
 307 451 307 451 248 451 c 0,10,11
 199 451 199 451 157 406 c 128,-1,12
 115 361 115 361 115 259 c 0,13,14
 115 166 115 166 159 118.5 c 128,-1,15
 203 71 203 71 252 71 c 0,16,17
 301 71 301 71 334.5 86.5 c 128,-1,18
 368 102 368 102 386 172 c 1,19,-1
 482 172 l 1,20,21
 468 90 468 90 408 40 c 128,-1,22
 348 -10 348 -10 252 -10 c 0,23,24
 156 -10 156 -10 89.5 72 c 128,-1,25
 23 154 23 154 23 260 c 0,0,1
EndSplineSet
EndChar
StartChar: d
Encoding: 100 100 70
Width: 512
Flags: W
Fore
364 -12 m 1,0,-1
 364 27 l 1,1,2
 320 -10 320 -10 257 -10 c 1,3,4
 156 -6 156 -6 100.5 73 c 128,-1,5
 45 152 45 152 45 254 c 0,6,7
 45 386 45 386 103.5 459 c 128,-1,8
 162 532 162 532 235 532 c 0,9,10
 295 532 295 532 364 468 c 1,11,-1
 364 750 l 1,12,-1
 450 750 l 1,13,-1
 450 -12 l 1,14,-1
 364 -12 l 1,0,-1
237 451 m 0,15,16
 201 451 201 451 169 406.5 c 128,-1,17
 137 362 137 362 137 254 c 0,18,19
 137 176 137 176 166 125.5 c 128,-1,20
 195 75 195 75 257 71 c 1,21,22
 298 71 298 71 325.5 89.5 c 128,-1,23
 353 108 353 108 364 151 c 1,24,-1
 364 315 l 1,25,26
 357 363 357 363 321.5 407 c 128,-1,27
 286 451 286 451 237 451 c 0,15,16
EndSplineSet
EndChar
StartChar: e
Encoding: 101 101 71
Width: 512
Flags: W
Fore
27 260 m 0,0,1
 27 368 27 368 89.5 450 c 128,-1,2
 152 532 152 532 248 532 c 0,3,4
 340 532 340 532 409 469 c 128,-1,5
 478 406 478 406 478 266 c 1,6,-1
 386 266 l 1,7,-1
 119 266 l 1,8,-1
 119 259 l 2,9,10
 119 166 119 166 161 118.5 c 128,-1,11
 203 71 203 71 252 71 c 0,12,13
 301 71 301 71 337.5 86.5 c 128,-1,14
 374 102 374 102 386 172 c 1,15,-1
 482 172 l 1,16,17
 472 86 472 86 410 38 c 128,-1,18
 348 -10 348 -10 252 -10 c 0,19,20
 156 -10 156 -10 91.5 72 c 128,-1,21
 27 154 27 154 27 260 c 0,0,1
248 451 m 0,22,23
 199 451 199 451 168 416 c 128,-1,24
 137 381 137 381 127 340 c 1,25,-1
 378 340 l 1,26,27
 368 394 368 394 336.5 422.5 c 128,-1,28
 305 451 305 451 248 451 c 0,22,23
EndSplineSet
EndChar
StartChar: f
Encoding: 102 102 72
Width: 512
Flags: W
Fore
341 675 m 0,0,1
 303 675 303 675 291.5 649 c 128,-1,2
 280 623 280 623 280 554 c 2,3,-1
 280 518 l 1,4,-1
 424 518 l 1,5,-1
 424 444 l 1,6,-1
 280 444 l 1,7,-1
 280 -12 l 1,8,-1
 194 -12 l 1,9,-1
 194 444 l 1,10,-1
 116 444 l 1,11,-1
 116 518 l 1,12,-1
 194 518 l 1,13,-1
 194 554 l 2,14,15
 194 677 194 677 235 716.5 c 128,-1,16
 276 756 276 756 341 756 c 0,17,18
 403 756 403 756 444 739 c 1,19,-1
 444 650 l 1,20,21
 387 675 387 675 341 675 c 0,0,1
EndSplineSet
EndChar
StartChar: g
Encoding: 103 103 73
Width: 512
Flags: W
Fore
78 370 m 0,0,1
 78 432 78 432 122.5 482 c 128,-1,2
 167 532 167 532 259 532 c 0,3,4
 320 532 320 532 360 510 c 1,5,6
 418 542 418 542 488 552 c 1,7,-1
 488 482 l 1,8,9
 438 484 438 484 402 474 c 1,10,11
 441 427 441 427 441 369 c 0,12,13
 441 306 441 306 396 256 c 128,-1,14
 351 206 351 206 259 206 c 0,15,16
 222 206 222 206 193 214 c 1,17,18
 167 195 167 195 167 185 c 0,19,20
 167 176 167 176 203.5 168 c 128,-1,21
 240 160 240 160 291 152 c 128,-1,22
 342 144 342 144 388 127.5 c 128,-1,23
 434 111 434 111 464.5 76.5 c 128,-1,24
 495 42 495 42 495 -2 c 0,25,26
 495 -51 495 -51 431 -89.5 c 128,-1,27
 367 -128 367 -128 260 -128 c 0,28,29
 153 -128 153 -128 89 -89.5 c 128,-1,30
 25 -51 25 -51 25 -2 c 0,31,32
 25 33 25 33 48 62.5 c 128,-1,33
 71 92 71 92 136 120 c 1,34,35
 111 130 111 130 99.5 148 c 128,-1,36
 88 166 88 166 88 184 c 0,37,38
 88 206 88 206 141 239 c 1,39,40
 131 247 131 247 104.5 276.5 c 128,-1,41
 78 306 78 306 78 370 c 0,0,1
170 369 m 0,42,43
 170 334 170 334 192 306.5 c 128,-1,44
 214 279 214 279 259 279 c 0,45,46
 304 279 304 279 326.5 306.5 c 128,-1,47
 349 334 349 334 349 370 c 0,48,49
 349 409 349 409 326.5 434 c 128,-1,50
 304 459 304 459 259 459 c 0,51,52
 214 459 214 459 192 434 c 128,-1,53
 170 409 170 409 170 369 c 0,42,43
117 -2 m 0,54,55
 117 -29 117 -29 156 -45 c 128,-1,56
 195 -61 195 -61 260 -61 c 0,57,58
 325 -61 325 -61 364 -45 c 128,-1,59
 403 -29 403 -29 403 -2 c 0,60,61
 403 45 403 45 360 61 c 128,-1,62
 317 77 317 77 284 84 c 128,-1,63
 251 91 251 91 225 97 c 1,64,65
 165 79 165 79 141 56.5 c 128,-1,66
 117 34 117 34 117 -2 c 0,54,55
EndSplineSet
EndChar
StartChar: h
Encoding: 104 104 74
Width: 512
Flags: W
Fore
160 -12 m 1,0,-1
 74 -12 l 1,1,-1
 74 750 l 1,2,-1
 160 750 l 1,3,-1
 160 449 l 1,4,5
 233 532 233 532 305 532 c 0,6,7
 359 532 359 532 416.5 493 c 128,-1,8
 474 454 474 454 474 339 c 2,9,-1
 474 -12 l 1,10,-1
 388 -12 l 1,11,-1
 388 339 l 2,12,13
 388 406 388 406 363 428.5 c 128,-1,14
 338 451 338 451 287 451 c 0,15,16
 246 451 246 451 206.5 410.5 c 128,-1,17
 167 370 167 370 160 299 c 1,18,-1
 160 -12 l 1,0,-1
EndSplineSet
EndChar
StartChar: i
Encoding: 105 105 75
Width: 512
Flags: W
Fore
306 -12 m 1,0,-1
 220 -12 l 1,1,-1
 220 534 l 1,2,-1
 306 534 l 1,3,-1
 306 -12 l 1,0,-1
308 642 m 1,4,-1
 218 642 l 1,5,-1
 218 738 l 1,6,-1
 308 738 l 1,7,-1
 308 642 l 1,4,-1
EndSplineSet
EndChar
StartChar: j
Encoding: 106 106 76
Width: 512
Flags: W
Fore
223 -28 m 0,0,1
 253 -28 253 -28 269.5 -2.5 c 128,-1,2
 286 23 286 23 286 82 c 2,3,-1
 286 534 l 1,4,-1
 372 534 l 1,5,-1
 372 82 l 2,6,7
 372 -33 372 -33 326 -76.5 c 128,-1,8
 280 -120 280 -120 223 -120 c 0,9,10
 165 -120 165 -120 123 -79.5 c 128,-1,11
 81 -39 81 -39 81 38 c 1,12,-1
 171 38 l 1,13,14
 171 -5 171 -5 186.5 -16.5 c 128,-1,15
 202 -28 202 -28 223 -28 c 0,0,1
374 642 m 1,16,-1
 284 642 l 1,17,-1
 284 738 l 1,18,-1
 374 738 l 1,19,-1
 374 642 l 1,16,-1
EndSplineSet
EndChar
StartChar: k
Encoding: 107 107 77
Width: 512
Flags: W
Fore
160 -12 m 1,0,-1
 74 -12 l 1,1,-1
 74 750 l 1,2,-1
 160 750 l 1,3,-1
 160 243 l 1,4,-1
 364 518 l 1,5,-1
 458 518 l 1,6,-1
 289 299 l 1,7,-1
 498 -12 l 1,8,-1
 394 -12 l 1,9,-1
 236 229 l 1,10,-1
 160 131 l 1,11,-1
 160 -12 l 1,0,-1
EndSplineSet
EndChar
StartChar: l
Encoding: 108 108 78
Width: 512
Flags: W
Fore
300 -12 m 1,0,-1
 214 -12 l 1,1,-1
 214 750 l 1,2,-1
 300 750 l 1,3,-1
 300 -12 l 1,0,-1
EndSplineSet
EndChar
StartChar: m
Encoding: 109 109 79
Width: 512
Flags: W
Fore
94 -12 m 1,0,-1
 8 -12 l 1,1,-1
 8 534 l 1,2,-1
 94 534 l 1,3,-1
 94 461 l 1,4,5
 137 532 137 532 179 532 c 0,6,7
 221 532 221 532 250.5 506.5 c 128,-1,8
 280 481 280 481 290 441 c 1,9,10
 296 454 296 454 319.5 493 c 128,-1,11
 343 532 343 532 385 532 c 0,12,13
 427 532 427 532 466.5 498 c 128,-1,14
 506 464 506 464 506 339 c 2,15,-1
 506 -12 l 1,16,-1
 420 -12 l 1,17,-1
 420 339 l 2,18,19
 420 406 420 406 407 428.5 c 128,-1,20
 394 451 394 451 373 451 c 0,21,22
 346 451 346 451 325.5 412 c 128,-1,23
 305 373 305 373 300 313 c 1,24,-1
 300 -12 l 1,25,-1
 214 -12 l 1,26,-1
 214 339 l 2,27,28
 214 406 214 406 201 428.5 c 128,-1,29
 188 451 188 451 167 451 c 0,30,31
 140 451 140 451 119.5 412 c 128,-1,32
 99 373 99 373 94 313 c 1,33,-1
 94 -12 l 1,0,-1
EndSplineSet
EndChar
StartChar: n
Encoding: 110 110 80
Width: 512
Flags: W
Fore
160 -12 m 1,0,-1
 74 -12 l 1,1,-1
 74 534 l 1,2,-1
 160 534 l 1,3,-1
 160 449 l 1,4,5
 233 532 233 532 305 532 c 0,6,7
 359 532 359 532 416.5 493 c 128,-1,8
 474 454 474 454 474 339 c 2,9,-1
 474 -12 l 1,10,-1
 388 -12 l 1,11,-1
 388 339 l 2,12,13
 388 406 388 406 363 428.5 c 128,-1,14
 338 451 338 451 287 451 c 0,15,16
 246 451 246 451 203 405.5 c 128,-1,17
 160 360 160 360 160 259 c 2,18,-1
 160 -12 l 1,0,-1
EndSplineSet
EndChar
StartChar: o
Encoding: 111 111 81
Width: 512
Flags: W
Fore
30 266 m 0,0,1
 30 368 30 368 94.5 450 c 128,-1,2
 159 532 159 532 259 532 c 0,3,4
 359 532 359 532 424 450 c 128,-1,5
 489 368 489 368 489 265 c 0,6,7
 489 154 489 154 424 72 c 128,-1,8
 359 -10 359 -10 259 -10 c 0,9,10
 159 -10 159 -10 94.5 72 c 128,-1,11
 30 154 30 154 30 266 c 0,0,1
122 265 m 0,12,13
 122 166 122 166 164 118.5 c 128,-1,14
 206 71 206 71 259 71 c 0,15,16
 312 71 312 71 354.5 118.5 c 128,-1,17
 397 166 397 166 397 266 c 0,18,19
 397 361 397 361 354.5 406 c 128,-1,20
 312 451 312 451 259 451 c 0,21,22
 206 451 206 451 164 406 c 128,-1,23
 122 361 122 361 122 265 c 0,12,13
EndSplineSet
EndChar
StartChar: p
Encoding: 112 112 82
Width: 512
Flags: W
Fore
68 -116 m 1,0,-1
 68 534 l 1,1,-1
 154 534 l 1,2,-1
 154 468 l 1,3,4
 211 532 211 532 279 532 c 0,5,6
 358 532 358 532 415.5 464 c 128,-1,7
 473 396 473 396 473 286 c 0,8,9
 473 180 473 180 416.5 115 c 128,-1,10
 360 50 360 50 277 46 c 1,11,12
 209 46 209 46 154 82 c 1,13,-1
 154 -116 l 1,14,-1
 68 -116 l 1,0,-1
277 127 m 1,15,16
 321 131 321 131 351 167.5 c 128,-1,17
 381 204 381 204 381 286 c 0,18,19
 381 366 381 366 350 408.5 c 128,-1,20
 319 451 319 451 277 451 c 0,21,22
 220 451 220 451 190 409 c 128,-1,23
 160 367 160 367 154 340 c 1,24,-1
 154 193 l 1,25,26
 166 156 166 156 201 141.5 c 128,-1,27
 236 127 236 127 277 127 c 1,15,16
EndSplineSet
EndChar
StartChar: q
Encoding: 113 113 83
Width: 512
Flags: W
Fore
450 -116 m 1,0,-1
 364 -116 l 1,1,-1
 364 534 l 1,2,-1
 450 534 l 1,3,-1
 450 -116 l 1,0,-1
235 532 m 0,4,5
 303 532 303 532 362 473.5 c 128,-1,6
 421 415 421 415 427 303 c 1,7,-1
 366 287 l 1,8,9
 366 352 366 352 330 401.5 c 128,-1,10
 294 451 294 451 237 451 c 0,11,12
 195 451 195 451 166 398.5 c 128,-1,13
 137 346 137 346 137 286 c 0,14,15
 137 200 137 200 170 165.5 c 128,-1,16
 203 131 203 131 257 127 c 1,17,18
 298 127 298 127 328 143 c 128,-1,19
 358 159 358 159 368 208 c 1,20,-1
 434 181 l 1,21,22
 416 116 416 116 370.5 81 c 128,-1,23
 325 46 325 46 257 46 c 1,24,25
 164 50 164 50 104.5 113 c 128,-1,26
 45 176 45 176 45 286 c 0,27,28
 45 378 45 378 95.5 455 c 128,-1,29
 146 532 146 532 235 532 c 0,4,5
EndSplineSet
EndChar
StartChar: r
Encoding: 114 114 84
Width: 512
Flags: W
Fore
192 -12 m 1,0,-1
 106 -12 l 1,1,-1
 106 534 l 1,2,-1
 192 534 l 1,3,-1
 192 436 l 1,4,5
 206 457 206 457 255.5 503.5 c 128,-1,6
 305 550 305 550 408 532 c 1,7,-1
 408 433 l 1,8,9
 318 445 318 445 255 402.5 c 128,-1,10
 192 360 192 360 192 259 c 2,11,-1
 192 -12 l 1,0,-1
EndSplineSet
EndChar
StartChar: s
Encoding: 115 115 85
Width: 512
Flags: W
Fore
31 170 m 1,0,-1
 123 170 l 1,1,2
 123 112 123 112 158.5 91.5 c 128,-1,3
 194 71 194 71 257 71 c 0,4,5
 324 71 324 71 357.5 90.5 c 128,-1,6
 391 110 391 110 391 144 c 0,7,8
 391 193 391 193 353 213.5 c 128,-1,9
 315 234 315 234 228 242.5 c 128,-1,10
 141 251 141 251 99 293 c 128,-1,11
 57 335 57 335 57 388 c 0,12,13
 57 440 57 440 114 486 c 128,-1,14
 171 532 171 532 257 532 c 0,15,16
 347 532 347 532 403 492 c 128,-1,17
 459 452 459 452 459 388 c 1,18,-1
 367 388 l 1,19,20
 367 422 367 422 334.5 436.5 c 128,-1,21
 302 451 302 451 257 451 c 0,22,23
 212 451 212 451 180.5 434.5 c 128,-1,24
 149 418 149 418 149 388 c 0,25,26
 149 343 149 343 177 328 c 128,-1,27
 205 313 205 313 286.5 305 c 128,-1,28
 368 297 368 297 425.5 262 c 128,-1,29
 483 227 483 227 483 144 c 0,30,31
 483 80 483 80 422 35 c 128,-1,32
 361 -10 361 -10 257 -10 c 0,33,34
 149 -10 149 -10 90 37 c 128,-1,35
 31 84 31 84 31 170 c 1,0,-1
EndSplineSet
EndChar
StartChar: t
Encoding: 116 116 86
Width: 512
Flags: W
Fore
182 704 m 1,0,-1
 265 756 l 1,1,-1
 268 756 l 1,2,-1
 268 550 l 1,3,-1
 392 550 l 1,4,-1
 392 476 l 1,5,-1
 268 476 l 1,6,-1
 268 94 l 2,7,8
 268 70 268 70 292 70 c 2,9,-1
 372 70 l 1,10,-1
 372 -12 l 1,11,-1
 280 -12 l 2,12,13
 182 -12 182 -12 182 94 c 2,14,-1
 182 476 l 1,15,-1
 84 476 l 1,16,-1
 84 550 l 1,17,-1
 182 550 l 1,18,-1
 182 704 l 1,0,-1
EndSplineSet
EndChar
StartChar: u
Encoding: 117 117 87
Width: 512
Flags: W
Fore
376 534 m 1,0,-1
 462 534 l 1,1,-1
 462 -12 l 1,2,-1
 376 -12 l 1,3,-1
 376 73 l 1,4,5
 303 -10 303 -10 231 -10 c 0,6,7
 177 -10 177 -10 119.5 29 c 128,-1,8
 62 68 62 68 62 183 c 2,9,-1
 62 534 l 1,10,-1
 148 534 l 1,11,-1
 148 183 l 2,12,13
 148 116 148 116 173 93.5 c 128,-1,14
 198 71 198 71 249 71 c 0,15,16
 290 71 290 71 333 116.5 c 128,-1,17
 376 162 376 162 376 263 c 2,18,-1
 376 534 l 1,0,-1
EndSplineSet
EndChar
StartChar: v
Encoding: 118 118 88
Width: 512
Flags: W
Fore
494 534 m 1,0,-1
 306 -12 l 1,1,-1
 206 -12 l 1,2,-1
 18 534 l 1,3,-1
 106 534 l 1,4,-1
 253 106 l 1,5,-1
 259 106 l 1,6,-1
 406 534 l 1,7,-1
 494 534 l 1,0,-1
EndSplineSet
EndChar
StartChar: w
Encoding: 119 119 89
Width: 512
Flags: W
Fore
1 534 m 1,0,-1
 85 534 l 1,1,-1
 151 202 l 1,2,-1
 215 534 l 1,3,-1
 299 534 l 1,4,-1
 363 202 l 1,5,-1
 429 534 l 1,6,-1
 513 534 l 1,7,-1
 405 -12 l 1,8,-1
 321 -12 l 1,9,-1
 257 318 l 1,10,-1
 193 -12 l 1,11,-1
 109 -12 l 1,12,-1
 1 534 l 1,0,-1
EndSplineSet
EndChar
StartChar: x
Encoding: 120 120 90
Width: 512
Flags: W
Fore
502 -12 m 1,0,-1
 414 -12 l 1,1,-1
 252 211 l 1,2,-1
 106 -12 l 1,3,-1
 18 -12 l 1,4,-1
 206 275 l 1,5,-1
 18 534 l 1,6,-1
 106 534 l 1,7,-1
 260 322 l 1,8,-1
 406 534 l 1,9,-1
 494 534 l 1,10,-1
 305 260 l 1,11,-1
 502 -12 l 1,0,-1
EndSplineSet
EndChar
StartChar: y
Encoding: 121 121 91
Width: 512
Flags: W
Fore
156 -20 m 1,0,-1
 199 76 l 1,1,-1
 26 534 l 1,2,-1
 116 534 l 1,3,-1
 248 183 l 1,4,-1
 408 534 l 1,5,-1
 502 534 l 1,6,-1
 242 -36 l 1,7,8
 193 -156 193 -156 60 -120 c 1,9,-1
 60 -40 l 1,10,11
 131 -66 131 -66 156 -20 c 1,0,-1
EndSplineSet
EndChar
StartChar: z
Encoding: 122 122 92
Width: 512
Flags: W
Fore
60 534 m 1,0,-1
 452 534 l 1,1,-1
 452 444 l 1,2,-1
 156 78 l 1,3,-1
 44 78 l 1,4,-1
 340 444 l 1,5,-1
 60 444 l 1,6,-1
 60 534 l 1,0,-1
44 78 m 1,7,-1
 476 78 l 1,8,-1
 476 -12 l 1,9,-1
 44 -12 l 1,10,-1
 44 78 l 1,7,-1
EndSplineSet
EndChar
StartChar: braceleft
Encoding: 123 123 93
Width: 512
Flags: W
Fore
436 -121 m 1,0,1
 370 -121 370 -121 309 -86 c 128,-1,2
 248 -51 248 -51 248 42 c 2,3,-1
 248 197 l 2,4,5
 248 273 248 273 233.5 299.5 c 128,-1,6
 219 326 219 326 160 326 c 1,7,-1
 160 408 l 1,8,9
 219 408 219 408 233.5 434.5 c 128,-1,10
 248 461 248 461 248 537 c 2,11,-1
 248 692 l 2,12,13
 248 785 248 785 309 820 c 128,-1,14
 370 855 370 855 436 855 c 1,15,-1
 436 804 l 1,16,17
 396 804 396 804 363 787 c 128,-1,18
 330 770 330 770 330 690 c 2,19,-1
 330 535 l 2,20,21
 330 441 330 441 296.5 404 c 128,-1,22
 263 367 263 367 231 367 c 1,23,24
 263 367 263 367 296.5 330 c 128,-1,25
 330 293 330 293 330 199 c 2,26,-1
 330 44 l 2,27,28
 330 -36 330 -36 363 -53 c 128,-1,29
 396 -70 396 -70 436 -70 c 1,30,-1
 436 -121 l 1,0,1
EndSplineSet
EndChar
StartChar: bar
Encoding: 124 124 94
Width: 512
Flags: W
Fore
218 -136 m 1,0,-1
 218 874 l 1,1,-1
 290 874 l 1,2,-1
 290 -136 l 1,3,-1
 218 -136 l 1,0,-1
EndSplineSet
EndChar
StartChar: braceright
Encoding: 125 125 95
Width: 512
Flags: W
Fore
92 -121 m 1,0,-1
 92 -70 l 1,1,2
 132 -70 132 -70 165 -53 c 128,-1,3
 198 -36 198 -36 198 44 c 2,4,-1
 198 199 l 2,5,6
 198 293 198 293 231.5 330 c 128,-1,7
 265 367 265 367 297 367 c 1,8,9
 265 367 265 367 231.5 404 c 128,-1,10
 198 441 198 441 198 535 c 2,11,-1
 198 690 l 2,12,13
 198 770 198 770 165 787 c 128,-1,14
 132 804 132 804 92 804 c 1,15,-1
 92 855 l 1,16,17
 158 855 158 855 219 820 c 128,-1,18
 280 785 280 785 280 692 c 2,19,-1
 280 537 l 2,20,21
 280 461 280 461 294.5 434.5 c 128,-1,22
 309 408 309 408 368 408 c 1,23,-1
 368 326 l 1,24,25
 309 326 309 326 294.5 299.5 c 128,-1,26
 280 273 280 273 280 197 c 2,27,-1
 280 42 l 2,28,29
 280 -51 280 -51 219 -86 c 128,-1,30
 158 -121 158 -121 92 -121 c 1,0,-1
EndSplineSet
EndChar
StartChar: asciitilde
Encoding: 126 126 96
Width: 512
Flags: W
Fore
454 666 m 1,0,1
 387 607 387 607 343 607 c 0,2,3
 301 607 301 607 270 634 c 128,-1,4
 239 661 239 661 214 682 c 128,-1,5
 189 703 189 703 155 703 c 0,6,7
 119 703 119 703 44 635 c 1,8,-1
 44 713 l 1,9,10
 111 772 111 772 155 772 c 0,11,12
 197 772 197 772 228 745 c 128,-1,13
 259 718 259 718 284 697 c 128,-1,14
 309 676 309 676 343 676 c 0,15,16
 379 676 379 676 454 744 c 1,17,-1
 454 666 l 1,0,1
EndSplineSet
EndChar
StartChar: yen
Encoding: 165 165 102
Width: 512
Flags: W
Fore
298 -12 m 1,0,-1
 216 -12 l 1,1,-1
 216 140 l 1,2,-1
 44 140 l 1,3,-1
 44 200 l 1,4,-1
 216 200 l 1,5,-1
 216 286 l 1,6,-1
 210 300 l 1,7,-1
 44 300 l 1,8,-1
 44 360 l 1,9,-1
 183 360 l 1,10,-1
 12 744 l 1,11,-1
 100 744 l 1,12,-1
 257 388 l 1,13,-1
 414 744 l 1,14,-1
 502 744 l 1,15,-1
 331 360 l 1,16,-1
 480 360 l 1,17,-1
 480 300 l 1,18,-1
 304 300 l 1,19,-1
 298 286 l 1,20,-1
 298 200 l 1,21,-1
 480 200 l 1,22,-1
 480 140 l 1,23,-1
 298 140 l 1,24,-1
 298 -12 l 1,0,-1
EndSplineSet
EndChar
StartChar: section
Encoding: 167 167 104
Width: 1024
Flags: W
Fore
713 75 m 0,0,1
 713 12 713 12 653.5 -40 c 128,-1,2
 594 -92 594 -92 480 -92 c 0,3,4
 399 -92 399 -92 337.5 -61 c 128,-1,5
 276 -30 276 -30 250 56 c 1,6,-1
 350 56 l 1,7,8
 362 8 362 8 398 -5.5 c 128,-1,9
 434 -19 434 -19 480 -19 c 0,10,11
 531 -19 531 -19 573 0.5 c 128,-1,12
 615 20 615 20 615 74 c 0,13,14
 615 115 615 115 584 137.5 c 128,-1,15
 553 160 553 160 457 208 c 128,-1,16
 361 256 361 256 312.5 292 c 128,-1,17
 264 328 264 328 264 400 c 0,18,19
 264 449 264 449 287 472.5 c 128,-1,20
 310 496 310 496 329 507 c 1,21,22
 310 520 310 520 279.5 545 c 128,-1,23
 249 570 249 570 249 643 c 0,24,25
 249 706 249 706 308.5 758 c 128,-1,26
 368 810 368 810 482 810 c 0,27,28
 563 810 563 810 624.5 779 c 128,-1,29
 686 748 686 748 712 662 c 1,30,-1
 612 662 l 1,31,32
 600 710 600 710 564 723.5 c 128,-1,33
 528 737 528 737 482 737 c 0,34,35
 431 737 431 737 389 717.5 c 128,-1,36
 347 698 347 698 347 644 c 0,37,38
 347 603 347 603 378 580.5 c 128,-1,39
 409 558 409 558 505 510 c 128,-1,40
 601 462 601 462 649.5 426 c 128,-1,41
 698 390 698 390 698 318 c 0,42,43
 698 269 698 269 675 245.5 c 128,-1,44
 652 222 652 222 633 211 c 1,45,46
 652 198 652 198 682.5 173 c 128,-1,47
 713 148 713 148 713 75 c 0,0,1
362 401 m 0,48,49
 362 371 362 371 378.5 351.5 c 128,-1,50
 395 332 395 332 465 299 c 128,-1,51
 535 266 535 266 559 253 c 1,52,53
 575 261 575 261 587.5 272 c 128,-1,54
 600 283 600 283 600 317 c 0,55,56
 600 347 600 347 583.5 366.5 c 128,-1,57
 567 386 567 386 497 419 c 128,-1,58
 427 452 427 452 403 465 c 1,59,60
 387 457 387 457 374.5 446 c 128,-1,61
 362 435 362 435 362 401 c 0,48,49
EndSplineSet
Substitution: 1 0 'vert' section.vert
EndChar
StartChar: dieresis
Encoding: 168 168 105
Width: 1024
Flags: W
Fore
316 690 m 1,0,-1
 316 810 l 1,1,-1
 436 810 l 1,2,-1
 436 690 l 1,3,-1
 316 690 l 1,0,-1
564 690 m 1,4,-1
 564 810 l 1,5,-1
 684 810 l 1,6,-1
 684 690 l 1,7,-1
 564 690 l 1,4,-1
EndSplineSet
Substitution: 1 0 'vert' dieresis.vert
EndChar
StartChar: degree
Encoding: 176 176 113
Width: 1024
Flags: W
Fore
44 698 m 0,0,1
 44 748 44 748 79.5 784 c 128,-1,2
 115 820 115 820 166 820 c 0,3,4
 216 820 216 820 252 784 c 128,-1,5
 288 748 288 748 288 698 c 0,6,7
 288 647 288 647 252 611.5 c 128,-1,8
 216 576 216 576 166 576 c 0,9,10
 115 576 115 576 79.5 611.5 c 128,-1,11
 44 647 44 647 44 698 c 0,0,1
85 697 m 0,12,13
 85 662 85 662 108 639 c 128,-1,14
 131 616 131 616 166 616 c 0,15,16
 200 616 200 616 223.5 639 c 128,-1,17
 247 662 247 662 247 697 c 0,18,19
 247 731 247 731 223.5 754.5 c 128,-1,20
 200 778 200 778 166 778 c 0,21,22
 131 778 131 778 108 754.5 c 128,-1,23
 85 731 85 731 85 697 c 0,12,13
EndSplineSet
Substitution: 1 0 'vert' degree.vert
EndChar
StartChar: plusminus
Encoding: 177 177 114
Width: 1024
Flags: W
Fore
471 785 m 1,0,-1
 545 785 l 1,1,-1
 545 498 l 1,2,-1
 865 498 l 1,3,-1
 865 425 l 1,4,-1
 545 425 l 1,5,-1
 545 137 l 1,6,-1
 471 137 l 1,7,-1
 471 425 l 1,8,-1
 151 425 l 1,9,-1
 151 498 l 1,10,-1
 471 498 l 1,11,-1
 471 785 l 1,0,-1
151 77 m 1,12,-1
 865 77 l 1,13,-1
 865 4 l 1,14,-1
 151 4 l 1,15,-1
 151 77 l 1,12,-1
EndSplineSet
Substitution: 1 0 'vert' plusminus.vert
EndChar
StartChar: acute
Encoding: 180 180 117
Width: 1024
Flags: W
Fore
668 816 m 1,0,-1
 494 640 l 1,1,-1
 414 640 l 1,2,-1
 532 816 l 1,3,-1
 668 816 l 1,0,-1
EndSplineSet
Substitution: 1 0 'vert' acute.vert
EndChar
StartChar: paragraph
Encoding: 182 182 119
Width: 1024
Flags: W
Fore
198 584 m 0,0,1
 198 660 198 660 241.5 718.5 c 128,-1,2
 285 777 285 777 370 777 c 2,3,-1
 705 777 l 1,4,-1
 705 -16 l 1,5,-1
 636 -16 l 1,6,-1
 636 726 l 1,7,-1
 445 726 l 1,8,-1
 445 -16 l 1,9,-1
 377 -16 l 1,10,-1
 377 391 l 1,11,-1
 370 391 l 2,12,13
 285 391 285 391 241.5 449 c 128,-1,14
 198 507 198 507 198 584 c 0,0,1
EndSplineSet
Substitution: 1 0 'vert' paragraph.vert
EndChar
StartChar: multiply
Encoding: 215 215 152
Width: 1024
Flags: W
Fore
172 71 m 1,0,-1
 462 361 l 1,1,-1
 172 651 l 1,2,-1
 224 703 l 1,3,-1
 514 413 l 1,4,-1
 804 703 l 1,5,-1
 856 651 l 1,6,-1
 566 361 l 1,7,-1
 856 71 l 1,8,-1
 804 19 l 1,9,-1
 514 309 l 1,10,-1
 224 19 l 1,11,-1
 172 71 l 1,0,-1
EndSplineSet
Substitution: 1 0 'vert' multiply.vert
EndChar
StartChar: divide
Encoding: 247 247 184
Width: 1024
Flags: W
Fore
151 432 m 1,0,-1
 865 432 l 1,1,-1
 865 359 l 1,2,-1
 151 359 l 1,3,-1
 151 432 l 1,0,-1
452 570 m 1,4,-1
 452 682 l 1,5,-1
 564 682 l 1,6,-1
 564 570 l 1,7,-1
 452 570 l 1,4,-1
452 112 m 1,8,-1
 452 224 l 1,9,-1
 564 224 l 1,10,-1
 564 112 l 1,11,-1
 452 112 l 1,8,-1
EndSplineSet
Substitution: 1 0 'vert' divide.vert
EndChar
StartChar: Alpha
Encoding: 913 913 458
Width: 1024
Flags: W
Fore
838 -12 m 1,0,-1
 734 -12 l 1,1,-1
 653 210 l 1,2,-1
 349 210 l 1,3,-1
 268 -12 l 1,4,-1
 164 -12 l 1,5,-1
 443 750 l 1,6,-1
 559 750 l 1,7,-1
 838 -12 l 1,0,-1
382 300 m 1,8,-1
 620 300 l 1,9,-1
 505 614 l 1,10,-1
 497 614 l 1,11,-1
 382 300 l 1,8,-1
EndSplineSet
Substitution: 1 0 'vert' Alpha.vert
EndChar
StartChar: Beta
Encoding: 914 914 459
Width: 1024
Flags: W
Fore
264 -12 m 1,0,-1
 264 750 l 1,1,-1
 496 750 l 2,2,3
 648 750 648 750 720 698 c 0,4,5
 791 646 791 646 791 547 c 2,6,-1
 791 546 l 2,7,8
 791 462 791 462 700 392 c 1,9,10
 816 322 816 322 817 217 c 1,11,-1
 817 216 l 2,12,13
 817 116 817 116 746 52 c 0,14,15
 674 -12 674 -12 488 -12 c 2,16,-1
 264 -12 l 1,0,-1
713 216 m 2,17,18
 713 281 713 281 660 312 c 0,19,20
 606 342 606 342 476 342 c 2,21,-1
 362 342 l 1,22,-1
 362 78 l 1,23,-1
 488 78 l 2,24,25
 627 78 627 78 670 120 c 0,26,27
 713 161 713 161 713 215 c 2,28,-1
 713 216 l 2,17,18
687 546 m 2,29,30
 687 601 687 601 648 630 c 0,31,32
 609 660 609 660 496 660 c 2,33,-1
 362 660 l 1,34,-1
 362 432 l 1,35,-1
 476 432 l 2,36,37
 606 432 606 432 646 462 c 0,38,39
 687 491 687 491 687 545 c 2,40,-1
 687 546 l 2,29,30
EndSplineSet
Substitution: 1 0 'vert' Beta.vert
EndChar
StartChar: Gamma
Encoding: 915 915 460
Width: 1024
Flags: W
Fore
832 751 m 1,0,-1
 265 750 l 1,1,-1
 265 -12 l 1,2,-1
 365 -12 l 1,3,-1
 365 660 l 1,4,-1
 831 660 l 1,5,-1
 832 751 l 1,0,-1
EndSplineSet
Substitution: 1 0 'vert' Gamma.vert
EndChar
StartChar: uni0394
Encoding: 916 916 461
Width: 1024
Flags: W
Fore
859 -12 m 1,0,-1
 162 -12 l 1,1,-1
 162 78 l 1,2,-1
 449 750 l 1,3,-1
 557 750 l 1,4,-1
 859 77 l 1,5,-1
 859 -12 l 1,0,-1
266 77 m 1,6,-1
 743 77 l 1,7,-1
 507 643 l 1,8,-1
 499 643 l 1,9,-1
 266 77 l 1,6,-1
EndSplineSet
Substitution: 1 0 'vert' uni0394.vert
EndChar
StartChar: Epsilon
Encoding: 917 917 462
Width: 1024
Flags: W
Fore
262 -12 m 1,0,-1
 262 750 l 1,1,-1
 804 750 l 1,2,-1
 804 660 l 1,3,-1
 360 660 l 1,4,-1
 360 432 l 1,5,-1
 744 432 l 1,6,-1
 744 342 l 1,7,-1
 360 342 l 1,8,-1
 360 78 l 1,9,-1
 804 78 l 1,10,-1
 804 -12 l 1,11,-1
 262 -12 l 1,0,-1
EndSplineSet
Substitution: 1 0 'vert' Epsilon.vert
EndChar
StartChar: Zeta
Encoding: 918 918 463
Width: 1024
Flags: W
Fore
226 750 m 1,0,-1
 760 750 l 1,1,-1
 760 660 l 1,2,-1
 296 78 l 1,3,-1
 814 78 l 1,4,-1
 814 -12 l 1,5,-1
 172 -12 l 1,6,-1
 172 78 l 1,7,-1
 636 660 l 1,8,-1
 226 660 l 1,9,-1
 226 750 l 1,0,-1
EndSplineSet
Substitution: 1 0 'vert' Zeta.vert
EndChar
StartChar: Eta
Encoding: 919 919 464
Width: 1024
Flags: W
Fore
328 -12 m 1,0,-1
 230 -12 l 1,1,-1
 230 750 l 1,2,-1
 328 750 l 1,3,-1
 328 432 l 1,4,-1
 716 432 l 1,5,-1
 716 750 l 1,6,-1
 814 750 l 1,7,-1
 814 -12 l 1,8,-1
 716 -12 l 1,9,-1
 716 342 l 1,10,-1
 328 342 l 1,11,-1
 328 -12 l 1,0,-1
EndSplineSet
Substitution: 1 0 'vert' Eta.vert
EndChar
StartChar: Theta
Encoding: 920 920 465
Width: 1024
Flags: W
Fore
128 378 m 0,0,1
 128 528 128 528 239.5 642 c 128,-1,2
 351 756 351 756 515 756 c 128,-1,3
 679 756 679 756 783 642 c 128,-1,4
 887 528 887 528 887 378 c 0,5,6
 887 218 887 218 783 104 c 128,-1,7
 679 -10 679 -10 515 -10 c 128,-1,8
 351 -10 351 -10 239.5 104 c 128,-1,9
 128 218 128 218 128 378 c 0,0,1
232 377 m 0,10,11
 232 230 232 230 319 150.5 c 128,-1,12
 406 71 406 71 515 71 c 128,-1,13
 624 71 624 71 703.5 150.5 c 128,-1,14
 783 230 783 230 783 377 c 0,15,16
 783 521 783 521 703.5 598 c 128,-1,17
 624 675 624 675 515 675 c 0,18,19
 406 675 406 675 319 598 c 128,-1,20
 232 521 232 521 232 377 c 0,10,11
337 429 m 1,21,-1
 685 429 l 1,22,-1
 685 336 l 1,23,-1
 337 336 l 1,24,-1
 337 429 l 1,21,-1
EndSplineSet
Substitution: 1 0 'vert' Theta.vert
EndChar
StartChar: Iota
Encoding: 921 921 466
Width: 1024
Flags: W
Fore
554 -12 m 1,0,-1
 456 -12 l 1,1,-1
 456 750 l 1,2,-1
 554 750 l 1,3,-1
 554 -12 l 1,0,-1
EndSplineSet
Substitution: 1 0 'vert' Iota.vert
EndChar
StartChar: Kappa
Encoding: 922 922 467
Width: 1024
Flags: W
Fore
330 -12 m 1,0,-1
 232 -12 l 1,1,-1
 232 750 l 1,2,-1
 330 750 l 1,3,-1
 330 387 l 1,4,-1
 676 750 l 1,5,-1
 806 750 l 1,6,-1
 561 497 l 1,7,-1
 880 -12 l 1,8,-1
 754 -12 l 1,9,-1
 489 423 l 1,10,-1
 330 259 l 1,11,-1
 330 -12 l 1,0,-1
EndSplineSet
Substitution: 1 0 'vert' Kappa.vert
EndChar
StartChar: Lambda
Encoding: 923 923 468
Width: 1024
Flags: W
Fore
838 -12 m 1,0,-1
 734 -12 l 1,1,-1
 508 615 l 1,2,-1
 498 615 l 1,3,-1
 268 -12 l 1,4,-1
 164 -12 l 1,5,-1
 443 750 l 1,6,-1
 559 750 l 1,7,-1
 838 -12 l 1,0,-1
EndSplineSet
Substitution: 1 0 'vert' Lambda.vert
EndChar
StartChar: Mu
Encoding: 924 924 469
Width: 1024
Flags: W
Fore
204 -12 m 1,0,-1
 106 -12 l 1,1,-1
 106 750 l 1,2,-1
 229 750 l 1,3,-1
 508 174 l 1,4,-1
 518 174 l 1,5,-1
 769 750 l 1,6,-1
 892 750 l 1,7,-1
 892 -12 l 1,8,-1
 794 -12 l 1,9,-1
 794 552 l 1,10,-1
 788 552 l 1,11,-1
 545 -9 l 1,12,-1
 481 -9 l 1,13,-1
 210 552 l 1,14,-1
 204 552 l 1,15,-1
 204 -12 l 1,0,-1
EndSplineSet
Substitution: 1 0 'vert' Mu.vert
EndChar
StartChar: Nu
Encoding: 925 925 470
Width: 1024
Flags: W
Fore
282 -12 m 1,0,-1
 184 -12 l 1,1,-1
 184 750 l 1,2,-1
 307 750 l 1,3,-1
 701 147 l 1,4,-1
 702 140 l 1,5,-1
 702 750 l 1,6,-1
 800 750 l 1,7,-1
 800 -12 l 1,8,-1
 677 -12 l 1,9,-1
 283 596 l 1,10,-1
 282 600 l 1,11,-1
 282 -12 l 1,0,-1
EndSplineSet
Substitution: 1 0 'vert' Nu.vert
EndChar
StartChar: Xi
Encoding: 926 926 471
Width: 1024
Flags: W
Fore
192 -13 m 1,0,-1
 192 90 l 1,1,-1
 820 90 l 1,2,-1
 820 -13 l 1,3,-1
 192 -13 l 1,0,-1
192 656 m 1,4,-1
 192 750 l 1,5,-1
 820 750 l 1,6,-1
 820 656 l 1,7,-1
 192 656 l 1,4,-1
274 426 m 1,8,-1
 746 426 l 1,9,-1
 746 326 l 1,10,-1
 274 326 l 1,11,-1
 274 426 l 1,8,-1
EndSplineSet
Substitution: 1 0 'vert' Xi.vert
EndChar
StartChar: Omicron
Encoding: 927 927 472
Width: 1024
Flags: W
Fore
128 380 m 0,0,1
 128 528 128 528 239.5 642 c 128,-1,2
 351 756 351 756 515 756 c 128,-1,3
 679 756 679 756 783 642 c 128,-1,4
 887 528 887 528 887 380 c 0,5,6
 887 218 887 218 783 104 c 128,-1,7
 679 -10 679 -10 515 -10 c 128,-1,8
 351 -10 351 -10 239.5 104 c 128,-1,9
 128 218 128 218 128 380 c 0,0,1
232 380 m 0,10,11
 232 230 232 230 319 150.5 c 128,-1,12
 406 71 406 71 515 71 c 128,-1,13
 624 71 624 71 703.5 150.5 c 128,-1,14
 783 230 783 230 783 380 c 0,15,16
 783 521 783 521 703.5 598 c 128,-1,17
 624 675 624 675 515 675 c 0,18,19
 406 675 406 675 319 598 c 128,-1,20
 232 521 232 521 232 380 c 0,10,11
EndSplineSet
Substitution: 1 0 'vert' Omicron.vert
EndChar
StartChar: Pi
Encoding: 928 928 473
Width: 1024
Flags: W
Fore
328 -12 m 1,0,-1
 230 -12 l 1,1,-1
 230 750 l 1,2,-1
 814 750 l 1,3,-1
 814 -12 l 1,4,-1
 716 -12 l 1,5,-1
 716 661 l 1,6,-1
 328 661 l 1,7,-1
 328 -12 l 1,0,-1
EndSplineSet
Substitution: 1 0 'vert' Pi.vert
EndChar
StartChar: Rho
Encoding: 929 929 474
Width: 1024
Flags: W
Fore
394 -12 m 1,0,-1
 296 -12 l 1,1,-1
 296 750 l 1,2,-1
 560 750 l 2,3,4
 722 750 722 750 785.5 696 c 128,-1,5
 849 642 849 642 849 547 c 0,6,7
 849 450 849 450 785.5 396 c 128,-1,8
 722 342 722 342 560 342 c 2,9,-1
 394 342 l 1,10,-1
 394 -12 l 1,0,-1
745 547 m 0,11,12
 745 605 745 605 710 632.5 c 128,-1,13
 675 660 675 660 560 660 c 2,14,-1
 394 660 l 1,15,-1
 394 432 l 1,16,-1
 560 432 l 2,17,18
 675 432 675 432 710 459.5 c 128,-1,19
 745 487 745 487 745 547 c 0,11,12
EndSplineSet
Substitution: 1 0 'vert' Rho.vert
EndChar
StartChar: Sigma
Encoding: 931 931 475
Width: 1024
Flags: W
Fore
199 751 m 1,0,-1
 791 751 l 1,1,-1
 791 660 l 1,2,-1
 326 660 l 1,3,-1
 326 659 l 1,4,-1
 574 395 l 1,5,-1
 574 366 l 1,6,-1
 325 86 l 1,7,-1
 793 86 l 1,8,-1
 793 -8 l 1,9,-1
 198 -8 l 1,10,-1
 196 81 l 1,11,-1
 453 382 l 1,12,-1
 197 666 l 1,13,-1
 199 751 l 1,0,-1
EndSplineSet
Substitution: 1 0 'vert' Sigma.vert
EndChar
StartChar: Tau
Encoding: 932 932 476
Width: 1024
Flags: W
Fore
554 -12 m 1,0,-1
 456 -12 l 1,1,-1
 456 660 l 1,2,-1
 150 660 l 1,3,-1
 150 750 l 1,4,-1
 862 750 l 1,5,-1
 862 660 l 1,6,-1
 554 660 l 1,7,-1
 554 -12 l 1,0,-1
EndSplineSet
Substitution: 1 0 'vert' Tau.vert
EndChar
StartChar: Upsilon
Encoding: 933 933 477
Width: 1024
Flags: W
Fore
307 674 m 0,0,1
 240 674 240 674 217.5 644.5 c 128,-1,2
 195 615 195 615 195 545 c 1,3,-1
 110 545 l 1,4,-1
 110 587 l 1,5,6
 114 653 114 653 166.5 704 c 128,-1,7
 219 755 219 755 298 755 c 0,8,9
 392 755 392 755 437 720.5 c 128,-1,10
 482 686 482 686 513 625 c 1,11,12
 544 686 544 686 589 720.5 c 128,-1,13
 634 755 634 755 728 755 c 0,14,15
 807 755 807 755 859.5 704 c 128,-1,16
 912 653 912 653 916 587 c 1,17,-1
 916 545 l 1,18,-1
 831 545 l 1,19,20
 831 615 831 615 808.5 644.5 c 128,-1,21
 786 674 786 674 719 674 c 0,22,23
 633 674 633 674 596 595.5 c 128,-1,24
 559 517 559 517 559 384 c 2,25,-1
 559 -12 l 1,26,-1
 467 -12 l 1,27,-1
 467 384 l 2,28,29
 467 517 467 517 430 595.5 c 128,-1,30
 393 674 393 674 307 674 c 0,0,1
EndSplineSet
Substitution: 1 0 'vert' Upsilon.vert
EndChar
StartChar: Phi
Encoding: 934 934 478
Width: 1024
Flags: W
Fore
348 219 m 2,0,1
 414 174 414 174 456 167 c 1,2,-1
 456 570 l 1,3,4
 411 562 411 562 348 520 c 1,5,6
 277 475 277 475 271 384 c 2,7,-1
 270 368 l 1,8,9
 270 275 270 275 345 221 c 2,10,-1
 348 219 l 2,0,1
745 184 m 0,11,12
 674 130 674 130 607 116 c 1,13,-1
 552 109 l 1,14,-1
 552 -14 l 1,15,-1
 455 -14 l 1,16,-1
 455 111 l 1,17,18
 372 118 372 118 296 169 c 0,19,20
 196 236 196 236 177 331 c 0,21,22
 173 349 173 349 173 368 c 2,23,-1
 173 369 l 2,24,25
 173 474 173 474 276 554 c 0,26,27
 360 618 360 618 456 628 c 1,28,-1
 456 756 l 1,29,-1
 554 756 l 1,30,-1
 554 628 l 1,31,32
 671 616 671 616 747 554 c 0,33,34
 846 473 846 473 843 369 c 0,35,36
 841 286 841 286 772 210 c 0,37,38
 758 194 758 194 745 184 c 0,11,12
679 518 m 0,39,40
 621 560 621 560 554 570 c 1,41,-1
 554 166 l 1,42,43
 608 174 608 174 663 212 c 0,44,45
 734 260 734 260 744 346 c 1,46,-1
 745 369 l 1,47,48
 745 469 745 469 679 518 c 0,39,40
EndSplineSet
Substitution: 1 0 'vert' Phi.vert
EndChar
StartChar: Chi
Encoding: 935 935 479
Width: 1024
Flags: W
Fore
892 -12 m 1,0,-1
 770 -12 l 1,1,-1
 514 324 l 1,2,-1
 280 -12 l 1,3,-1
 158 -12 l 1,4,-1
 451 407 l 1,5,-1
 190 750 l 1,6,-1
 312 750 l 1,7,-1
 536 456 l 1,8,-1
 744 750 l 1,9,-1
 866 750 l 1,10,-1
 599 372 l 1,11,-1
 892 -12 l 1,0,-1
EndSplineSet
Substitution: 1 0 'vert' Chi.vert
EndChar
StartChar: Psi
Encoding: 936 936 480
Width: 1024
Flags: W
Fore
554 756 m 1,0,-1
 554 192 l 1,1,2
 602 200 602 200 662 244 c 0,3,4
 724 290 724 290 740 393 c 1,5,-1
 741 668 l 1,6,-1
 838 668 l 1,7,-1
 837 394 l 1,8,9
 837 290 837 290 735 209 c 2,10,-1
 734 209 l 2,11,12
 732 208 732 208 731 206 c 1,13,-1
 714 194 l 2,14,15
 638 143 638 143 555 136 c 1,16,-1
 555 -14 l 1,17,-1
 455 -14 l 1,18,-1
 455 136 l 1,19,20
 372 143 372 143 296 194 c 0,21,22
 196 261 196 261 177 356 c 0,23,24
 173 374 173 374 173 393 c 2,25,-1
 173 394 l 1,26,-1
 173 668 l 1,27,-1
 270 668 l 1,28,-1
 270 393 l 1,29,30
 286 287 286 287 347 245 c 2,31,-1
 348 244 l 2,32,33
 414 199 414 199 456 192 c 1,34,-1
 456 756 l 1,35,-1
 554 756 l 1,0,-1
EndSplineSet
Substitution: 1 0 'vert' Psi.vert
EndChar
StartChar: uni03A9
Encoding: 937 937 481
Width: 1024
Flags: W
Fore
515 756 m 0,0,1
 355 756 355 756 250 643 c 0,2,3
 145 529 145 529 144 377 c 1,4,-1
 144 376 l 2,5,6
 144 202 144 202 278 78 c 1,7,-1
 79 78 l 1,8,-1
 79 -10 l 1,9,-1
 439 -10 l 1,10,-1
 439 78 l 1,11,12
 383 94 383 94 329 146 c 0,13,14
 247 225 247 225 246 374 c 1,15,-1
 246 375 l 2,16,17
 246 521 246 521 329 598 c 1,18,19
 399 657 399 657 456 668 c 0,20,21
 480 673 480 673 515 673 c 0,22,23
 621 673 621 673 701 598 c 0,24,25
 783 521 783 521 784 376 c 1,26,-1
 784 375 l 2,27,28
 784 225 784 225 701 146 c 0,29,30
 656 102 656 102 620 88 c 0,31,32
 609 83 609 83 597 80 c 0,33,34
 595 79 595 79 593 79 c 0,35,36
 592 78 592 78 591 78 c 1,37,-1
 591 -10 l 1,38,-1
 958 -10 l 1,39,-1
 958 80 l 1,40,-1
 756 80 l 1,41,42
 885 199 885 199 886 375 c 1,43,-1
 886 376 l 2,44,45
 886 529 886 529 780 643 c 0,46,47
 675 756 675 756 515 756 c 0,0,1
EndSplineSet
Substitution: 1 0 'vert' uni03A9.vert
EndChar
StartChar: uni2010
Encoding: 8208 8208 769
Width: 1024
Flags: W
Fore
310 408 m 1,0,-1
 706 408 l 1,1,-1
 706 319 l 1,2,-1
 310 319 l 1,3,-1
 310 408 l 1,0,-1
EndSplineSet
Substitution: 1 0 'vert' uni2010.vert
EndChar
StartChar: afii00208
Encoding: 8213 8213 774
Width: 1024
Flags: W
Fore
78 408 m 1,0,-1
 938 408 l 1,1,-1
 938 319 l 1,2,-1
 78 319 l 1,3,-1
 78 408 l 1,0,-1
EndSplineSet
Substitution: 1 0 'vert' afii00208.vert
EndChar
StartChar: quoteleft
Encoding: 8216 8216 776
Width: 1024
Flags: W
Fore
772 694 m 1,0,-1
 872 836 l 1,1,-1
 904 836 l 1,2,-1
 854 720 l 1,3,-1
 898 720 l 1,4,-1
 898 596 l 1,5,-1
 772 596 l 1,6,-1
 772 694 l 1,0,-1
EndSplineSet
Substitution: 1 0 'vert' quoteleft.vert
EndChar
StartChar: quoteright
Encoding: 8217 8217 777
Width: 1024
Flags: W
Fore
228 738 m 1,0,-1
 128 596 l 1,1,-1
 96 596 l 1,2,-1
 146 712 l 1,3,-1
 102 712 l 1,4,-1
 102 836 l 1,5,-1
 228 836 l 1,6,-1
 228 738 l 1,0,-1
EndSplineSet
Substitution: 1 0 'vert' quoteright.vert
EndChar
StartChar: quotedblleft
Encoding: 8220 8220 780
Width: 1024
Flags: W
Fore
788 694 m 1,0,-1
 888 836 l 1,1,-1
 920 836 l 1,2,-1
 870 720 l 1,3,-1
 914 720 l 1,4,-1
 914 596 l 1,5,-1
 788 596 l 1,6,-1
 788 694 l 1,0,-1
576 694 m 1,7,-1
 676 836 l 1,8,-1
 708 836 l 1,9,-1
 658 720 l 1,10,-1
 702 720 l 1,11,-1
 702 596 l 1,12,-1
 576 596 l 1,13,-1
 576 694 l 1,7,-1
EndSplineSet
Substitution: 1 0 'vert' quotedblleft.vert
EndChar
StartChar: quotedblright
Encoding: 8221 8221 781
Width: 1024
Flags: W
Fore
222 738 m 1,0,-1
 122 596 l 1,1,-1
 90 596 l 1,2,-1
 140 712 l 1,3,-1
 96 712 l 1,4,-1
 96 836 l 1,5,-1
 222 836 l 1,6,-1
 222 738 l 1,0,-1
434 738 m 1,7,-1
 334 596 l 1,8,-1
 302 596 l 1,9,-1
 352 712 l 1,10,-1
 308 712 l 1,11,-1
 308 836 l 1,12,-1
 434 836 l 1,13,-1
 434 738 l 1,7,-1
EndSplineSet
Substitution: 1 0 'vert' quotedblright.vert
EndChar
StartChar: dagger
Encoding: 8224 8224 784
Width: 1024
Flags: W
Fore
526 236 m 2,0,-1
 526 -76 l 1,1,-1
 450 -76 l 1,2,-1
 450 236 l 2,3,4
 450 366 450 366 428 420 c 1,5,-1
 449 506 l 1,6,7
 407 506 407 506 335 498 c 128,-1,8
 263 490 263 490 244 490 c 1,9,-1
 244 598 l 1,10,11
 263 598 263 598 335 590 c 128,-1,12
 407 582 407 582 450 582 c 1,13,14
 450 621 450 621 441 695.5 c 128,-1,15
 432 770 432 770 432 788 c 1,16,-1
 544 788 l 1,17,18
 544 770 544 770 535.5 697 c 128,-1,19
 527 624 527 624 526 582 c 1,20,21
 569 582 569 582 641 590 c 128,-1,22
 713 598 713 598 732 598 c 1,23,-1
 732 490 l 1,24,25
 713 490 713 490 641.5 498 c 128,-1,26
 570 506 570 506 527 506 c 1,27,-1
 548 420 l 1,28,29
 526 366 526 366 526 236 c 2,0,-1
EndSplineSet
Substitution: 1 0 'vert' dagger.vert
EndChar
StartChar: daggerdbl
Encoding: 8225 8225 785
Width: 1024
Flags: W
Fore
732 660 m 1,0,-1
 732 560 l 1,1,2
 713 560 713 560 641 568 c 128,-1,3
 569 576 569 576 526 576 c 1,4,-1
 526 544 l 1,5,-1
 548 508 l 1,6,7
 522 462 522 462 522 364 c 0,8,9
 522 266 522 266 548 220 c 1,10,-1
 526 184 l 1,11,-1
 526 152 l 1,12,13
 569 152 569 152 641 160 c 128,-1,14
 713 168 713 168 732 168 c 1,15,-1
 732 68 l 1,16,17
 713 68 713 68 642 76 c 128,-1,18
 571 84 571 84 528 84 c 1,19,20
 531 55 531 55 537.5 -1.5 c 128,-1,21
 544 -58 544 -58 544 -76 c 1,22,-1
 432 -76 l 1,23,24
 432 -58 432 -58 439 -1.5 c 128,-1,25
 446 55 446 55 448 84 c 1,26,27
 405 84 405 84 334 76 c 128,-1,28
 263 68 263 68 244 68 c 1,29,-1
 244 168 l 1,30,31
 263 168 263 168 335 160 c 128,-1,32
 407 152 407 152 450 152 c 1,33,-1
 450 188 l 1,34,-1
 428 220 l 1,35,36
 454 266 454 266 454 364 c 0,37,38
 454 462 454 462 428 508 c 1,39,-1
 450 540 l 1,40,-1
 450 576 l 1,41,42
 407 576 407 576 335 568 c 128,-1,43
 263 560 263 560 244 560 c 1,44,-1
 244 660 l 1,45,46
 263 660 263 660 334 652 c 128,-1,47
 405 644 405 644 448 644 c 1,48,49
 446 673 446 673 439 729.5 c 128,-1,50
 432 786 432 786 432 804 c 1,51,-1
 544 804 l 1,52,53
 544 786 544 786 537.5 729.5 c 128,-1,54
 531 673 531 673 528 644 c 1,55,56
 571 644 571 644 642 652 c 128,-1,57
 713 660 713 660 732 660 c 1,0,-1
EndSplineSet
Substitution: 1 0 'vert' daggerdbl.vert
EndChar
StartChar: twodotenleader
Encoding: 8229 8229 789
Width: 1024
Flags: W
Fore
198 310 m 1,0,-1
 198 414 l 1,1,-1
 302 414 l 1,2,-1
 302 310 l 1,3,-1
 198 310 l 1,0,-1
714 310 m 1,4,-1
 714 414 l 1,5,-1
 818 414 l 1,6,-1
 818 310 l 1,7,-1
 714 310 l 1,4,-1
EndSplineSet
Substitution: 1 0 'vert' twodotenleader.vert
EndChar
StartChar: ellipsis
Encoding: 8230 8230 790
Width: 1024
Flags: W
Fore
130 310 m 1,0,-1
 130 414 l 1,1,-1
 234 414 l 1,2,-1
 234 310 l 1,3,-1
 130 310 l 1,0,-1
454 310 m 1,4,-1
 454 414 l 1,5,-1
 558 414 l 1,6,-1
 558 310 l 1,7,-1
 454 310 l 1,4,-1
782 310 m 1,8,-1
 782 414 l 1,9,-1
 886 414 l 1,10,-1
 886 310 l 1,11,-1
 782 310 l 1,8,-1
EndSplineSet
Substitution: 1 0 'vert' ellipsis.vert
EndChar
StartChar: perthousand
Encoding: 8240 8240 799
Width: 1024
Flags: W
Fore
87 -81 m 1,0,-1
 557 842 l 1,1,-1
 613 822 l 1,2,-1
 143 -101 l 1,3,-1
 87 -81 l 1,0,-1
26 586 m 0,4,5
 26 672 26 672 69.5 727 c 128,-1,6
 113 782 113 782 181 782 c 0,7,8
 248 782 248 782 288 727 c 128,-1,9
 328 672 328 672 328 586 c 0,10,11
 328 499 328 499 288 444.5 c 128,-1,12
 248 390 248 390 181 390 c 0,13,14
 113 390 113 390 69.5 444.5 c 128,-1,15
 26 499 26 499 26 586 c 0,4,5
111 586 m 0,16,17
 111 527 111 527 133.5 496 c 128,-1,18
 156 465 156 465 181 465 c 0,19,20
 205 465 205 465 224 496 c 128,-1,21
 243 527 243 527 243 586 c 0,22,23
 243 645 243 645 224 676.5 c 128,-1,24
 205 708 205 708 181 708 c 0,25,26
 156 708 156 708 133.5 676.5 c 128,-1,27
 111 645 111 645 111 586 c 0,16,17
370 154 m 0,28,29
 370 240 370 240 413.5 295 c 128,-1,30
 457 350 457 350 525 350 c 0,31,32
 592 350 592 350 632 295 c 128,-1,33
 672 240 672 240 672 154 c 0,34,35
 672 67 672 67 632 12.5 c 128,-1,36
 592 -42 592 -42 525 -42 c 0,37,38
 457 -42 457 -42 413.5 12.5 c 128,-1,39
 370 67 370 67 370 154 c 0,28,29
455 154 m 0,40,41
 455 95 455 95 477.5 64 c 128,-1,42
 500 33 500 33 525 33 c 0,43,44
 549 33 549 33 568 64 c 128,-1,45
 587 95 587 95 587 154 c 0,46,47
 587 213 587 213 568 244.5 c 128,-1,48
 549 276 549 276 525 276 c 0,49,50
 500 276 500 276 477.5 244.5 c 128,-1,51
 455 213 455 213 455 154 c 0,40,41
694 154 m 0,52,53
 694 240 694 240 737.5 295 c 128,-1,54
 781 350 781 350 849 350 c 0,55,56
 916 350 916 350 956 295 c 128,-1,57
 996 240 996 240 996 154 c 0,58,59
 996 67 996 67 956 12.5 c 128,-1,60
 916 -42 916 -42 849 -42 c 0,61,62
 781 -42 781 -42 737.5 12.5 c 128,-1,63
 694 67 694 67 694 154 c 0,52,53
779 154 m 0,64,65
 779 95 779 95 801.5 64 c 128,-1,66
 824 33 824 33 849 33 c 0,67,68
 873 33 873 33 892 64 c 128,-1,69
 911 95 911 95 911 154 c 0,70,71
 911 213 911 213 892 244.5 c 128,-1,72
 873 276 873 276 849 276 c 0,73,74
 824 276 824 276 801.5 244.5 c 128,-1,75
 779 213 779 213 779 154 c 0,64,65
EndSplineSet
Substitution: 1 0 'vert' perthousand.vert
EndChar
StartChar: minute
Encoding: 8242 8242 801
Width: 1024
Flags: W
Fore
90 602 m 1,0,-1
 142 820 l 1,1,-1
 264 820 l 1,2,-1
 138 602 l 1,3,-1
 90 602 l 1,0,-1
EndSplineSet
Substitution: 1 0 'vert' minute.vert
EndChar
StartChar: second
Encoding: 8243 8243 802
Width: 1024
Flags: W
Fore
90 602 m 1,0,-1
 142 820 l 1,1,-1
 264 820 l 1,2,-1
 138 602 l 1,3,-1
 90 602 l 1,0,-1
254 602 m 1,4,-1
 330 820 l 1,5,-1
 460 820 l 1,6,-1
 302 602 l 1,7,-1
 254 602 l 1,4,-1
EndSplineSet
Substitution: 1 0 'vert' second.vert
EndChar
StartChar: uni203B
Encoding: 8251 8251 810
Width: 1024
Flags: W
Fore
73 9 m 1,0,-1
 444 380 l 1,1,-1
 110 714 l 1,2,-1
 154 762 l 1,3,-1
 490 425 l 1,4,-1
 826 762 l 1,5,-1
 870 714 l 1,6,-1
 536 380 l 1,7,-1
 907 9 l 1,8,-1
 861 -36 l 1,9,-1
 490 334 l 1,10,-1
 119 -36 l 1,11,-1
 73 9 l 1,0,-1
426 636 m 1,12,-1
 426 772 l 1,13,-1
 562 772 l 1,14,-1
 562 636 l 1,15,-1
 426 636 l 1,12,-1
426 -10 m 1,16,-1
 426 126 l 1,17,-1
 562 126 l 1,18,-1
 562 -10 l 1,19,-1
 426 -10 l 1,16,-1
238 312 m 1,20,-1
 102 312 l 1,21,-1
 102 449 l 1,22,-1
 238 449 l 1,23,-1
 238 312 l 1,20,-1
885 312 m 1,24,-1
 749 312 l 1,25,-1
 749 449 l 1,26,-1
 885 449 l 1,27,-1
 885 312 l 1,24,-1
EndSplineSet
Substitution: 1 0 'vert' uni203B.vert
EndChar
StartChar: uni2103
Encoding: 8451 8451 864
Width: 1024
Flags: W
Fore
228 378 m 0,0,1
 228 528 228 528 331.5 642 c 128,-1,2
 435 756 435 756 581 756 c 0,3,4
 705 756 705 756 788 683 c 128,-1,5
 871 610 871 610 891 496 c 1,6,-1
 783 496 l 1,7,8
 767 577 767 577 715.5 626 c 128,-1,9
 664 675 664 675 581 675 c 0,10,11
 490 675 490 675 411 598 c 128,-1,12
 332 521 332 521 332 377 c 0,13,14
 332 230 332 230 411 150.5 c 128,-1,15
 490 71 490 71 581 71 c 0,16,17
 664 71 664 71 723.5 125.5 c 128,-1,18
 783 180 783 180 799 273 c 1,19,-1
 907 273 l 1,20,21
 891 160 891 160 814 75 c 128,-1,22
 737 -10 737 -10 581 -10 c 0,23,24
 435 -10 435 -10 331.5 104 c 128,-1,25
 228 218 228 218 228 378 c 0,0,1
47 687 m 0,26,27
 47 731 47 731 77 762 c 128,-1,28
 107 793 107 793 151 793 c 0,29,30
 195 793 195 793 226 762 c 128,-1,31
 257 731 257 731 257 687 c 0,32,33
 257 643 257 643 226 613 c 128,-1,34
 195 583 195 583 151 583 c 0,35,36
 107 583 107 583 77 613 c 128,-1,37
 47 643 47 643 47 687 c 0,26,27
85 687 m 0,38,39
 85 658 85 658 103.5 639.5 c 128,-1,40
 122 621 122 621 151 621 c 0,41,42
 179 621 179 621 198 639.5 c 128,-1,43
 217 658 217 658 217 687 c 0,44,45
 217 715 217 715 198 734 c 128,-1,46
 179 753 179 753 151 753 c 0,47,48
 122 753 122 753 103.5 734 c 128,-1,49
 85 715 85 715 85 687 c 0,38,39
EndSplineSet
Substitution: 1 0 'vert' uni2103.vert
EndChar
StartChar: uni2121
Encoding: 8481 8481 894
Width: 1024
Flags: W
Fore
648 526 m 1,0,-1
 648 436 l 1,1,-1
 450 436 l 1,2,-1
 450 312 l 1,3,-1
 608 312 l 1,4,-1
 608 222 l 1,5,-1
 450 222 l 1,6,-1
 450 78 l 1,7,-1
 648 78 l 1,8,-1
 648 -12 l 1,9,-1
 372 -12 l 1,10,-1
 372 526 l 1,11,-1
 648 526 l 1,0,-1
264 -12 m 1,12,-1
 186 -12 l 1,13,-1
 186 660 l 1,14,-1
 36 660 l 1,15,-1
 36 750 l 1,16,-1
 436 750 l 1,17,-1
 436 660 l 1,18,-1
 264 660 l 1,19,-1
 264 -12 l 1,12,-1
712 526 m 1,20,-1
 790 526 l 1,21,-1
 790 78 l 1,22,-1
 988 78 l 1,23,-1
 988 -12 l 1,24,-1
 712 -12 l 1,25,-1
 712 526 l 1,20,-1
EndSplineSet
Substitution: 1 0 'vert' uni2121.vert
EndChar
StartChar: uni212B
Encoding: 8491 8491 904
Width: 1024
Flags: W
Fore
840 -12 m 1,0,-1
 736 -12 l 1,1,-1
 633 218 l 1,2,-1
 373 218 l 1,3,-1
 270 -12 l 1,4,-1
 166 -12 l 1,5,-1
 445 614 l 1,6,-1
 457 614 l 1,7,-1
 549 614 l 1,8,-1
 561 614 l 1,9,-1
 840 -12 l 1,0,-1
401 750 m 0,10,11
 401 794 401 794 430 824 c 128,-1,12
 459 854 459 854 503 854 c 0,13,14
 547 854 547 854 577 824 c 128,-1,15
 607 794 607 794 607 750 c 0,16,17
 607 706 607 706 577 677 c 128,-1,18
 547 648 547 648 503 648 c 0,19,20
 459 648 459 648 430 677 c 128,-1,21
 401 706 401 706 401 750 c 0,10,11
437 750 m 0,22,23
 437 721 437 721 455.5 702.5 c 128,-1,24
 474 684 474 684 503 684 c 0,25,26
 531 684 531 684 550 702.5 c 128,-1,27
 569 721 569 721 569 750 c 0,28,29
 569 778 569 778 550 797 c 128,-1,30
 531 816 531 816 503 816 c 0,31,32
 474 816 474 816 455.5 797 c 128,-1,33
 437 778 437 778 437 750 c 0,22,23
409 300 m 1,34,-1
 597 300 l 1,35,-1
 508 500 l 1,36,-1
 498 500 l 1,37,-1
 409 300 l 1,34,-1
EndSplineSet
Substitution: 1 0 'vert' uni212B.vert
EndChar
StartChar: arrowleft
Encoding: 8592 8592 966
Width: 1024
Flags: W
Fore
313 578 m 1,0,-1
 229 437 l 1,1,-1
 973 437 l 1,2,-1
 973 352 l 1,3,-1
 231 352 l 1,4,-1
 313 213 l 1,5,-1
 288 197 l 1,6,-1
 54 390 l 1,7,-1
 54 401 l 1,8,-1
 288 594 l 1,9,-1
 313 578 l 1,0,-1
EndSplineSet
Substitution: 1 0 'vert' arrowleft.vert
EndChar
StartChar: arrowup
Encoding: 8593 8593 967
Width: 1024
Flags: W
Fore
330 574 m 1,0,-1
 314 599 l 1,1,-1
 507 833 l 1,2,-1
 519 833 l 1,3,-1
 712 599 l 1,4,-1
 696 574 l 1,5,-1
 557 656 l 1,6,-1
 557 -86 l 1,7,-1
 471 -86 l 1,8,-1
 471 658 l 1,9,-1
 330 574 l 1,0,-1
EndSplineSet
Substitution: 1 0 'vert' arrowup.vert
EndChar
StartChar: arrowright
Encoding: 8594 8594 968
Width: 1024
Flags: W
Fore
715 578 m 1,0,-1
 740 594 l 1,1,-1
 974 401 l 1,2,-1
 974 390 l 1,3,-1
 740 197 l 1,4,-1
 715 213 l 1,5,-1
 797 352 l 1,6,-1
 55 352 l 1,7,-1
 55 437 l 1,8,-1
 799 437 l 1,9,-1
 715 578 l 1,0,-1
EndSplineSet
Substitution: 1 0 'vert' arrowright.vert
EndChar
StartChar: arrowdown
Encoding: 8595 8595 969
Width: 1024
Flags: W
Fore
330 174 m 1,0,-1
 471 90 l 1,1,-1
 471 834 l 1,2,-1
 557 834 l 1,3,-1
 557 92 l 1,4,-1
 696 174 l 1,5,-1
 712 149 l 1,6,-1
 519 -85 l 1,7,-1
 507 -85 l 1,8,-1
 314 149 l 1,9,-1
 330 174 l 1,0,-1
EndSplineSet
Substitution: 1 0 'vert' arrowdown.vert
EndChar
StartChar: arrowdblright
Encoding: 8658 8658 1032
Width: 1024
Flags: W
Fore
26 428 m 1,0,-1
 26 493 l 1,1,-1
 813 493 l 1,2,-1
 681 626 l 1,3,-1
 717 662 l 1,4,-1
 997 384 l 1,5,6
 1015 364 1015 364 997 344 c 1,7,-1
 718 67 l 1,8,-1
 680 102 l 1,9,-1
 812 234 l 1,10,-1
 26 234 l 1,11,-1
 26 299 l 1,12,-1
 877 299 l 1,13,-1
 941 364 l 1,14,-1
 878 428 l 1,15,-1
 26 428 l 1,0,-1
EndSplineSet
Substitution: 1 0 'vert' arrowdblright.vert
EndChar
StartChar: arrowdblboth
Encoding: 8660 8660 1034
Width: 1024
Flags: W
Fore
677 626 m 1,0,-1
 713 662 l 1,1,-1
 993 384 l 1,2,3
 1011 364 1011 364 993 344 c 1,4,-1
 714 67 l 1,5,-1
 676 102 l 1,6,-1
 808 234 l 1,7,-1
 228 234 l 1,8,-1
 360 102 l 1,9,-1
 322 67 l 1,10,-1
 43 344 l 1,11,12
 25 364 25 364 43 384 c 1,13,-1
 323 662 l 1,14,-1
 359 626 l 1,15,-1
 227 493 l 1,16,-1
 809 493 l 1,17,-1
 677 626 l 1,0,-1
938 365 m 1,18,-1
 874 428 l 1,19,-1
 162 428 l 1,20,-1
 99 364 l 1,21,-1
 163 299 l 1,22,-1
 873 299 l 1,23,-1
 938 365 l 1,18,-1
EndSplineSet
Substitution: 1 0 'vert' arrowdblboth.vert
EndChar
StartChar: universal
Encoding: 8704 8704 1057
Width: 1024
Flags: W
Fore
48 772 m 1,0,-1
 100 801 l 1,1,-1
 222 559 l 1,2,-1
 791 559 l 1,3,-1
 913 801 l 1,4,-1
 965 772 l 1,5,-1
 544 -67 l 1,6,7
 527 -99 527 -99 506 -99 c 128,-1,8
 485 -99 485 -99 469 -67 c 2,9,-1
 48 772 l 1,0,-1
503 -1 m 1,10,11
 507 -5 507 -5 510 -1 c 1,12,-1
 759 494 l 1,13,-1
 254 494 l 1,14,-1
 503 -1 l 1,10,11
EndSplineSet
Substitution: 1 0 'vert' universal.vert
EndChar
StartChar: partialdiff
Encoding: 8706 8706 1059
Width: 1024
Flags: W
Fore
511 470 m 0,0,1
 588 470 588 470 651 422 c 1,2,3
 648 570 648 570 625.5 654.5 c 128,-1,4
 603 739 603 739 535 739 c 0,5,6
 468 739 468 739 430.5 703 c 128,-1,7
 393 667 393 667 359 602 c 1,8,-1
 267 622 l 1,9,10
 307 700 307 700 371 760 c 128,-1,11
 435 820 435 820 535 820 c 0,12,13
 658 820 658 820 706.5 693 c 128,-1,14
 755 566 755 566 755 376 c 0,15,16
 755 158 755 158 652 30 c 128,-1,17
 549 -98 549 -98 425 -98 c 0,18,19
 300 -98 300 -98 256.5 -12 c 128,-1,20
 213 74 213 74 216 137 c 128,-1,21
 219 200 219 200 241 266 c 128,-1,22
 263 332 263 332 336.5 401 c 128,-1,23
 410 470 410 470 511 470 c 0,0,1
495 389 m 0,24,25
 439 389 439 389 399 347.5 c 128,-1,26
 359 306 359 306 341 253 c 128,-1,27
 323 200 323 200 319 143 c 128,-1,28
 315 86 315 86 334 34.5 c 128,-1,29
 353 -17 353 -17 425 -17 c 0,30,31
 494 -17 494 -17 561 68.5 c 128,-1,32
 628 154 628 154 644 271 c 1,33,34
 635 333 635 333 594.5 361 c 128,-1,35
 554 389 554 389 495 389 c 0,24,25
EndSplineSet
Substitution: 1 0 'vert' partialdiff.vert
EndChar
StartChar: existential
Encoding: 8707 8707 1060
Width: 1024
Flags: W
Fore
184 753 m 1,0,-1
 832 753 l 1,1,-1
 832 -23 l 1,2,-1
 184 -23 l 1,3,-1
 184 41 l 1,4,-1
 766 41 l 1,5,-1
 766 332 l 1,6,-1
 184 332 l 1,7,-1
 184 397 l 1,8,-1
 766 397 l 1,9,-1
 766 688 l 1,10,-1
 184 688 l 1,11,-1
 184 753 l 1,0,-1
EndSplineSet
Substitution: 1 0 'vert' existential.vert
EndChar
StartChar: gradient
Encoding: 8711 8711 1064
Width: 1024
Flags: W
Fore
54 788 m 1,0,-1
 960 788 l 1,1,-1
 960 756 l 1,2,-1
 526 -90 l 1,3,-1
 488 -90 l 1,4,-1
 54 756 l 1,5,-1
 54 788 l 1,0,-1
849 724 m 1,6,-1
 173 724 l 1,7,-1
 511 64 l 1,8,-1
 849 724 l 1,6,-1
EndSplineSet
Substitution: 1 0 'vert' gradient.vert
EndChar
StartChar: element
Encoding: 8712 8712 1065
Width: 1024
Flags: W
Fore
961 -22 m 1,0,-1
 421 -22 l 2,1,2
 253 -22 253 -22 153.5 97.5 c 128,-1,3
 54 217 54 217 54 365 c 0,4,5
 54 511 54 511 153.5 632 c 128,-1,6
 253 753 253 753 421 753 c 2,7,-1
 961 753 l 1,8,-1
 961 687 l 1,9,-1
 421 687 l 2,10,11
 281 687 281 687 204 591.5 c 128,-1,12
 127 496 127 496 120 399 c 1,13,-1
 961 399 l 1,14,-1
 961 333 l 1,15,-1
 120 333 l 1,16,17
 126 233 126 233 203.5 137.5 c 128,-1,18
 281 42 281 42 421 42 c 2,19,-1
 961 42 l 1,20,-1
 961 -22 l 1,0,-1
EndSplineSet
Substitution: 1 0 'vert' element.vert
EndChar
StartChar: suchthat
Encoding: 8715 8715 1068
Width: 1024
Flags: W
Fore
55 -22 m 1,0,-1
 55 42 l 1,1,-1
 595 42 l 2,2,3
 735 42 735 42 812.5 137.5 c 128,-1,4
 890 233 890 233 896 333 c 1,5,-1
 55 333 l 1,6,-1
 55 399 l 1,7,-1
 896 399 l 1,8,9
 889 496 889 496 812 591.5 c 128,-1,10
 735 687 735 687 595 687 c 2,11,-1
 55 687 l 1,12,-1
 55 753 l 1,13,-1
 595 753 l 2,14,15
 763 753 763 753 862.5 632 c 128,-1,16
 962 511 962 511 962 365 c 0,17,18
 962 217 962 217 862.5 97.5 c 128,-1,19
 763 -22 763 -22 595 -22 c 2,20,-1
 55 -22 l 1,0,-1
EndSplineSet
Substitution: 1 0 'vert' suchthat.vert
EndChar
StartChar: radical
Encoding: 8730 8730 1083
Width: 1024
Flags: W
Fore
506 850 m 1,0,-1
 1011 850 l 1,1,-1
 1011 770 l 1,2,-1
 545 770 l 1,3,-1
 259 -104 l 1,4,-1
 218 -104 l 1,5,-1
 116 246 l 1,6,-1
 53 160 l 1,7,-1
 17 208 l 1,8,-1
 129 370 l 1,9,-1
 166 370 l 1,10,-1
 257 66 l 1,11,-1
 506 850 l 1,0,-1
EndSplineSet
Substitution: 1 0 'vert' radical.vert
Substitution: 1 0 'vert' radical.vert
EndChar
StartChar: proportional
Encoding: 8733 8733 1086
Width: 1024
Flags: W
Fore
274 234 m 0,0,1
 343 234 343 234 397.5 267 c 128,-1,2
 452 300 452 300 518 364 c 1,3,4
 452 428 452 428 397.5 461 c 128,-1,5
 343 494 343 494 274 494 c 0,6,7
 213 494 213 494 170.5 459.5 c 128,-1,8
 128 425 128 425 128 364 c 0,9,10
 128 303 128 303 170.5 268.5 c 128,-1,11
 213 234 213 234 274 234 c 0,0,1
801 559 m 0,12,13
 877 559 877 559 969 511 c 1,14,-1
 934 455 l 1,15,16
 861 494 861 494 801 494 c 0,17,18
 759 494 759 494 717.5 465 c 128,-1,19
 676 436 676 436 612 364 c 1,20,21
 676 292 676 292 717.5 263 c 128,-1,22
 759 234 759 234 801 234 c 0,23,24
 861 234 861 234 934 273 c 1,25,-1
 969 217 l 1,26,27
 877 169 877 169 801 169 c 0,28,29
 731 169 731 169 679 209.5 c 128,-1,30
 627 250 627 250 565 316 c 1,31,32
 495 250 495 250 428 209.5 c 128,-1,33
 361 169 361 169 274 169 c 0,34,35
 183 169 183 169 120 228.5 c 128,-1,36
 57 288 57 288 57 364 c 0,37,38
 57 440 57 440 120 499.5 c 128,-1,39
 183 559 183 559 274 559 c 0,40,41
 361 559 361 559 428 518.5 c 128,-1,42
 495 478 495 478 565 412 c 1,43,44
 627 478 627 478 679 518.5 c 128,-1,45
 731 559 731 559 801 559 c 0,12,13
EndSplineSet
Substitution: 1 0 'vert' proportional.vert
EndChar
StartChar: infinity
Encoding: 8734 8734 1087
Width: 1024
Flags: W
Fore
755 494 m 0,0,1
 699 494 699 494 655.5 461.5 c 128,-1,2
 612 429 612 429 553 364 c 1,3,4
 612 299 612 299 655.5 266.5 c 128,-1,5
 699 234 699 234 755 234 c 0,6,7
 816 234 816 234 854.5 268.5 c 128,-1,8
 893 303 893 303 893 364 c 0,9,10
 893 425 893 425 854.5 459.5 c 128,-1,11
 816 494 816 494 755 494 c 0,0,1
262 169 m 0,12,13
 171 169 171 169 112 228.5 c 128,-1,14
 53 288 53 288 53 364 c 0,15,16
 53 440 53 440 112 499.5 c 128,-1,17
 171 559 171 559 262 559 c 0,18,19
 338 559 338 559 394 517 c 128,-1,20
 450 475 450 475 508 415 c 1,21,22
 565 475 565 475 622 517 c 128,-1,23
 679 559 679 559 755 559 c 0,24,25
 846 559 846 559 905 499.5 c 128,-1,26
 964 440 964 440 964 364 c 0,27,28
 964 288 964 288 905 228.5 c 128,-1,29
 846 169 846 169 755 169 c 0,30,31
 679 169 679 169 622 211 c 128,-1,32
 565 253 565 253 508 313 c 1,33,34
 450 253 450 253 394 211 c 128,-1,35
 338 169 338 169 262 169 c 0,12,13
262 234 m 0,36,37
 318 234 318 234 360.5 266.5 c 128,-1,38
 403 299 403 299 462 364 c 1,39,40
 403 429 403 429 360.5 461.5 c 128,-1,41
 318 494 318 494 262 494 c 0,42,43
 201 494 201 494 162.5 459.5 c 128,-1,44
 124 425 124 425 124 364 c 0,45,46
 124 303 124 303 162.5 268.5 c 128,-1,47
 201 234 201 234 262 234 c 0,36,37
EndSplineSet
Substitution: 1 0 'vert' infinity.vert
EndChar
StartChar: angle
Encoding: 8736 8736 1089
Width: 1024
Flags: W
Fore
884 789 m 1,0,-1
 921 739 l 1,1,-1
 176 8 l 1,2,-1
 930 8 l 1,3,-1
 930 -56 l 1,4,-1
 73 -56 l 2,5,6
 26 -56 26 -56 59 -21 c 1,7,-1
 884 789 l 1,0,-1
EndSplineSet
Substitution: 1 0 'vert' angle.vert
Substitution: 1 0 'vert' angle.vert
EndChar
StartChar: uni2225
Encoding: 8741 8741 1094
Width: 1024
Flags: W
Fore
577 875 m 1,0,-1
 651 875 l 1,1,-1
 651 -136 l 1,2,-1
 577 -136 l 1,3,-1
 577 875 l 1,0,-1
345 875 m 1,4,-1
 419 875 l 1,5,-1
 419 -136 l 1,6,-1
 345 -136 l 1,7,-1
 345 875 l 1,4,-1
EndSplineSet
Substitution: 1 0 'vert' uni2225.vert
EndChar
StartChar: logicaland
Encoding: 8743 8743 1096
Width: 1024
Flags: W
Fore
48 -31 m 1,0,-1
 469 808 l 2,1,2
 485 840 485 840 506 840 c 128,-1,3
 527 840 527 840 544 808 c 1,4,-1
 965 -31 l 1,5,-1
 913 -60 l 1,6,-1
 510 742 l 1,7,8
 507 746 507 746 503 741 c 1,9,-1
 100 -60 l 1,10,-1
 48 -31 l 1,0,-1
EndSplineSet
Substitution: 1 0 'vert' logicaland.vert
EndChar
StartChar: logicalor
Encoding: 8744 8744 1097
Width: 1024
Flags: W
Fore
48 769 m 1,0,-1
 100 798 l 1,1,-1
 503 -3 l 1,2,3
 507 -8 507 -8 510 -4 c 1,4,-1
 913 798 l 1,5,-1
 965 769 l 1,6,-1
 544 -70 l 1,7,8
 527 -102 527 -102 506 -102 c 128,-1,9
 485 -102 485 -102 469 -70 c 2,10,-1
 48 769 l 1,0,-1
EndSplineSet
Substitution: 1 0 'vert' logicalor.vert
EndChar
StartChar: intersection
Encoding: 8745 8745 1098
Width: 1024
Flags: W
Fore
153 -87 m 1,0,-1
 153 459 l 2,1,2
 153 635 153 635 257.5 726.5 c 128,-1,3
 362 818 362 818 509 818 c 0,4,5
 655 818 655 818 760 726.5 c 128,-1,6
 865 635 865 635 865 459 c 2,7,-1
 865 -87 l 1,8,-1
 799 -87 l 1,9,-1
 799 459 l 2,10,11
 799 607 799 607 714 680.5 c 128,-1,12
 629 754 629 754 509 754 c 0,13,14
 388 754 388 754 303.5 680.5 c 128,-1,15
 219 607 219 607 219 459 c 2,16,-1
 219 -87 l 1,17,-1
 153 -87 l 1,0,-1
EndSplineSet
Substitution: 1 0 'vert' intersection.vert
Substitution: 1 0 'vert' intersection.vert
EndChar
StartChar: union
Encoding: 8746 8746 1099
Width: 1024
Flags: W
Fore
153 818 m 1,0,-1
 219 818 l 1,1,-1
 219 271 l 2,2,3
 219 123 219 123 303.5 50 c 128,-1,4
 388 -23 388 -23 509 -23 c 0,5,6
 629 -23 629 -23 714 50 c 128,-1,7
 799 123 799 123 799 271 c 2,8,-1
 799 818 l 1,9,-1
 865 818 l 1,10,-1
 865 271 l 2,11,12
 865 95 865 95 760 4 c 128,-1,13
 655 -87 655 -87 509 -87 c 0,14,15
 362 -87 362 -87 257.5 4 c 128,-1,16
 153 95 153 95 153 271 c 2,17,-1
 153 818 l 1,0,-1
EndSplineSet
Substitution: 1 0 'vert' union.vert
Substitution: 1 0 'vert' union.vert
EndChar
StartChar: integral
Encoding: 8747 8747 1100
Width: 1024
Flags: W
Fore
383 -96 m 0,0,1
 331 -96 331 -96 294.5 -70.5 c 128,-1,2
 258 -45 258 -45 239 40 c 1,3,-1
 329 40 l 1,4,5
 334 -3 334 -3 348 -15 c 128,-1,6
 362 -27 362 -27 384 -27 c 0,7,8
 431 -27 431 -27 451.5 2.5 c 128,-1,9
 472 32 472 32 466 121.5 c 128,-1,10
 460 211 460 211 450 346 c 0,11,12
 440 481 440 481 431.5 595 c 128,-1,13
 423 709 423 709 474 763.5 c 128,-1,14
 525 818 525 818 600 818 c 0,15,16
 652 818 652 818 688.5 792.5 c 128,-1,17
 725 767 725 767 744 682 c 1,18,-1
 654 682 l 1,19,20
 649 725 649 725 635 737 c 128,-1,21
 621 749 621 749 599 749 c 0,22,23
 552 749 552 749 531.5 719.5 c 128,-1,24
 511 690 511 690 517 600.5 c 128,-1,25
 523 511 523 511 533 376 c 0,26,27
 543 241 543 241 551.5 127 c 128,-1,28
 560 13 560 13 509 -41.5 c 128,-1,29
 458 -96 458 -96 383 -96 c 0,0,1
EndSplineSet
Substitution: 1 0 'vert' integral.vert
Substitution: 1 0 'vert' integral.vert
EndChar
StartChar: uni222C
Encoding: 8748 8748 1101
Width: 1024
Flags: W
Fore
239 -96 m 0,0,1
 187 -96 187 -96 150.5 -70.5 c 128,-1,2
 114 -45 114 -45 95 40 c 1,3,-1
 185 40 l 1,4,5
 190 -3 190 -3 204 -15 c 128,-1,6
 218 -27 218 -27 240 -27 c 0,7,8
 287 -27 287 -27 307.5 2.5 c 128,-1,9
 328 32 328 32 322 121.5 c 128,-1,10
 316 211 316 211 306 346 c 0,11,12
 296 481 296 481 287.5 595 c 128,-1,13
 279 709 279 709 330 763.5 c 128,-1,14
 381 818 381 818 456 818 c 0,15,16
 508 818 508 818 544.5 792.5 c 128,-1,17
 581 767 581 767 600 682 c 1,18,-1
 510 682 l 1,19,20
 505 725 505 725 491 737 c 128,-1,21
 477 749 477 749 455 749 c 0,22,23
 408 749 408 749 387.5 719.5 c 128,-1,24
 367 690 367 690 373 600.5 c 128,-1,25
 379 511 379 511 389 376 c 0,26,27
 399 241 399 241 407.5 127 c 128,-1,28
 416 13 416 13 365 -41.5 c 128,-1,29
 314 -96 314 -96 239 -96 c 0,0,1
571 -96 m 0,30,31
 519 -96 519 -96 482.5 -70.5 c 128,-1,32
 446 -45 446 -45 427 40 c 1,33,-1
 517 40 l 1,34,35
 522 -3 522 -3 536 -15 c 128,-1,36
 550 -27 550 -27 572 -27 c 0,37,38
 619 -27 619 -27 639.5 2.5 c 128,-1,39
 660 32 660 32 654 121.5 c 128,-1,40
 648 211 648 211 638 346 c 0,41,42
 628 481 628 481 619.5 595 c 128,-1,43
 611 709 611 709 662 763.5 c 128,-1,44
 713 818 713 818 788 818 c 0,45,46
 840 818 840 818 876.5 792.5 c 128,-1,47
 913 767 913 767 932 682 c 1,48,-1
 842 682 l 1,49,50
 837 725 837 725 823 737 c 128,-1,51
 809 749 809 749 787 749 c 0,52,53
 740 749 740 749 719.5 719.5 c 128,-1,54
 699 690 699 690 705 600.5 c 128,-1,55
 711 511 711 511 721 376 c 0,56,57
 731 241 731 241 739.5 127 c 128,-1,58
 748 13 748 13 697 -41.5 c 128,-1,59
 646 -96 646 -96 571 -96 c 0,30,31
EndSplineSet
Substitution: 1 0 'vert' uni222C.vert
EndChar
StartChar: therefore
Encoding: 8756 8756 1109
Width: 1024
Flags: W
Fore
428 540 m 1,0,-1
 428 700 l 1,1,-1
 588 700 l 1,2,-1
 588 540 l 1,3,-1
 428 540 l 1,0,-1
686 118 m 1,4,-1
 686 278 l 1,5,-1
 846 278 l 1,6,-1
 846 118 l 1,7,-1
 686 118 l 1,4,-1
170 118 m 1,8,-1
 170 278 l 1,9,-1
 330 278 l 1,10,-1
 330 118 l 1,11,-1
 170 118 l 1,8,-1
EndSplineSet
Substitution: 1 0 'vert' therefore.vert
EndChar
StartChar: uni2235
Encoding: 8757 8757 1110
Width: 1024
Flags: W
Fore
196 508 m 1,0,-1
 196 644 l 1,1,-1
 332 644 l 1,2,-1
 332 508 l 1,3,-1
 196 508 l 1,0,-1
652 508 m 1,4,-1
 652 644 l 1,5,-1
 788 644 l 1,6,-1
 788 508 l 1,7,-1
 652 508 l 1,4,-1
422 116 m 1,8,-1
 422 252 l 1,9,-1
 558 252 l 1,10,-1
 558 116 l 1,11,-1
 422 116 l 1,8,-1
EndSplineSet
Substitution: 1 0 'vert' uni2235.vert
Substitution: 1 0 'vert' uni2235.vert
EndChar
StartChar: uni223D
Encoding: 8765 8765 1118
Width: 1024
Flags: W
Fore
266 559 m 0,0,1
 337 559 337 559 401 505 c 1,2,-1
 369 451 l 1,3,4
 314 494 314 494 266 494 c 0,5,6
 205 494 205 494 166.5 461 c 128,-1,7
 128 428 128 428 128 364 c 0,8,9
 128 303 128 303 166.5 268.5 c 128,-1,10
 205 234 205 234 266 234 c 0,11,12
 322 234 322 234 366.5 268 c 128,-1,13
 411 302 411 302 485.5 385.5 c 128,-1,14
 560 469 560 469 621.5 514 c 128,-1,15
 683 559 683 559 759 559 c 0,16,17
 850 559 850 559 909 499.5 c 128,-1,18
 968 440 968 440 968 364 c 0,19,20
 968 280 968 280 909 224.5 c 128,-1,21
 850 169 850 169 759 169 c 0,22,23
 688 169 688 169 624 223 c 1,24,-1
 656 277 l 1,25,26
 711 234 711 234 759 234 c 0,27,28
 820 234 820 234 858.5 267 c 128,-1,29
 897 300 897 300 897 364 c 0,30,31
 897 425 897 425 858.5 459.5 c 128,-1,32
 820 494 820 494 759 494 c 0,33,34
 703 494 703 494 657.5 460 c 128,-1,35
 612 426 612 426 537.5 342.5 c 128,-1,36
 463 259 463 259 402.5 214 c 128,-1,37
 342 169 342 169 266 169 c 0,38,39
 175 169 175 169 116 228.5 c 128,-1,40
 57 288 57 288 57 364 c 0,41,42
 57 448 57 448 116 503.5 c 128,-1,43
 175 559 175 559 266 559 c 0,0,1
EndSplineSet
Substitution: 1 0 'vert' uni223D.vert
EndChar
StartChar: uni2252
Encoding: 8786 8786 1139
Width: 1024
Flags: W
Fore
118 526 m 1,0,-1
 897 526 l 1,1,-1
 897 461 l 1,2,-1
 118 461 l 1,3,-1
 118 526 l 1,0,-1
118 299 m 1,4,-1
 897 299 l 1,5,-1
 897 234 l 1,6,-1
 118 234 l 1,7,-1
 118 299 l 1,4,-1
254 628 m 1,8,-1
 254 744 l 1,9,-1
 370 744 l 1,10,-1
 370 628 l 1,11,-1
 254 628 l 1,8,-1
644 12 m 1,12,-1
 644 128 l 1,13,-1
 760 128 l 1,14,-1
 760 12 l 1,15,-1
 644 12 l 1,12,-1
EndSplineSet
Substitution: 1 0 'vert' uni2252.vert
Substitution: 1 0 'vert' uni2252.vert
EndChar
StartChar: notequal
Encoding: 8800 8800 1153
Width: 1024
Flags: W
Fore
618 706 m 1,0,-1
 685 692 l 1,1,-1
 602 509 l 1,2,-1
 865 509 l 1,3,-1
 865 436 l 1,4,-1
 570 436 l 1,5,-1
 504 291 l 1,6,-1
 865 291 l 1,7,-1
 865 218 l 1,8,-1
 471 218 l 1,9,-1
 385 27 l 1,10,-1
 320 36 l 1,11,-1
 401 218 l 1,12,-1
 151 218 l 1,13,-1
 151 291 l 1,14,-1
 433 291 l 1,15,-1
 498 436 l 1,16,-1
 151 436 l 1,17,-1
 151 509 l 1,18,-1
 530 509 l 1,19,-1
 618 706 l 1,0,-1
EndSplineSet
Substitution: 1 0 'vert' notequal.vert
EndChar
StartChar: equivalence
Encoding: 8801 8801 1154
Width: 1024
Flags: W
Fore
106 621 m 1,0,-1
 787 621 l 1,1,-1
 787 557 l 1,2,-1
 106 557 l 1,3,-1
 106 621 l 1,0,-1
106 425 m 1,4,-1
 787 425 l 1,5,-1
 787 361 l 1,6,-1
 106 361 l 1,7,-1
 106 425 l 1,4,-1
106 229 m 1,8,-1
 787 229 l 1,9,-1
 787 165 l 1,10,-1
 106 165 l 1,11,-1
 106 229 l 1,8,-1
EndSplineSet
Substitution: 1 0 'vert' equivalence.vert
Substitution: 1 0 'vert' equivalence.vert
EndChar
StartChar: uni2266
Encoding: 8806 8806 1159
Width: 1024
Flags: W
Fore
863 822 m 1,0,-1
 899 773 l 1,1,-1
 219 540 l 1,2,-1
 899 307 l 1,3,-1
 863 258 l 1,4,-1
 134 510 l 1,5,6
 84 540 84 540 134 570 c 1,7,-1
 863 822 l 1,0,-1
890 206 m 1,8,-1
 890 133 l 1,9,-1
 111 133 l 1,10,-1
 111 206 l 1,11,-1
 890 206 l 1,8,-1
890 37 m 1,12,-1
 890 -35 l 1,13,-1
 111 -35 l 1,14,-1
 111 37 l 1,15,-1
 890 37 l 1,12,-1
EndSplineSet
Substitution: 1 0 'vert' uni2266.vert
EndChar
StartChar: uni2267
Encoding: 8807 8807 1160
Width: 1024
Flags: W
Fore
145 822 m 1,0,-1
 874 570 l 1,1,2
 924 540 924 540 874 510 c 1,3,-1
 145 258 l 1,4,-1
 109 307 l 1,5,-1
 789 540 l 1,6,-1
 109 773 l 1,7,-1
 145 822 l 1,0,-1
118 206 m 1,8,-1
 897 206 l 1,9,-1
 897 133 l 1,10,-1
 118 133 l 1,11,-1
 118 206 l 1,8,-1
118 37 m 1,12,-1
 897 37 l 1,13,-1
 897 -35 l 1,14,-1
 118 -35 l 1,15,-1
 118 37 l 1,12,-1
EndSplineSet
Substitution: 1 0 'vert' uni2267.vert
EndChar
StartChar: uni226A
Encoding: 8810 8810 1163
Width: 1024
Flags: W
Fore
724 826 m 1,0,-1
 767 789 l 1,1,-1
 133 364 l 1,2,-1
 767 -60 l 1,3,-1
 724 -97 l 1,4,-1
 70 339 l 2,5,6
 52 351 52 351 52 363.5 c 128,-1,7
 52 376 52 376 69 389 c 1,8,-1
 724 826 l 1,0,-1
934 826 m 1,9,-1
 977 789 l 1,10,-1
 343 364 l 1,11,-1
 977 -60 l 1,12,-1
 934 -97 l 1,13,-1
 280 339 l 2,14,15
 262 351 262 351 262 363.5 c 128,-1,16
 262 376 262 376 279 389 c 1,17,-1
 934 826 l 1,9,-1
EndSplineSet
Substitution: 1 0 'vert' uni226A.vert
EndChar
StartChar: uni226B
Encoding: 8811 8811 1164
Width: 1024
Flags: W
Fore
306 826 m 1,0,-1
 961 389 l 1,1,2
 978 376 978 376 978 363.5 c 128,-1,3
 978 351 978 351 960 339 c 2,4,-1
 306 -97 l 1,5,-1
 263 -60 l 1,6,-1
 897 364 l 1,7,-1
 263 789 l 1,8,-1
 306 826 l 1,0,-1
96 826 m 1,9,-1
 751 389 l 1,10,11
 768 376 768 376 768 363.5 c 128,-1,12
 768 351 768 351 750 339 c 2,13,-1
 96 -97 l 1,14,-1
 53 -60 l 1,15,-1
 687 364 l 1,16,-1
 53 789 l 1,17,-1
 96 826 l 1,9,-1
EndSplineSet
Substitution: 1 0 'vert' uni226B.vert
EndChar
StartChar: propersubset
Encoding: 8834 8834 1187
Width: 1024
Flags: W
Fore
963 9 m 1,0,-1
 423 9 l 2,1,2
 239 9 239 9 147.5 113 c 128,-1,3
 56 217 56 217 56 365 c 0,4,5
 56 511 56 511 147.5 616 c 128,-1,6
 239 721 239 721 423 721 c 2,7,-1
 963 721 l 1,8,-1
 963 655 l 1,9,-1
 423 655 l 2,10,11
 267 655 267 655 193.5 570 c 128,-1,12
 120 485 120 485 120 365 c 0,13,14
 120 243 120 243 193.5 158.5 c 128,-1,15
 267 74 267 74 423 74 c 2,16,-1
 963 74 l 1,17,-1
 963 9 l 1,0,-1
EndSplineSet
Substitution: 1 0 'vert' propersubset.vert
EndChar
StartChar: propersuperset
Encoding: 8835 8835 1188
Width: 1024
Flags: W
Fore
53 9 m 1,0,-1
 53 74 l 1,1,-1
 593 74 l 2,2,3
 749 74 749 74 822.5 158.5 c 128,-1,4
 896 243 896 243 896 365 c 0,5,6
 896 485 896 485 822.5 570 c 128,-1,7
 749 655 749 655 593 655 c 2,8,-1
 53 655 l 1,9,-1
 53 721 l 1,10,-1
 593 721 l 2,11,12
 777 721 777 721 868.5 616 c 128,-1,13
 960 511 960 511 960 365 c 0,14,15
 960 217 960 217 868.5 113 c 128,-1,16
 777 9 777 9 593 9 c 2,17,-1
 53 9 l 1,0,-1
EndSplineSet
Substitution: 1 0 'vert' propersuperset.vert
EndChar
StartChar: reflexsubset
Encoding: 8838 8838 1191
Width: 1024
Flags: W
Fore
53 41 m 1,0,-1
 962 41 l 1,1,-1
 962 -23 l 1,2,-1
 53 -23 l 1,3,-1
 53 41 l 1,0,-1
962 169 m 1,4,-1
 398 169 l 2,5,6
 239 169 239 169 147 265 c 128,-1,7
 55 361 55 361 55 479 c 0,8,9
 55 595 55 595 147 691 c 128,-1,10
 239 787 239 787 398 787 c 2,11,-1
 962 787 l 1,12,-1
 962 721 l 1,13,-1
 398 721 l 2,14,15
 265 721 265 721 192 645 c 128,-1,16
 119 569 119 569 119 479 c 0,17,18
 119 387 119 387 192 310.5 c 128,-1,19
 265 234 265 234 398 234 c 2,20,-1
 962 234 l 1,21,-1
 962 169 l 1,4,-1
EndSplineSet
Substitution: 1 0 'vert' reflexsubset.vert
EndChar
StartChar: reflexsuperset
Encoding: 8839 8839 1192
Width: 1024
Flags: W
Fore
53 41 m 1,0,-1
 963 41 l 1,1,-1
 963 -23 l 1,2,-1
 53 -23 l 1,3,-1
 53 41 l 1,0,-1
52 787 m 1,4,-1
 616 787 l 2,5,6
 775 787 775 787 867 691 c 128,-1,7
 959 595 959 595 959 477 c 0,8,9
 959 361 959 361 867 265 c 128,-1,10
 775 169 775 169 616 169 c 2,11,-1
 52 169 l 1,12,-1
 52 235 l 1,13,-1
 616 235 l 2,14,15
 749 235 749 235 822 311 c 128,-1,16
 895 387 895 387 895 477 c 0,17,18
 895 569 895 569 822 645.5 c 128,-1,19
 749 722 749 722 616 722 c 2,20,-1
 52 722 l 1,21,-1
 52 787 l 1,4,-1
EndSplineSet
Substitution: 1 0 'vert' reflexsuperset.vert
EndChar
StartChar: perpendicular
Encoding: 8869 8869 1222
Width: 1024
Flags: W
Fore
475 818 m 1,0,-1
 541 818 l 1,1,-1
 541 8 l 1,2,-1
 930 8 l 1,3,-1
 930 -56 l 1,4,-1
 86 -56 l 1,5,-1
 86 8 l 1,6,-1
 475 8 l 1,7,-1
 475 818 l 1,0,-1
EndSplineSet
Substitution: 1 0 'vert' perpendicular.vert
Substitution: 1 0 'vert' perpendicular.vert
EndChar
StartChar: uni2312
Encoding: 8978 8978 1301
Width: 1024
Flags: W
Fore
57 449 m 1,0,1
 57 571 57 571 185.5 678.5 c 128,-1,2
 314 786 314 786 509 786 c 0,3,4
 703 786 703 786 832 678.5 c 128,-1,5
 961 571 961 571 961 449 c 1,6,-1
 891 448 l 1,7,8
 876 567 876 567 776.5 644.5 c 128,-1,9
 677 722 677 722 509 722 c 0,10,11
 340 722 340 722 237 644.5 c 128,-1,12
 134 567 134 567 119 448 c 1,13,-1
 57 449 l 1,0,1
EndSplineSet
Substitution: 1 0 'vert' uni2312.vert
EndChar
StartChar: uni2460
Encoding: 9312 9312 1304
Width: 1024
Flags: W
Fore
34 381 m 0,0,1
 34 578 34 578 173 717.5 c 128,-1,2
 312 857 312 857 510 857 c 0,3,4
 707 857 707 857 846.5 717.5 c 128,-1,5
 986 578 986 578 986 381 c 0,6,7
 986 183 986 183 846.5 44 c 128,-1,8
 707 -95 707 -95 510 -95 c 0,9,10
 312 -95 312 -95 173 44 c 128,-1,11
 34 183 34 183 34 381 c 0,0,1
79 380 m 0,12,13
 79 198 79 198 203.5 74 c 128,-1,14
 328 -50 328 -50 510 -50 c 0,15,16
 691 -50 691 -50 816 74 c 128,-1,17
 941 198 941 198 941 380 c 0,18,19
 941 561 941 561 816 686.5 c 128,-1,20
 691 812 691 812 510 812 c 0,21,22
 328 812 328 812 203.5 686.5 c 128,-1,23
 79 561 79 561 79 380 c 0,12,13
557 50 m 1,24,-1
 479 50 l 1,25,-1
 479 569 l 2,26,27
 479 597 479 597 447 597 c 2,28,-1
 383 597 l 1,29,-1
 383 648 l 1,30,31
 492 654 492 654 511 714 c 1,32,-1
 557 714 l 1,33,-1
 557 658 l 1,34,-1
 557 50 l 1,24,-1
EndSplineSet
Substitution: 1 0 'vert' uni2460.vert
EndChar
StartChar: uni2461
Encoding: 9313 9313 1305
Width: 1024
Flags: W
Fore
520 702 m 0,0,1
 604 702 604 702 665 656.5 c 128,-1,2
 726 611 726 611 726 518 c 0,3,4
 726 431 726 431 628 338 c 1,5,-1
 387 138 l 1,6,-1
 712 138 l 1,7,-1
 700 57 l 1,8,-1
 298 57 l 1,9,-1
 298 149 l 1,10,-1
 540 354 l 1,11,12
 641 445 641 445 641 519 c 0,13,14
 641 581 641 581 609 605 c 128,-1,15
 577 629 577 629 520 629 c 0,16,17
 465 629 465 629 429 607 c 128,-1,18
 393 585 393 585 393 511 c 1,19,-1
 313 511 l 1,20,21
 313 614 313 614 376.5 658 c 128,-1,22
 440 702 440 702 520 702 c 0,0,1
34 381 m 0,23,24
 34 578 34 578 173 717.5 c 128,-1,25
 312 857 312 857 510 857 c 0,26,27
 707 857 707 857 846.5 717.5 c 128,-1,28
 986 578 986 578 986 381 c 0,29,30
 986 183 986 183 846.5 44 c 128,-1,31
 707 -95 707 -95 510 -95 c 0,32,33
 312 -95 312 -95 173 44 c 128,-1,34
 34 183 34 183 34 381 c 0,23,24
79 380 m 0,35,36
 79 198 79 198 203.5 74 c 128,-1,37
 328 -50 328 -50 510 -50 c 0,38,39
 691 -50 691 -50 816 74 c 128,-1,40
 941 198 941 198 941 380 c 0,41,42
 941 561 941 561 816 686.5 c 128,-1,43
 691 812 691 812 510 812 c 0,44,45
 328 812 328 812 203.5 686.5 c 128,-1,46
 79 561 79 561 79 380 c 0,35,36
EndSplineSet
Substitution: 1 0 'vert' uni2461.vert
EndChar
StartChar: uni2462
Encoding: 9314 9314 1306
Width: 1024
Flags: W
Fore
505 702 m 0,0,1
 601 702 601 702 654 653 c 128,-1,2
 707 604 707 604 707 533 c 0,3,4
 707 491 707 491 670.5 450.5 c 128,-1,5
 634 410 634 410 587 399 c 1,6,7
 642 390 642 390 689.5 349 c 128,-1,8
 737 308 737 308 737 230 c 0,9,10
 737 156 737 156 668 103.5 c 128,-1,11
 599 51 599 51 505 51 c 0,12,13
 414 51 414 51 355 96 c 128,-1,14
 296 141 296 141 296 230 c 1,15,-1
 374 230 l 1,16,17
 374 162 374 162 410.5 143 c 128,-1,18
 447 124 447 124 505 124 c 0,19,20
 561 124 561 124 607.5 151.5 c 128,-1,21
 654 179 654 179 654 229 c 0,22,23
 654 306 654 306 594 337 c 128,-1,24
 534 368 534 368 459 368 c 1,25,-1
 459 426 l 1,26,27
 535 426 535 426 579.5 460.5 c 128,-1,28
 624 495 624 495 624 534 c 0,29,30
 624 578 624 578 593.5 603.5 c 128,-1,31
 563 629 563 629 505 629 c 0,32,33
 462 629 462 629 427 608 c 128,-1,34
 392 587 392 587 392 519 c 1,35,-1
 315 519 l 1,36,37
 315 611 315 611 374 656.5 c 128,-1,38
 433 702 433 702 505 702 c 0,0,1
34 381 m 0,39,40
 34 578 34 578 173 717.5 c 128,-1,41
 312 857 312 857 510 857 c 0,42,43
 707 857 707 857 846.5 717.5 c 128,-1,44
 986 578 986 578 986 381 c 0,45,46
 986 183 986 183 846.5 44 c 128,-1,47
 707 -95 707 -95 510 -95 c 0,48,49
 312 -95 312 -95 173 44 c 128,-1,50
 34 183 34 183 34 381 c 0,39,40
79 380 m 0,51,52
 79 198 79 198 203.5 74 c 128,-1,53
 328 -50 328 -50 510 -50 c 0,54,55
 691 -50 691 -50 816 74 c 128,-1,56
 941 198 941 198 941 380 c 0,57,58
 941 561 941 561 816 686.5 c 128,-1,59
 691 812 691 812 510 812 c 0,60,61
 328 812 328 812 203.5 686.5 c 128,-1,62
 79 561 79 561 79 380 c 0,51,52
EndSplineSet
Substitution: 1 0 'vert' uni2462.vert
EndChar
StartChar: uni2463
Encoding: 9315 9315 1307
Width: 1024
Flags: W
Fore
34 381 m 0,0,1
 34 578 34 578 173 717.5 c 128,-1,2
 312 857 312 857 510 857 c 0,3,4
 707 857 707 857 846.5 717.5 c 128,-1,5
 986 578 986 578 986 381 c 0,6,7
 986 183 986 183 846.5 44 c 128,-1,8
 707 -95 707 -95 510 -95 c 0,9,10
 312 -95 312 -95 173 44 c 128,-1,11
 34 183 34 183 34 381 c 0,0,1
79 380 m 0,12,13
 79 198 79 198 203.5 74 c 128,-1,14
 328 -50 328 -50 510 -50 c 0,15,16
 691 -50 691 -50 816 74 c 128,-1,17
 941 198 941 198 941 380 c 0,18,19
 941 561 941 561 816 686.5 c 128,-1,20
 691 812 691 812 510 812 c 0,21,22
 328 812 328 812 203.5 686.5 c 128,-1,23
 79 561 79 561 79 380 c 0,12,13
600 50 m 1,24,-1
 523 50 l 1,25,-1
 523 205 l 1,26,-1
 196 205 l 1,27,-1
 196 246 l 1,28,-1
 533 714 l 1,29,-1
 600 714 l 1,30,-1
 600 286 l 1,31,-1
 708 286 l 1,32,-1
 708 205 l 1,33,-1
 600 205 l 1,34,-1
 600 50 l 1,24,-1
523 572 m 1,35,-1
 316 286 l 1,36,-1
 523 286 l 1,37,-1
 523 572 l 1,35,-1
EndSplineSet
Substitution: 1 0 'vert' uni2463.vert
EndChar
StartChar: uni2464
Encoding: 9316 9316 1308
Width: 1024
Flags: W
Fore
34 381 m 0,0,1
 34 578 34 578 173 717.5 c 128,-1,2
 312 857 312 857 510 857 c 0,3,4
 707 857 707 857 846.5 717.5 c 128,-1,5
 986 578 986 578 986 381 c 0,6,7
 986 183 986 183 846.5 44 c 128,-1,8
 707 -95 707 -95 510 -95 c 0,9,10
 312 -95 312 -95 173 44 c 128,-1,11
 34 183 34 183 34 381 c 0,0,1
79 380 m 0,12,13
 79 198 79 198 203.5 74 c 128,-1,14
 328 -50 328 -50 510 -50 c 0,15,16
 691 -50 691 -50 816 74 c 128,-1,17
 941 198 941 198 941 380 c 0,18,19
 941 561 941 561 816 686.5 c 128,-1,20
 691 812 691 812 510 812 c 0,21,22
 328 812 328 812 203.5 686.5 c 128,-1,23
 79 561 79 561 79 380 c 0,12,13
547 467 m 0,24,25
 627 467 627 467 690 413 c 128,-1,26
 753 359 753 359 753 268 c 0,27,28
 753 181 753 181 693 116 c 128,-1,29
 633 51 633 51 525 51 c 0,30,31
 426 51 426 51 365 102.5 c 128,-1,32
 304 154 304 154 304 220 c 1,33,-1
 384 220 l 1,34,35
 384 174 384 174 429.5 149 c 128,-1,36
 475 124 475 124 525 124 c 0,37,38
 591 124 591 124 630.5 163 c 128,-1,39
 670 202 670 202 670 268 c 0,40,41
 670 331 670 331 632.5 362.5 c 128,-1,42
 595 394 595 394 547 394 c 0,43,44
 495 394 495 394 469 385 c 128,-1,45
 443 376 443 376 416 344 c 1,46,-1
 341 344 l 1,47,-1
 363 696 l 1,48,-1
 686 696 l 1,49,-1
 669 615 l 1,50,-1
 432 615 l 1,51,-1
 422 437 l 1,52,53
 488 467 488 467 547 467 c 0,24,25
EndSplineSet
Substitution: 1 0 'vert' uni2464.vert
EndChar
StartChar: uni2465
Encoding: 9317 9317 1309
Width: 1024
Flags: W
Fore
34 381 m 0,0,1
 34 578 34 578 173 717.5 c 128,-1,2
 312 857 312 857 510 857 c 0,3,4
 707 857 707 857 846.5 717.5 c 128,-1,5
 986 578 986 578 986 381 c 0,6,7
 986 183 986 183 846.5 44 c 128,-1,8
 707 -95 707 -95 510 -95 c 0,9,10
 312 -95 312 -95 173 44 c 128,-1,11
 34 183 34 183 34 381 c 0,0,1
79 380 m 0,12,13
 79 198 79 198 203.5 74 c 128,-1,14
 328 -50 328 -50 510 -50 c 0,15,16
 691 -50 691 -50 816 74 c 128,-1,17
 941 198 941 198 941 380 c 0,18,19
 941 561 941 561 816 686.5 c 128,-1,20
 691 812 691 812 510 812 c 0,21,22
 328 812 328 812 203.5 686.5 c 128,-1,23
 79 561 79 561 79 380 c 0,12,13
514 459 m 0,24,25
 604 459 604 459 669 401.5 c 128,-1,26
 734 344 734 344 734 253 c 0,27,28
 734 183 734 183 669 117 c 128,-1,29
 604 51 604 51 514 51 c 0,30,31
 422 51 422 51 350.5 112 c 128,-1,32
 279 173 279 173 279 376 c 0,33,34
 279 519 279 519 343.5 610.5 c 128,-1,35
 408 702 408 702 514 702 c 0,36,37
 593 702 593 702 652.5 653.5 c 128,-1,38
 712 605 712 605 712 539 c 1,39,-1
 628 539 l 1,40,41
 628 588 628 588 593.5 608.5 c 128,-1,42
 559 629 559 629 514 629 c 0,43,44
 450 629 450 629 408 573.5 c 128,-1,45
 366 518 366 518 362 402 c 1,46,47
 444 459 444 459 514 459 c 0,24,25
514 124 m 0,48,49
 571 124 571 124 611 160.5 c 128,-1,50
 651 197 651 197 651 253 c 0,51,52
 651 317 651 317 615.5 352 c 128,-1,53
 580 387 580 387 514 387 c 0,54,55
 463 387 463 387 422.5 363 c 128,-1,56
 382 339 382 339 366 282 c 1,57,58
 376 185 376 185 417.5 154.5 c 128,-1,59
 459 124 459 124 514 124 c 0,48,49
EndSplineSet
Substitution: 1 0 'vert' uni2465.vert
EndChar
StartChar: uni2466
Encoding: 9318 9318 1310
Width: 1024
Flags: W
Fore
34 381 m 0,0,1
 34 578 34 578 173 717.5 c 128,-1,2
 312 857 312 857 510 857 c 0,3,4
 707 857 707 857 846.5 717.5 c 128,-1,5
 986 578 986 578 986 381 c 0,6,7
 986 183 986 183 846.5 44 c 128,-1,8
 707 -95 707 -95 510 -95 c 0,9,10
 312 -95 312 -95 173 44 c 128,-1,11
 34 183 34 183 34 381 c 0,0,1
79 380 m 0,12,13
 79 198 79 198 203.5 74 c 128,-1,14
 328 -50 328 -50 510 -50 c 0,15,16
 691 -50 691 -50 816 74 c 128,-1,17
 941 198 941 198 941 380 c 0,18,19
 941 561 941 561 816 686.5 c 128,-1,20
 691 812 691 812 510 812 c 0,21,22
 328 812 328 812 203.5 686.5 c 128,-1,23
 79 561 79 561 79 380 c 0,12,13
307 695 m 1,24,-1
 728 695 l 1,25,-1
 728 622 l 1,26,-1
 515 42 l 1,27,-1
 426 42 l 1,28,-1
 638 614 l 1,29,-1
 307 614 l 1,30,-1
 307 695 l 1,24,-1
EndSplineSet
Substitution: 1 0 'vert' uni2466.vert
EndChar
StartChar: uni2467
Encoding: 9319 9319 1311
Width: 1024
Flags: W
Fore
34 381 m 0,0,1
 34 578 34 578 173 717.5 c 128,-1,2
 312 857 312 857 510 857 c 0,3,4
 707 857 707 857 846.5 717.5 c 128,-1,5
 986 578 986 578 986 381 c 0,6,7
 986 183 986 183 846.5 44 c 128,-1,8
 707 -95 707 -95 510 -95 c 0,9,10
 312 -95 312 -95 173 44 c 128,-1,11
 34 183 34 183 34 381 c 0,0,1
79 380 m 0,12,13
 79 198 79 198 203.5 74 c 128,-1,14
 328 -50 328 -50 510 -50 c 0,15,16
 691 -50 691 -50 816 74 c 128,-1,17
 941 198 941 198 941 380 c 0,18,19
 941 561 941 561 816 686.5 c 128,-1,20
 691 812 691 812 510 812 c 0,21,22
 328 812 328 812 203.5 686.5 c 128,-1,23
 79 561 79 561 79 380 c 0,12,13
278 230 m 0,24,25
 278 303 278 303 324 338 c 128,-1,26
 370 373 370 373 414 391 c 1,27,28
 369 413 369 413 340 448.5 c 128,-1,29
 311 484 311 484 311 539 c 0,30,31
 311 603 311 603 369.5 652.5 c 128,-1,32
 428 702 428 702 511 702 c 0,33,34
 593 702 593 702 649.5 651.5 c 128,-1,35
 706 601 706 601 706 539 c 0,36,37
 706 484 706 484 679.5 449.5 c 128,-1,38
 653 415 653 415 612 391 c 1,39,40
 651 373 651 373 695 344 c 128,-1,41
 739 315 739 315 739 230 c 0,42,43
 739 149 739 149 678 100 c 128,-1,44
 617 51 617 51 517 51 c 0,45,46
 420 51 420 51 349 98 c 128,-1,47
 278 145 278 145 278 230 c 0,24,25
361 230 m 0,48,49
 361 171 361 171 406.5 147.5 c 128,-1,50
 452 124 452 124 517 124 c 0,51,52
 581 124 581 124 618.5 147.5 c 128,-1,53
 656 171 656 171 656 230 c 0,54,55
 656 285 656 285 617 309.5 c 128,-1,56
 578 334 578 334 505 358 c 1,57,58
 449 342 449 342 405 314 c 128,-1,59
 361 286 361 286 361 230 c 0,48,49
624 539 m 0,60,61
 624 583 624 583 594 606 c 128,-1,62
 564 629 564 629 511 629 c 0,63,64
 459 629 459 629 426.5 607 c 128,-1,65
 394 585 394 585 394 539 c 0,66,67
 394 487 394 487 421 468 c 128,-1,68
 448 449 448 449 535 420 c 1,69,70
 570 434 570 434 597 460.5 c 128,-1,71
 624 487 624 487 624 539 c 0,60,61
EndSplineSet
Substitution: 1 0 'vert' uni2467.vert
EndChar
StartChar: uni2468
Encoding: 9320 9320 1312
Width: 1024
Flags: W
Fore
34 381 m 0,0,1
 34 578 34 578 173 717.5 c 128,-1,2
 312 857 312 857 510 857 c 0,3,4
 707 857 707 857 846.5 717.5 c 128,-1,5
 986 578 986 578 986 381 c 0,6,7
 986 183 986 183 846.5 44 c 128,-1,8
 707 -95 707 -95 510 -95 c 0,9,10
 312 -95 312 -95 173 44 c 128,-1,11
 34 183 34 183 34 381 c 0,0,1
79 380 m 0,12,13
 79 198 79 198 203.5 74 c 128,-1,14
 328 -50 328 -50 510 -50 c 0,15,16
 691 -50 691 -50 816 74 c 128,-1,17
 941 198 941 198 941 380 c 0,18,19
 941 561 941 561 816 686.5 c 128,-1,20
 691 812 691 812 510 812 c 0,21,22
 328 812 328 812 203.5 686.5 c 128,-1,23
 79 561 79 561 79 380 c 0,12,13
498 294 m 0,24,25
 408 294 408 294 343 351.5 c 128,-1,26
 278 409 278 409 278 500 c 0,27,28
 278 570 278 570 343 636 c 128,-1,29
 408 702 408 702 498 702 c 0,30,31
 590 702 590 702 661.5 641 c 128,-1,32
 733 580 733 580 733 377 c 0,33,34
 733 234 733 234 668.5 142.5 c 128,-1,35
 604 51 604 51 498 51 c 0,36,37
 419 51 419 51 359.5 99.5 c 128,-1,38
 300 148 300 148 300 214 c 1,39,-1
 384 214 l 1,40,41
 384 165 384 165 418.5 144.5 c 128,-1,42
 453 124 453 124 498 124 c 0,43,44
 562 124 562 124 604 179.5 c 128,-1,45
 646 235 646 235 650 351 c 1,46,47
 568 294 568 294 498 294 c 0,24,25
498 629 m 0,48,49
 441 629 441 629 401 592.5 c 128,-1,50
 361 556 361 556 361 500 c 0,51,52
 361 436 361 436 396.5 401 c 128,-1,53
 432 366 432 366 498 366 c 0,54,55
 549 366 549 366 589.5 390 c 128,-1,56
 630 414 630 414 646 471 c 1,57,58
 636 568 636 568 594.5 598.5 c 128,-1,59
 553 629 553 629 498 629 c 0,48,49
EndSplineSet
Substitution: 1 0 'vert' uni2468.vert
EndChar
StartChar: uni2469
Encoding: 9321 9321 1313
Width: 1024
Flags: W
Fore
34 381 m 0,0,1
 34 578 34 578 173 717.5 c 128,-1,2
 312 857 312 857 510 857 c 0,3,4
 707 857 707 857 846.5 717.5 c 128,-1,5
 986 578 986 578 986 381 c 0,6,7
 986 183 986 183 846.5 44 c 128,-1,8
 707 -95 707 -95 510 -95 c 0,9,10
 312 -95 312 -95 173 44 c 128,-1,11
 34 183 34 183 34 381 c 0,0,1
79 380 m 0,12,13
 79 198 79 198 203.5 74 c 128,-1,14
 328 -50 328 -50 510 -50 c 0,15,16
 691 -50 691 -50 816 74 c 128,-1,17
 941 198 941 198 941 380 c 0,18,19
 941 561 941 561 816 686.5 c 128,-1,20
 691 812 691 812 510 812 c 0,21,22
 328 812 328 812 203.5 686.5 c 128,-1,23
 79 561 79 561 79 380 c 0,12,13
369 50 m 1,24,-1
 299 50 l 1,25,-1
 299 569 l 2,26,27
 299 597 299 597 267 597 c 2,28,-1
 207 597 l 1,29,-1
 207 648 l 1,30,31
 312 654 312 654 331 714 c 1,32,-1
 369 714 l 1,33,-1
 369 658 l 1,34,-1
 369 50 l 1,24,-1
470 377 m 0,35,36
 470 512 470 512 526.5 607 c 128,-1,37
 583 702 583 702 658 702 c 0,38,39
 733 702 733 702 789.5 607 c 128,-1,40
 846 512 846 512 846 377 c 0,41,42
 846 241 846 241 789.5 146 c 128,-1,43
 733 51 733 51 658 51 c 0,44,45
 583 51 583 51 526.5 146 c 128,-1,46
 470 241 470 241 470 377 c 0,35,36
547 377 m 0,47,48
 547 251 547 251 582.5 187.5 c 128,-1,49
 618 124 618 124 658 124 c 0,50,51
 698 124 698 124 733.5 187.5 c 128,-1,52
 769 251 769 251 769 377 c 0,53,54
 769 506 769 506 733.5 567.5 c 128,-1,55
 698 629 698 629 658 629 c 0,56,57
 618 629 618 629 582.5 567.5 c 128,-1,58
 547 506 547 506 547 377 c 0,47,48
EndSplineSet
Substitution: 1 0 'vert' uni2469.vert
EndChar
StartChar: uni246A
Encoding: 9322 9322 1314
Width: 1024
Flags: W
Fore
377 50 m 1,0,-1
 307 50 l 1,1,-1
 307 569 l 2,2,3
 307 597 307 597 275 597 c 2,4,-1
 215 597 l 1,5,-1
 215 648 l 1,6,7
 320 654 320 654 339 714 c 1,8,-1
 377 714 l 1,9,-1
 377 658 l 1,10,-1
 377 50 l 1,0,-1
733 50 m 1,11,-1
 663 50 l 1,12,-1
 663 569 l 2,13,14
 663 597 663 597 631 597 c 2,15,-1
 571 597 l 1,16,-1
 571 648 l 1,17,18
 676 654 676 654 695 714 c 1,19,-1
 733 714 l 1,20,-1
 733 658 l 1,21,-1
 733 50 l 1,11,-1
34 381 m 0,22,23
 34 578 34 578 173 717.5 c 128,-1,24
 312 857 312 857 510 857 c 0,25,26
 707 857 707 857 846.5 717.5 c 128,-1,27
 986 578 986 578 986 381 c 0,28,29
 986 183 986 183 846.5 44 c 128,-1,30
 707 -95 707 -95 510 -95 c 0,31,32
 312 -95 312 -95 173 44 c 128,-1,33
 34 183 34 183 34 381 c 0,22,23
79 380 m 0,34,35
 79 198 79 198 203.5 74 c 128,-1,36
 328 -50 328 -50 510 -50 c 0,37,38
 691 -50 691 -50 816 74 c 128,-1,39
 941 198 941 198 941 380 c 0,40,41
 941 561 941 561 816 686.5 c 128,-1,42
 691 812 691 812 510 812 c 0,43,44
 328 812 328 812 203.5 686.5 c 128,-1,45
 79 561 79 561 79 380 c 0,34,35
EndSplineSet
Substitution: 1 0 'vert' uni246A.vert
EndChar
StartChar: uni246B
Encoding: 9323 9323 1315
Width: 1024
Flags: W
Fore
34 381 m 0,0,1
 34 578 34 578 173 717.5 c 128,-1,2
 312 857 312 857 510 857 c 0,3,4
 707 857 707 857 846.5 717.5 c 128,-1,5
 986 578 986 578 986 381 c 0,6,7
 986 183 986 183 846.5 44 c 128,-1,8
 707 -95 707 -95 510 -95 c 0,9,10
 312 -95 312 -95 173 44 c 128,-1,11
 34 183 34 183 34 381 c 0,0,1
79 380 m 0,12,13
 79 198 79 198 203.5 74 c 128,-1,14
 328 -50 328 -50 510 -50 c 0,15,16
 691 -50 691 -50 816 74 c 128,-1,17
 941 198 941 198 941 380 c 0,18,19
 941 561 941 561 816 686.5 c 128,-1,20
 691 812 691 812 510 812 c 0,21,22
 328 812 328 812 203.5 686.5 c 128,-1,23
 79 561 79 561 79 380 c 0,12,13
361 50 m 1,24,-1
 291 50 l 1,25,-1
 291 569 l 2,26,27
 291 597 291 597 259 597 c 2,28,-1
 199 597 l 1,29,-1
 199 648 l 1,30,31
 304 654 304 654 323 714 c 1,32,-1
 361 714 l 1,33,-1
 361 658 l 1,34,-1
 361 50 l 1,24,-1
658 702 m 0,35,36
 727 702 727 702 778.5 656.5 c 128,-1,37
 830 611 830 611 830 530 c 0,38,39
 830 451 830 451 728 338 c 2,40,-1
 547 138 l 1,41,-1
 804 138 l 1,42,-1
 792 57 l 1,43,-1
 470 57 l 1,44,-1
 470 149 l 1,45,-1
 652 354 l 1,46,47
 753 465 753 465 753 531 c 0,48,49
 753 581 753 581 728 605 c 128,-1,50
 703 629 703 629 658 629 c 0,51,52
 613 629 613 629 581 605 c 128,-1,53
 549 581 549 581 549 519 c 1,54,-1
 477 519 l 1,55,56
 477 610 477 610 532.5 656 c 128,-1,57
 588 702 588 702 658 702 c 0,35,36
EndSplineSet
Substitution: 1 0 'vert' uni246B.vert
EndChar
StartChar: uni246C
Encoding: 9324 9324 1316
Width: 1024
Flags: W
Fore
34 381 m 0,0,1
 34 578 34 578 173 717.5 c 128,-1,2
 312 857 312 857 510 857 c 0,3,4
 707 857 707 857 846.5 717.5 c 128,-1,5
 986 578 986 578 986 381 c 0,6,7
 986 183 986 183 846.5 44 c 128,-1,8
 707 -95 707 -95 510 -95 c 0,9,10
 312 -95 312 -95 173 44 c 128,-1,11
 34 183 34 183 34 381 c 0,0,1
79 380 m 0,12,13
 79 198 79 198 203.5 74 c 128,-1,14
 328 -50 328 -50 510 -50 c 0,15,16
 691 -50 691 -50 816 74 c 128,-1,17
 941 198 941 198 941 380 c 0,18,19
 941 561 941 561 816 686.5 c 128,-1,20
 691 812 691 812 510 812 c 0,21,22
 328 812 328 812 203.5 686.5 c 128,-1,23
 79 561 79 561 79 380 c 0,12,13
361 50 m 1,24,-1
 291 50 l 1,25,-1
 291 569 l 2,26,27
 291 597 291 597 259 597 c 2,28,-1
 199 597 l 1,29,-1
 199 648 l 1,30,31
 304 654 304 654 323 714 c 1,32,-1
 361 714 l 1,33,-1
 361 658 l 1,34,-1
 361 50 l 1,24,-1
634 702 m 0,35,36
 718 702 718 702 771 655 c 128,-1,37
 824 608 824 608 824 533 c 0,38,39
 824 491 824 491 787.5 450.5 c 128,-1,40
 751 410 751 410 704 399 c 1,41,42
 759 390 759 390 806.5 349 c 128,-1,43
 854 308 854 308 854 230 c 0,44,45
 854 156 854 156 799 103.5 c 128,-1,46
 744 51 744 51 650 51 c 0,47,48
 559 51 559 51 501 96 c 128,-1,49
 443 141 443 141 443 230 c 1,50,-1
 515 230 l 1,51,52
 515 162 515 162 553.5 143 c 128,-1,53
 592 124 592 124 650 124 c 0,54,55
 706 124 706 124 742.5 151.5 c 128,-1,56
 779 179 779 179 779 229 c 0,57,58
 779 306 779 306 715 337 c 128,-1,59
 651 368 651 368 576 368 c 1,60,-1
 576 426 l 1,61,62
 652 426 652 426 700.5 460.5 c 128,-1,63
 749 495 749 495 749 534 c 0,64,65
 749 582 749 582 720.5 605.5 c 128,-1,66
 692 629 692 629 634 629 c 0,67,68
 591 629 591 629 561 612 c 128,-1,69
 531 595 531 595 531 527 c 1,70,-1
 460 527 l 1,71,72
 460 611 460 611 513 656.5 c 128,-1,73
 566 702 566 702 634 702 c 0,35,36
634 702 m 0,74,75
 718 702 718 702 771 655 c 128,-1,76
 824 608 824 608 824 533 c 0,77,78
 824 491 824 491 787.5 450.5 c 128,-1,79
 751 410 751 410 704 399 c 1,80,81
 759 390 759 390 806.5 349 c 128,-1,82
 854 308 854 308 854 230 c 0,83,84
 854 156 854 156 799 103.5 c 128,-1,85
 744 51 744 51 650 51 c 0,86,87
 559 51 559 51 501 96 c 128,-1,88
 443 141 443 141 443 230 c 1,89,-1
 515 230 l 1,90,91
 515 162 515 162 553.5 143 c 128,-1,92
 592 124 592 124 650 124 c 0,93,94
 706 124 706 124 742.5 151.5 c 128,-1,95
 779 179 779 179 779 229 c 0,96,97
 779 306 779 306 715 337 c 128,-1,98
 651 368 651 368 576 368 c 1,99,-1
 576 426 l 1,100,101
 652 426 652 426 700.5 460.5 c 128,-1,102
 749 495 749 495 749 534 c 0,103,104
 749 582 749 582 720.5 605.5 c 128,-1,105
 692 629 692 629 634 629 c 0,106,107
 591 629 591 629 561 612 c 128,-1,108
 531 595 531 595 531 527 c 1,109,-1
 460 527 l 1,110,111
 460 611 460 611 513 656.5 c 128,-1,112
 566 702 566 702 634 702 c 0,74,75
EndSplineSet
Substitution: 1 0 'vert' uni246C.vert
EndChar
StartChar: uni246D
Encoding: 9325 9325 1317
Width: 1024
Flags: W
Fore
34 381 m 0,0,1
 34 578 34 578 173 717.5 c 128,-1,2
 312 857 312 857 510 857 c 0,3,4
 707 857 707 857 846.5 717.5 c 128,-1,5
 986 578 986 578 986 381 c 0,6,7
 986 183 986 183 846.5 44 c 128,-1,8
 707 -95 707 -95 510 -95 c 0,9,10
 312 -95 312 -95 173 44 c 128,-1,11
 34 183 34 183 34 381 c 0,0,1
79 380 m 0,12,13
 79 198 79 198 203.5 74 c 128,-1,14
 328 -50 328 -50 510 -50 c 0,15,16
 691 -50 691 -50 816 74 c 128,-1,17
 941 198 941 198 941 380 c 0,18,19
 941 561 941 561 816 686.5 c 128,-1,20
 691 812 691 812 510 812 c 0,21,22
 328 812 328 812 203.5 686.5 c 128,-1,23
 79 561 79 561 79 380 c 0,12,13
361 50 m 1,24,-1
 291 50 l 1,25,-1
 291 569 l 2,26,27
 291 597 291 597 259 597 c 2,28,-1
 199 597 l 1,29,-1
 199 648 l 1,30,31
 304 654 304 654 323 714 c 1,32,-1
 361 714 l 1,33,-1
 361 658 l 1,34,-1
 361 50 l 1,24,-1
738 50 m 1,35,-1
 669 50 l 1,36,-1
 669 205 l 1,37,-1
 398 205 l 1,38,-1
 398 246 l 1,39,-1
 679 714 l 1,40,-1
 738 714 l 1,41,-1
 738 286 l 1,42,-1
 822 286 l 1,43,-1
 822 205 l 1,44,-1
 738 205 l 1,45,-1
 738 50 l 1,35,-1
669 569 m 1,46,-1
 498 286 l 1,47,-1
 669 286 l 1,48,-1
 669 569 l 1,46,-1
EndSplineSet
Substitution: 1 0 'vert' uni246D.vert
EndChar
StartChar: uni246E
Encoding: 9326 9326 1318
Width: 1024
Flags: W
Fore
34 381 m 0,0,1
 34 578 34 578 173 717.5 c 128,-1,2
 312 857 312 857 510 857 c 0,3,4
 707 857 707 857 846.5 717.5 c 128,-1,5
 986 578 986 578 986 381 c 0,6,7
 986 183 986 183 846.5 44 c 128,-1,8
 707 -95 707 -95 510 -95 c 0,9,10
 312 -95 312 -95 173 44 c 128,-1,11
 34 183 34 183 34 381 c 0,0,1
79 380 m 0,12,13
 79 198 79 198 203.5 74 c 128,-1,14
 328 -50 328 -50 510 -50 c 0,15,16
 691 -50 691 -50 816 74 c 128,-1,17
 941 198 941 198 941 380 c 0,18,19
 941 561 941 561 816 686.5 c 128,-1,20
 691 812 691 812 510 812 c 0,21,22
 328 812 328 812 203.5 686.5 c 128,-1,23
 79 561 79 561 79 380 c 0,12,13
361 50 m 1,24,-1
 291 50 l 1,25,-1
 291 569 l 2,26,27
 291 597 291 597 259 597 c 2,28,-1
 199 597 l 1,29,-1
 199 648 l 1,30,31
 304 654 304 654 323 714 c 1,32,-1
 361 714 l 1,33,-1
 361 658 l 1,34,-1
 361 50 l 1,24,-1
659 467 m 0,35,36
 730 467 730 467 791.5 411.5 c 128,-1,37
 853 356 853 356 853 268 c 0,38,39
 853 176 853 176 794.5 113.5 c 128,-1,40
 736 51 736 51 653 51 c 0,41,42
 565 51 565 51 504.5 102.5 c 128,-1,43
 444 154 444 154 444 220 c 1,44,-1
 524 220 l 1,45,46
 524 174 524 174 565 149 c 128,-1,47
 606 124 606 124 653 124 c 0,48,49
 713 124 713 124 745.5 163.5 c 128,-1,50
 778 203 778 203 778 268 c 0,51,52
 778 324 778 324 743.5 359 c 128,-1,53
 709 394 709 394 659 394 c 0,54,55
 618 394 618 394 588.5 385 c 128,-1,56
 559 376 559 376 536 344 c 1,57,-1
 469 344 l 1,58,-1
 491 696 l 1,59,-1
 794 696 l 1,60,-1
 777 615 l 1,61,-1
 552 615 l 1,62,-1
 541 435 l 1,63,64
 608 467 608 467 659 467 c 0,35,36
EndSplineSet
Substitution: 1 0 'vert' uni246E.vert
EndChar
StartChar: uni246F
Encoding: 9327 9327 1319
Width: 1024
Flags: W
Fore
34 381 m 0,0,1
 34 578 34 578 173 717.5 c 128,-1,2
 312 857 312 857 510 857 c 0,3,4
 707 857 707 857 846.5 717.5 c 128,-1,5
 986 578 986 578 986 381 c 0,6,7
 986 183 986 183 846.5 44 c 128,-1,8
 707 -95 707 -95 510 -95 c 0,9,10
 312 -95 312 -95 173 44 c 128,-1,11
 34 183 34 183 34 381 c 0,0,1
79 380 m 0,12,13
 79 198 79 198 203.5 74 c 128,-1,14
 328 -50 328 -50 510 -50 c 0,15,16
 691 -50 691 -50 816 74 c 128,-1,17
 941 198 941 198 941 380 c 0,18,19
 941 561 941 561 816 686.5 c 128,-1,20
 691 812 691 812 510 812 c 0,21,22
 328 812 328 812 203.5 686.5 c 128,-1,23
 79 561 79 561 79 380 c 0,12,13
361 50 m 1,24,-1
 291 50 l 1,25,-1
 291 569 l 2,26,27
 291 597 291 597 259 597 c 2,28,-1
 199 597 l 1,29,-1
 199 648 l 1,30,31
 304 654 304 654 323 714 c 1,32,-1
 361 714 l 1,33,-1
 361 658 l 1,34,-1
 361 50 l 1,24,-1
654 459 m 0,35,36
 732 459 732 459 788.5 399.5 c 128,-1,37
 845 340 845 340 845 253 c 0,38,39
 845 179 845 179 788.5 115 c 128,-1,40
 732 51 732 51 642 51 c 0,41,42
 570 51 570 51 508.5 112 c 128,-1,43
 447 173 447 173 447 376 c 0,44,45
 447 519 447 519 497.5 610.5 c 128,-1,46
 548 702 548 702 642 702 c 0,47,48
 713 702 713 702 766.5 653.5 c 128,-1,49
 820 605 820 605 820 539 c 1,50,-1
 744 539 l 1,51,52
 744 588 744 588 711.5 608.5 c 128,-1,53
 679 629 679 629 642 629 c 0,54,55
 590 629 590 629 558 574 c 128,-1,56
 526 519 526 519 522 408 c 1,57,58
 588 459 588 459 654 459 c 0,35,36
642 124 m 0,59,60
 699 124 699 124 734.5 158.5 c 128,-1,61
 770 193 770 193 770 253 c 0,62,63
 770 313 770 313 739 350 c 128,-1,64
 708 387 708 387 654 387 c 0,65,66
 607 387 607 387 574 363 c 128,-1,67
 541 339 541 339 526 281 c 1,68,69
 535 185 535 185 571 154.5 c 128,-1,70
 607 124 607 124 642 124 c 0,59,60
EndSplineSet
Substitution: 1 0 'vert' uni246F.vert
EndChar
StartChar: uni2470
Encoding: 9328 9328 1320
Width: 1024
Flags: W
Fore
472 695 m 1,0,-1
 800 695 l 1,1,-1
 800 622 l 1,2,-1
 616 42 l 1,3,-1
 535 42 l 1,4,-1
 718 615 l 1,5,-1
 472 615 l 1,6,-1
 472 695 l 1,0,-1
34 381 m 0,7,8
 34 578 34 578 173 717.5 c 128,-1,9
 312 857 312 857 510 857 c 0,10,11
 707 857 707 857 846.5 717.5 c 128,-1,12
 986 578 986 578 986 381 c 0,13,14
 986 183 986 183 846.5 44 c 128,-1,15
 707 -95 707 -95 510 -95 c 0,16,17
 312 -95 312 -95 173 44 c 128,-1,18
 34 183 34 183 34 381 c 0,7,8
79 380 m 0,19,20
 79 198 79 198 203.5 74 c 128,-1,21
 328 -50 328 -50 510 -50 c 0,22,23
 691 -50 691 -50 816 74 c 128,-1,24
 941 198 941 198 941 380 c 0,25,26
 941 561 941 561 816 686.5 c 128,-1,27
 691 812 691 812 510 812 c 0,28,29
 328 812 328 812 203.5 686.5 c 128,-1,30
 79 561 79 561 79 380 c 0,19,20
361 50 m 1,31,-1
 291 50 l 1,32,-1
 291 569 l 2,33,34
 291 597 291 597 259 597 c 2,35,-1
 199 597 l 1,36,-1
 199 648 l 1,37,38
 304 654 304 654 323 714 c 1,39,-1
 361 714 l 1,40,-1
 361 658 l 1,41,-1
 361 50 l 1,31,-1
EndSplineSet
Substitution: 1 0 'vert' uni2470.vert
EndChar
StartChar: uni2471
Encoding: 9329 9329 1321
Width: 1024
Flags: W
Fore
448 234 m 2,0,1
 448 297 448 297 489 343 c 0,2,3
 513 370 513 370 573 397 c 1,4,5
 526 419 526 419 503 452 c 0,6,7
 479 486 479 486 479 542 c 2,8,-1
 479 543 l 2,9,10
 479 601 479 601 529 656 c 0,11,12
 564 693 564 693 624 704 c 1,13,-1
 650 706 l 1,14,15
 721 706 721 706 769 656 c 0,16,17
 816 607 816 607 816 544 c 2,18,-1
 816 543 l 2,19,20
 816 489 816 489 793 455 c 0,21,22
 772 422 772 422 735 396 c 1,23,24
 788 367 788 367 807 349 c 0,25,26
 847 312 847 312 847 235 c 2,27,-1
 847 234 l 2,28,29
 847 155 847 155 793 104 c 0,30,31
 743 55 743 55 655 55 c 0,32,33
 571 55 571 55 510 102 c 0,34,35
 448 150 448 150 448 233 c 2,36,-1
 448 234 l 2,0,1
523 238 m 2,37,38
 523 178 523 178 561 156 c 0,39,40
 600 132 600 132 655 132 c 0,41,42
 708 132 708 132 741 156 c 0,43,44
 772 178 772 178 772 237 c 2,45,-1
 772 238 l 2,46,47
 772 292 772 292 737 319 c 1,48,49
 703 343 703 343 643 367 c 1,50,51
 592 349 592 349 560 323 c 0,52,53
 523 293 523 293 523 239 c 2,54,-1
 523 238 l 2,37,38
745 543 m 2,55,56
 745 588 745 588 720 610 c 0,57,58
 692 635 692 635 650 635 c 0,59,60
 607 635 607 635 578 611 c 0,61,62
 551 589 551 589 551 544 c 2,63,-1
 551 543 l 2,64,65
 551 492 551 492 573 473 c 0,66,67
 616 438 616 438 667 426 c 1,68,69
 699 441 699 441 721 465 c 0,70,71
 745 492 745 492 745 542 c 2,72,-1
 745 543 l 2,55,56
34 381 m 0,73,74
 34 578 34 578 173 717.5 c 128,-1,75
 312 857 312 857 510 857 c 0,76,77
 707 857 707 857 846.5 717.5 c 128,-1,78
 986 578 986 578 986 381 c 0,79,80
 986 183 986 183 846.5 44 c 128,-1,81
 707 -95 707 -95 510 -95 c 0,82,83
 312 -95 312 -95 173 44 c 128,-1,84
 34 183 34 183 34 381 c 0,73,74
79 380 m 0,85,86
 79 198 79 198 203.5 74 c 128,-1,87
 328 -50 328 -50 510 -50 c 0,88,89
 691 -50 691 -50 816 74 c 128,-1,90
 941 198 941 198 941 380 c 0,91,92
 941 561 941 561 816 686.5 c 128,-1,93
 691 812 691 812 510 812 c 0,94,95
 328 812 328 812 203.5 686.5 c 128,-1,96
 79 561 79 561 79 380 c 0,85,86
361 50 m 1,97,-1
 291 50 l 1,98,-1
 291 569 l 2,99,100
 291 597 291 597 259 597 c 2,101,-1
 199 597 l 1,102,-1
 199 648 l 1,103,104
 304 654 304 654 323 714 c 1,105,-1
 361 714 l 1,106,-1
 361 658 l 1,107,-1
 361 50 l 1,97,-1
EndSplineSet
Substitution: 1 0 'vert' uni2471.vert
EndChar
StartChar: uni2472
Encoding: 9330 9330 1322
Width: 1024
Flags: W
Fore
34 381 m 0,0,1
 34 578 34 578 173 717.5 c 128,-1,2
 312 857 312 857 510 857 c 0,3,4
 707 857 707 857 846.5 717.5 c 128,-1,5
 986 578 986 578 986 381 c 0,6,7
 986 183 986 183 846.5 44 c 128,-1,8
 707 -95 707 -95 510 -95 c 0,9,10
 312 -95 312 -95 173 44 c 128,-1,11
 34 183 34 183 34 381 c 0,0,1
79 380 m 0,12,13
 79 198 79 198 203.5 74 c 128,-1,14
 328 -50 328 -50 510 -50 c 0,15,16
 691 -50 691 -50 816 74 c 128,-1,17
 941 198 941 198 941 380 c 0,18,19
 941 561 941 561 816 686.5 c 128,-1,20
 691 812 691 812 510 812 c 0,21,22
 328 812 328 812 203.5 686.5 c 128,-1,23
 79 561 79 561 79 380 c 0,12,13
361 50 m 1,24,-1
 291 50 l 1,25,-1
 291 569 l 2,26,27
 291 597 291 597 259 597 c 2,28,-1
 199 597 l 1,29,-1
 199 648 l 1,30,31
 304 654 304 654 323 714 c 1,32,-1
 361 714 l 1,33,-1
 361 658 l 1,34,-1
 361 50 l 1,24,-1
638 293 m 0,35,36
 560 293 560 293 503.5 352.5 c 128,-1,37
 447 412 447 412 447 499 c 0,38,39
 447 573 447 573 503.5 637 c 128,-1,40
 560 701 560 701 650 701 c 0,41,42
 722 701 722 701 783.5 640 c 128,-1,43
 845 579 845 579 845 376 c 0,44,45
 845 233 845 233 794.5 141.5 c 128,-1,46
 744 50 744 50 650 50 c 0,47,48
 579 50 579 50 525.5 98.5 c 128,-1,49
 472 147 472 147 472 213 c 1,50,-1
 548 213 l 1,51,52
 548 164 548 164 580.5 143.5 c 128,-1,53
 613 123 613 123 650 123 c 0,54,55
 702 123 702 123 734 178 c 128,-1,56
 766 233 766 233 770 344 c 1,57,58
 704 293 704 293 638 293 c 0,35,36
650 628 m 0,59,60
 593 628 593 628 557.5 593.5 c 128,-1,61
 522 559 522 559 522 499 c 0,62,63
 522 439 522 439 553 402 c 128,-1,64
 584 365 584 365 638 365 c 0,65,66
 685 365 685 365 718 389 c 128,-1,67
 751 413 751 413 766 471 c 1,68,69
 757 567 757 567 721 597.5 c 128,-1,70
 685 628 685 628 650 628 c 0,59,60
EndSplineSet
Substitution: 1 0 'vert' uni2472.vert
EndChar
StartChar: uni2473
Encoding: 9331 9331 1323
Width: 1024
Flags: W
Fore
34 381 m 0,0,1
 34 578 34 578 173 717.5 c 128,-1,2
 312 857 312 857 510 857 c 0,3,4
 707 857 707 857 846.5 717.5 c 128,-1,5
 986 578 986 578 986 381 c 0,6,7
 986 183 986 183 846.5 44 c 128,-1,8
 707 -95 707 -95 510 -95 c 0,9,10
 312 -95 312 -95 173 44 c 128,-1,11
 34 183 34 183 34 381 c 0,0,1
79 380 m 0,12,13
 79 199 79 199 202 76 c 1,14,-1
 202 149 l 1,15,-1
 346 354 l 1,16,17
 427 465 427 465 427 531 c 0,18,19
 427 581 427 581 407 605 c 128,-1,20
 387 629 387 629 342 629 c 0,21,22
 309 629 309 629 285 605 c 128,-1,23
 261 581 261 581 261 519 c 1,24,-1
 189 519 l 1,25,26
 189 606 189 606 240.5 654 c 128,-1,27
 292 702 292 702 342 702 c 0,28,29
 407 702 407 702 453.5 656.5 c 128,-1,30
 500 611 500 611 500 530 c 0,31,32
 500 451 500 451 418 338 c 1,33,-1
 277 138 l 1,34,-1
 476 138 l 1,35,-1
 464 57 l 1,36,-1
 222 57 l 1,37,38
 341 -50 341 -50 510 -50 c 0,39,40
 691 -50 691 -50 816 74 c 128,-1,41
 941 198 941 198 941 380 c 0,42,43
 941 561 941 561 816 686.5 c 128,-1,44
 691 812 691 812 510 812 c 0,45,46
 328 812 328 812 203.5 686.5 c 128,-1,47
 79 561 79 561 79 380 c 0,12,13
522 377 m 0,48,49
 522 512 522 512 572.5 607 c 128,-1,50
 623 702 623 702 694 702 c 0,51,52
 765 702 765 702 815.5 607 c 128,-1,53
 866 512 866 512 866 377 c 0,54,55
 866 241 866 241 815.5 146 c 128,-1,56
 765 51 765 51 694 51 c 0,57,58
 623 51 623 51 572.5 146 c 128,-1,59
 522 241 522 241 522 377 c 0,48,49
599 377 m 0,60,61
 599 251 599 251 628.5 187.5 c 128,-1,62
 658 124 658 124 694 124 c 0,63,64
 730 124 730 124 759.5 187.5 c 128,-1,65
 789 251 789 251 789 377 c 0,66,67
 789 506 789 506 759.5 567.5 c 128,-1,68
 730 629 730 629 694 629 c 0,69,70
 658 629 658 629 628.5 567.5 c 128,-1,71
 599 506 599 506 599 377 c 0,60,61
EndSplineSet
Substitution: 1 0 'vert' uni2473.vert
EndChar
StartChar: SF100000
Encoding: 9472 9472 1443
Width: 1024
Flags: W
Fore
0 367 m 1,0,-1
 0 414 l 1,1,-1
 1024 414 l 1,2,-1
 1024 367 l 1,3,-1
 0 367 l 1,0,-1
EndSplineSet
Substitution: 1 0 'vert' SF100000.vert
EndChar
StartChar: uni2501
Encoding: 9473 9473 1444
Width: 1024
Flags: W
Fore
0 348 m 1,0,-1
 0 433 l 1,1,-1
 1024 433 l 1,2,-1
 1024 348 l 1,3,-1
 0 348 l 1,0,-1
EndSplineSet
Substitution: 1 0 'vert' uni2501.vert
EndChar
StartChar: SF110000
Encoding: 9474 9474 1445
Width: 1024
Flags: W
Fore
535 -144 m 1,0,-1
 487 -144 l 1,1,-1
 487 880 l 1,2,-1
 535 880 l 1,3,-1
 535 -144 l 1,0,-1
EndSplineSet
Substitution: 1 0 'vert' SF110000.vert
EndChar
StartChar: uni2503
Encoding: 9475 9475 1446
Width: 1024
Flags: W
Fore
554 -144 m 1,0,-1
 468 -144 l 1,1,-1
 468 880 l 1,2,-1
 554 880 l 1,3,-1
 554 -144 l 1,0,-1
EndSplineSet
Substitution: 1 0 'vert' uni2503.vert
EndChar
StartChar: SF010000
Encoding: 9484 9484 1455
Width: 1024
Flags: W
Fore
535 -144 m 1,0,-1
 487 -144 l 1,1,-1
 487 412 l 1,2,-1
 1024 412 l 1,3,-1
 1024 367 l 1,4,-1
 535 367 l 1,5,-1
 535 -144 l 1,0,-1
EndSplineSet
Substitution: 1 0 'vert' SF010000.vert
EndChar
StartChar: uni250F
Encoding: 9487 9487 1458
Width: 1024
Flags: W
Fore
554 -144 m 1,0,-1
 468 -144 l 1,1,-1
 468 433 l 1,2,-1
 1024 433 l 1,3,-1
 1024 348 l 1,4,-1
 554 348 l 1,5,-1
 554 -144 l 1,0,-1
EndSplineSet
Substitution: 1 0 'vert' uni250F.vert
EndChar
StartChar: SF030000
Encoding: 9488 9488 1459
Width: 1024
Flags: W
Fore
0 367 m 1,0,-1
 0 414 l 1,1,-1
 535 414 l 1,2,-1
 535 -144 l 1,3,-1
 487 -144 l 1,4,-1
 487 367 l 1,5,-1
 0 367 l 1,0,-1
EndSplineSet
Substitution: 1 0 'vert' SF030000.vert
EndChar
StartChar: uni2513
Encoding: 9491 9491 1462
Width: 1024
Flags: W
Fore
0 348 m 1,0,-1
 0 433 l 1,1,-1
 554 433 l 1,2,-1
 554 -144 l 1,3,-1
 468 -144 l 1,4,-1
 468 348 l 1,5,-1
 0 348 l 1,0,-1
EndSplineSet
Substitution: 1 0 'vert' uni2513.vert
EndChar
StartChar: SF020000
Encoding: 9492 9492 1463
Width: 1024
Flags: W
Fore
1024 414 m 1,0,-1
 1024 367 l 1,1,-1
 487 367 l 1,2,-1
 487 880 l 1,3,-1
 535 880 l 1,4,-1
 535 414 l 1,5,-1
 1024 414 l 1,0,-1
EndSplineSet
Substitution: 1 0 'vert' SF020000.vert
EndChar
StartChar: uni2517
Encoding: 9495 9495 1466
Width: 1024
Flags: W
Fore
468 348 m 1,0,-1
 468 880 l 1,1,-1
 554 880 l 1,2,-1
 554 433 l 1,3,-1
 1024 433 l 1,4,-1
 1024 348 l 1,5,-1
 468 348 l 1,0,-1
EndSplineSet
Substitution: 1 0 'vert' uni2517.vert
EndChar
StartChar: SF040000
Encoding: 9496 9496 1467
Width: 1024
Flags: W
Fore
0 367 m 1,0,-1
 0 414 l 1,1,-1
 487 414 l 1,2,-1
 487 880 l 1,3,-1
 535 880 l 1,4,-1
 535 367 l 1,5,-1
 0 367 l 1,0,-1
EndSplineSet
Substitution: 1 0 'vert' SF040000.vert
EndChar
StartChar: uni251B
Encoding: 9499 9499 1470
Width: 1024
Flags: W
Fore
0 348 m 1,0,-1
 0 433 l 1,1,-1
 468 433 l 1,2,-1
 468 880 l 1,3,-1
 554 880 l 1,4,-1
 554 348 l 1,5,-1
 0 348 l 1,0,-1
EndSplineSet
Substitution: 1 0 'vert' uni251B.vert
EndChar
StartChar: SF080000
Encoding: 9500 9500 1471
Width: 1024
Flags: W
Fore
1024 367 m 1,0,-1
 535 367 l 1,1,-1
 535 -144 l 1,2,-1
 487 -144 l 1,3,-1
 487 880 l 1,4,-1
 535 880 l 1,5,-1
 535 414 l 1,6,-1
 1024 414 l 1,7,-1
 1024 367 l 1,0,-1
EndSplineSet
Substitution: 1 0 'vert' SF080000.vert
EndChar
StartChar: uni251D
Encoding: 9501 9501 1472
Width: 1024
Flags: W
Fore
535 -144 m 1,0,-1
 487 -144 l 1,1,-1
 487 880 l 1,2,-1
 535 880 l 1,3,-1
 535 433 l 1,4,-1
 1024 433 l 1,5,-1
 1024 348 l 1,6,-1
 535 348 l 1,7,-1
 535 -144 l 1,0,-1
EndSplineSet
Substitution: 1 0 'vert' uni251D.vert
EndChar
StartChar: uni2520
Encoding: 9504 9504 1475
Width: 1024
Flags: W
Fore
554 -144 m 1,0,-1
 468 -144 l 1,1,-1
 468 880 l 1,2,-1
 554 880 l 1,3,-1
 554 414 l 1,4,-1
 1024 414 l 1,5,-1
 1024 367 l 1,6,-1
 554 367 l 1,7,-1
 554 -144 l 1,0,-1
EndSplineSet
Substitution: 1 0 'vert' uni2520.vert
EndChar
StartChar: uni2523
Encoding: 9507 9507 1478
Width: 1024
Flags: W
Fore
554 -144 m 1,0,-1
 468 -144 l 1,1,-1
 468 880 l 1,2,-1
 554 880 l 1,3,-1
 554 433 l 1,4,-1
 1024 433 l 1,5,-1
 1024 348 l 1,6,-1
 554 348 l 1,7,-1
 554 -144 l 1,0,-1
EndSplineSet
Substitution: 1 0 'vert' uni2523.vert
EndChar
StartChar: SF090000
Encoding: 9508 9508 1479
Width: 1024
Flags: W
Fore
0 367 m 1,0,-1
 0 414 l 1,1,-1
 487 414 l 1,2,-1
 487 880 l 1,3,-1
 535 880 l 1,4,-1
 535 -144 l 1,5,-1
 487 -144 l 1,6,-1
 487 367 l 1,7,-1
 0 367 l 1,0,-1
EndSplineSet
Substitution: 1 0 'vert' SF090000.vert
EndChar
StartChar: uni2525
Encoding: 9509 9509 1480
Width: 1024
Flags: W
Fore
0 348 m 1,0,-1
 0 433 l 1,1,-1
 487 433 l 1,2,-1
 487 880 l 1,3,-1
 535 880 l 1,4,-1
 535 -144 l 1,5,-1
 487 -144 l 1,6,-1
 487 348 l 1,7,-1
 0 348 l 1,0,-1
EndSplineSet
Substitution: 1 0 'vert' uni2525.vert
EndChar
StartChar: uni2528
Encoding: 9512 9512 1483
Width: 1024
Flags: W
Fore
0 367 m 1,0,-1
 0 414 l 1,1,-1
 468 414 l 1,2,-1
 468 880 l 1,3,-1
 554 880 l 1,4,-1
 554 -144 l 1,5,-1
 468 -144 l 1,6,-1
 468 367 l 1,7,-1
 0 367 l 1,0,-1
EndSplineSet
Substitution: 1 0 'vert' uni2528.vert
EndChar
StartChar: uni252B
Encoding: 9515 9515 1486
Width: 1024
Flags: W
Fore
0 348 m 1,0,-1
 0 433 l 1,1,-1
 468 433 l 1,2,-1
 468 880 l 1,3,-1
 554 880 l 1,4,-1
 554 -144 l 1,5,-1
 468 -144 l 1,6,-1
 468 348 l 1,7,-1
 0 348 l 1,0,-1
EndSplineSet
Substitution: 1 0 'vert' uni252B.vert
EndChar
StartChar: SF060000
Encoding: 9516 9516 1487
Width: 1024
Flags: W
Fore
0 367 m 1,0,-1
 0 414 l 1,1,-1
 1024 414 l 1,2,-1
 1024 367 l 1,3,-1
 535 367 l 1,4,-1
 535 -144 l 1,5,-1
 487 -144 l 1,6,-1
 487 367 l 1,7,-1
 0 367 l 1,0,-1
EndSplineSet
Substitution: 1 0 'vert' SF060000.vert
EndChar
StartChar: uni252F
Encoding: 9519 9519 1490
Width: 1024
Flags: W
Fore
0 348 m 1,0,-1
 0 433 l 1,1,-1
 1024 433 l 1,2,-1
 1024 348 l 1,3,-1
 535 348 l 1,4,-1
 535 -144 l 1,5,-1
 487 -144 l 1,6,-1
 487 348 l 1,7,-1
 0 348 l 1,0,-1
EndSplineSet
Substitution: 1 0 'vert' uni252F.vert
EndChar
StartChar: uni2530
Encoding: 9520 9520 1491
Width: 1024
Flags: W
Fore
0 367 m 1,0,-1
 0 414 l 1,1,-1
 1024 414 l 1,2,-1
 1024 367 l 1,3,-1
 554 367 l 1,4,-1
 554 -144 l 1,5,-1
 468 -144 l 1,6,-1
 468 367 l 1,7,-1
 0 367 l 1,0,-1
EndSplineSet
Substitution: 1 0 'vert' uni2530.vert
EndChar
StartChar: uni2533
Encoding: 9523 9523 1494
Width: 1024
Flags: W
Fore
0 348 m 1,0,-1
 0 433 l 1,1,-1
 1024 433 l 1,2,-1
 1024 348 l 1,3,-1
 554 348 l 1,4,-1
 554 -144 l 1,5,-1
 468 -144 l 1,6,-1
 468 348 l 1,7,-1
 0 348 l 1,0,-1
EndSplineSet
Substitution: 1 0 'vert' uni2533.vert
EndChar
StartChar: SF070000
Encoding: 9524 9524 1495
Width: 1024
Flags: W
Fore
0 367 m 1,0,-1
 0 414 l 1,1,-1
 487 414 l 1,2,-1
 487 880 l 1,3,-1
 535 880 l 1,4,-1
 535 414 l 1,5,-1
 1024 414 l 1,6,-1
 1024 367 l 1,7,-1
 0 367 l 1,0,-1
EndSplineSet
Substitution: 1 0 'vert' SF070000.vert
EndChar
StartChar: uni2537
Encoding: 9527 9527 1498
Width: 1024
Flags: W
Fore
0 348 m 1,0,-1
 0 433 l 1,1,-1
 487 433 l 1,2,-1
 487 880 l 1,3,-1
 535 880 l 1,4,-1
 535 433 l 1,5,-1
 1024 433 l 1,6,-1
 1024 348 l 1,7,-1
 0 348 l 1,0,-1
EndSplineSet
Substitution: 1 0 'vert' uni2537.vert
EndChar
StartChar: uni2538
Encoding: 9528 9528 1499
Width: 1024
Flags: W
Fore
0 367 m 1,0,-1
 0 414 l 1,1,-1
 468 414 l 1,2,-1
 468 880 l 1,3,-1
 554 880 l 1,4,-1
 554 414 l 1,5,-1
 1024 414 l 1,6,-1
 1024 367 l 1,7,-1
 0 367 l 1,0,-1
EndSplineSet
Substitution: 1 0 'vert' uni2538.vert
EndChar
StartChar: uni253B
Encoding: 9531 9531 1502
Width: 1024
Flags: W
Fore
0 348 m 1,0,-1
 0 433 l 1,1,-1
 468 433 l 1,2,-1
 468 880 l 1,3,-1
 554 880 l 1,4,-1
 554 433 l 1,5,-1
 1024 433 l 1,6,-1
 1024 348 l 1,7,-1
 0 348 l 1,0,-1
EndSplineSet
Substitution: 1 0 'vert' uni253B.vert
EndChar
StartChar: SF050000
Encoding: 9532 9532 1503
Width: 1024
Flags: W
Fore
0 367 m 1,0,-1
 0 414 l 1,1,-1
 487 414 l 1,2,-1
 487 880 l 1,3,-1
 535 880 l 1,4,-1
 535 414 l 1,5,-1
 1024 414 l 1,6,-1
 1024 367 l 1,7,-1
 535 367 l 1,8,-1
 535 -144 l 1,9,-1
 487 -144 l 1,10,-1
 487 367 l 1,11,-1
 0 367 l 1,0,-1
EndSplineSet
Substitution: 1 0 'vert' SF050000.vert
EndChar
StartChar: uni253F
Encoding: 9535 9535 1506
Width: 1024
Flags: W
Fore
0 348 m 1,0,-1
 0 433 l 1,1,-1
 487 433 l 1,2,-1
 487 880 l 1,3,-1
 535 880 l 1,4,-1
 535 433 l 1,5,-1
 1024 433 l 1,6,-1
 1024 348 l 1,7,-1
 535 348 l 1,8,-1
 535 -144 l 1,9,-1
 487 -144 l 1,10,-1
 487 348 l 1,11,-1
 0 348 l 1,0,-1
EndSplineSet
Substitution: 1 0 'vert' uni253F.vert
EndChar
StartChar: uni2542
Encoding: 9538 9538 1509
Width: 1024
Flags: W
Fore
0 367 m 1,0,-1
 0 414 l 1,1,-1
 468 414 l 1,2,-1
 468 880 l 1,3,-1
 554 880 l 1,4,-1
 554 414 l 1,5,-1
 1024 414 l 1,6,-1
 1024 367 l 1,7,-1
 554 367 l 1,8,-1
 554 -144 l 1,9,-1
 468 -144 l 1,10,-1
 468 367 l 1,11,-1
 0 367 l 1,0,-1
EndSplineSet
Substitution: 1 0 'vert' uni2542.vert
EndChar
StartChar: uni254B
Encoding: 9547 9547 1518
Width: 1024
Flags: W
Fore
0 348 m 1,0,-1
 0 433 l 1,1,-1
 468 433 l 1,2,-1
 468 880 l 1,3,-1
 554 880 l 1,4,-1
 554 433 l 1,5,-1
 1024 433 l 1,6,-1
 1024 348 l 1,7,-1
 554 348 l 1,8,-1
 554 -144 l 1,9,-1
 468 -144 l 1,10,-1
 468 348 l 1,11,-1
 0 348 l 1,0,-1
EndSplineSet
Substitution: 1 0 'vert' uni254B.vert
EndChar
StartChar: filledbox
Encoding: 9632 9632 1593
Width: 1024
Flags: W
Fore
846 722 m 2,0,1
 863 722 863 722 863 706 c 2,2,-1
 863 21 l 2,3,4
 863 5 863 5 846 5 c 2,5,-1
 166 5 l 2,6,7
 149 5 149 5 149 21 c 2,8,-1
 149 706 l 2,9,10
 149 722 149 722 166 722 c 2,11,-1
 846 722 l 2,0,1
EndSplineSet
Substitution: 1 0 'vert' filledbox.vert
EndChar
StartChar: H22073
Encoding: 9633 9633 1594
Width: 1024
Flags: W
Fore
846 722 m 2,0,1
 863 722 863 722 863 706 c 2,2,-1
 863 21 l 2,3,4
 863 5 863 5 846 5 c 2,5,-1
 166 5 l 2,6,7
 149 5 149 5 149 21 c 2,8,-1
 149 706 l 2,9,10
 149 722 149 722 166 722 c 2,11,-1
 846 722 l 2,0,1
217 654 m 1,12,-1
 217 73 l 1,13,-1
 795 73 l 1,14,-1
 795 654 l 1,15,-1
 217 654 l 1,12,-1
EndSplineSet
Substitution: 1 0 'vert' H22073.vert
EndChar
StartChar: triagup
Encoding: 9650 9650 1611
Width: 1024
Flags: W
Fore
101 9 m 2,0,1
 73 9 73 9 80 35 c 1,2,-1
 494 814 l 2,3,4
 509 842 509 842 524 814 c 2,5,-1
 937 37 l 1,6,7
 945 9 945 9 913 9 c 2,8,-1
 101 9 l 2,0,1
EndSplineSet
Substitution: 1 0 'vert' triagup.vert
EndChar
StartChar: uni25B3
Encoding: 9651 9651 1612
Width: 1024
Flags: W
Fore
174 69 m 1,0,-1
 841 69 l 1,1,-1
 509 706 l 1,2,-1
 174 69 l 1,0,-1
101 9 m 2,3,4
 73 9 73 9 80 35 c 1,5,-1
 494 814 l 2,6,7
 509 842 509 842 524 814 c 2,8,-1
 937 37 l 1,9,10
 945 9 945 9 913 9 c 2,11,-1
 101 9 l 2,3,4
EndSplineSet
Substitution: 1 0 'vert' uni25B3.vert
EndChar
StartChar: triagdn
Encoding: 9660 9660 1621
Width: 1024
Flags: W
Fore
101 751 m 2,0,-1
 913 751 l 2,1,2
 945 751 945 751 937 723 c 1,3,-1
 524 -54 l 2,4,5
 509 -82 509 -82 494 -54 c 2,6,-1
 80 725 l 1,7,8
 73 751 73 751 101 751 c 2,0,-1
EndSplineSet
Substitution: 1 0 'vert' triagdn.vert
EndChar
StartChar: uni25BD
Encoding: 9661 9661 1622
Width: 1024
Flags: W
Fore
174 691 m 1,0,-1
 509 54 l 1,1,-1
 841 691 l 1,2,-1
 174 691 l 1,0,-1
101 751 m 2,3,-1
 913 751 l 2,4,5
 945 751 945 751 937 723 c 1,6,-1
 524 -54 l 2,7,8
 509 -82 509 -82 494 -54 c 2,9,-1
 80 725 l 1,10,11
 73 751 73 751 101 751 c 2,3,-1
EndSplineSet
Substitution: 1 0 'vert' uni25BD.vert
EndChar
StartChar: uni25C6
Encoding: 9670 9670 1631
Width: 1024
Flags: W
Fore
496 823 m 2,0,1
 505 832 505 832 515 824 c 1,2,-1
 970 369 l 1,3,4
 977 360 977 360 969 351 c 2,5,-1
 514 -104 l 2,6,7
 506 -111 506 -111 497 -104 c 1,8,-1
 42 351 l 2,9,10
 34 360 34 360 42 369 c 2,11,-1
 496 823 l 2,0,1
EndSplineSet
Substitution: 1 0 'vert' uni25C6.vert
EndChar
StartChar: uni25C7
Encoding: 9671 9671 1632
Width: 1024
Flags: W
Fore
130 360 m 1,0,-1
 506 -17 l 1,1,-1
 881 359 l 1,2,-1
 505 735 l 1,3,-1
 130 360 l 1,0,-1
496 823 m 2,4,5
 505 832 505 832 515 824 c 1,6,-1
 970 369 l 1,7,8
 977 360 977 360 969 351 c 2,9,-1
 514 -104 l 2,10,11
 506 -111 506 -111 497 -104 c 1,12,-1
 42 351 l 2,13,14
 34 360 34 360 42 369 c 2,15,-1
 496 823 l 2,4,5
EndSplineSet
Substitution: 1 0 'vert' uni25C7.vert
EndChar
StartChar: circle
Encoding: 9675 9675 1636
Width: 1024
Flags: W
Fore
87 360 m 0,0,1
 87 533 87 533 211.5 658 c 128,-1,2
 336 783 336 783 510 783 c 0,3,4
 683 783 683 783 808 658 c 128,-1,5
 933 533 933 533 933 360 c 0,6,7
 933 186 933 186 808 62 c 128,-1,8
 683 -62 683 -62 510 -62 c 0,9,10
 336 -62 336 -62 211.5 62 c 128,-1,11
 87 186 87 186 87 360 c 0,0,1
159 360 m 0,12,13
 159 212 159 212 260.5 110.5 c 128,-1,14
 362 9 362 9 510 9 c 0,15,16
 658 9 658 9 760 110.5 c 128,-1,17
 862 212 862 212 862 360 c 0,18,19
 862 508 862 508 760 610 c 128,-1,20
 658 712 658 712 510 712 c 0,21,22
 362 712 362 712 260.5 610 c 128,-1,23
 159 508 159 508 159 360 c 0,12,13
EndSplineSet
Substitution: 1 0 'vert' circle.vert
EndChar
StartChar: uni25CE
Encoding: 9678 9678 1639
Width: 1024
Flags: W
Fore
87 360 m 0,0,1
 87 533 87 533 211.5 658 c 128,-1,2
 336 783 336 783 510 783 c 0,3,4
 683 783 683 783 808 658 c 128,-1,5
 933 533 933 533 933 360 c 0,6,7
 933 186 933 186 808 62 c 128,-1,8
 683 -62 683 -62 510 -62 c 0,9,10
 336 -62 336 -62 211.5 62 c 128,-1,11
 87 186 87 186 87 360 c 0,0,1
159 360 m 0,12,13
 159 212 159 212 260.5 110.5 c 128,-1,14
 362 9 362 9 510 9 c 0,15,16
 658 9 658 9 760 110.5 c 128,-1,17
 862 212 862 212 862 360 c 0,18,19
 862 508 862 508 760 610 c 128,-1,20
 658 712 658 712 510 712 c 0,21,22
 362 712 362 712 260.5 610 c 128,-1,23
 159 508 159 508 159 360 c 0,12,13
250 361 m 0,24,25
 250 468 250 468 326.5 545 c 128,-1,26
 403 622 403 622 510 622 c 0,27,28
 617 622 617 622 694 545 c 128,-1,29
 771 468 771 468 771 361 c 0,30,31
 771 254 771 254 694 177.5 c 128,-1,32
 617 101 617 101 510 101 c 0,33,34
 403 101 403 101 326.5 177.5 c 128,-1,35
 250 254 250 254 250 361 c 0,24,25
323 361 m 0,36,37
 323 281 323 281 376 228 c 128,-1,38
 429 175 429 175 509 175 c 0,39,40
 589 175 589 175 642.5 228 c 128,-1,41
 696 281 696 281 696 361 c 0,42,43
 696 441 696 441 642.5 494.5 c 128,-1,44
 589 548 589 548 509 548 c 0,45,46
 429 548 429 548 376 494.5 c 128,-1,47
 323 441 323 441 323 361 c 0,36,37
EndSplineSet
Substitution: 1 0 'vert' uni25CE.vert
EndChar
StartChar: H18533
Encoding: 9679 9679 1640
Width: 1024
Flags: W
Fore
87 360 m 0,0,1
 87 533 87 533 211.5 658 c 128,-1,2
 336 783 336 783 510 783 c 0,3,4
 683 783 683 783 808 658 c 128,-1,5
 933 533 933 533 933 360 c 0,6,7
 933 186 933 186 808 62 c 128,-1,8
 683 -62 683 -62 510 -62 c 0,9,10
 336 -62 336 -62 211.5 62 c 128,-1,11
 87 186 87 186 87 360 c 0,0,1
EndSplineSet
Substitution: 1 0 'vert' H18533.vert
EndChar
StartChar: uni25EF
Encoding: 9711 9711 1672
Width: 1024
Flags: W
Fore
30 365 m 0,0,1
 30 562 30 562 171 703.5 c 128,-1,2
 312 845 312 845 510 845 c 0,3,4
 707 845 707 845 848.5 703.5 c 128,-1,5
 990 562 990 562 990 365 c 0,6,7
 990 167 990 167 848.5 26 c 128,-1,8
 707 -115 707 -115 510 -115 c 0,9,10
 312 -115 312 -115 171 26 c 128,-1,11
 30 167 30 167 30 365 c 0,0,1
79 364 m 0,12,13
 79 182 79 182 203.5 58 c 128,-1,14
 328 -66 328 -66 510 -66 c 0,15,16
 691 -66 691 -66 816 58 c 128,-1,17
 941 182 941 182 941 364 c 0,18,19
 941 545 941 545 816 670.5 c 128,-1,20
 691 796 691 796 510 796 c 0,21,22
 328 796 328 796 203.5 670.5 c 128,-1,23
 79 545 79 545 79 364 c 0,12,13
EndSplineSet
Substitution: 1 0 'vert' uni25EF.vert
EndChar
StartChar: uni2605
Encoding: 9733 9733 1678
Width: 1024
Flags: W
Fore
532 837 m 1,0,-1
 640 511 l 1,1,2
 643 498 643 498 657 498 c 2,3,-1
 997 498 l 1,4,5
 1029 490 1029 490 1009 465 c 1,6,-1
 733 261 l 1,7,8
 720 254 720 254 726 241 c 1,9,-1
 836 -91 l 1,10,11
 835 -120 835 -120 806 -109 c 1,12,-1
 528 97 l 2,13,14
 516 106 516 106 506 97 c 1,15,-1
 219 -113 l 1,16,17
 193 -122 193 -122 196 -94 c 1,18,-1
 307 243 l 1,19,20
 313 256 313 256 303 262 c 1,21,-1
 23 465 l 1,22,23
 3 488 3 488 32 498 c 1,24,-1
 375 498 l 2,25,26
 390 498 390 498 394 513 c 1,27,-1
 502 837 l 1,28,29
 517 862 517 862 532 837 c 1,0,-1
EndSplineSet
Substitution: 1 0 'vert' uni2605.vert
EndChar
StartChar: uni2606
Encoding: 9734 9734 1679
Width: 1024
Flags: W
Fore
517 699 m 1,0,-1
 439 461 l 1,1,2
 433 438 433 438 410 438 c 2,3,-1
 154 438 l 1,4,-1
 374 285 l 1,5,6
 394 273 394 273 382 252 c 1,7,-1
 290 8 l 1,8,-1
 499 163 l 1,9,10
 516 179 516 179 534 163 c 1,11,-1
 744 6 l 1,12,-1
 653 250 l 1,13,14
 646 274 646 274 665 284 c 1,15,-1
 885 438 l 1,16,-1
 624 438 l 2,17,18
 600 437 600 437 597 459 c 1,19,-1
 517 699 l 1,0,-1
532 837 m 1,20,-1
 640 511 l 1,21,22
 643 498 643 498 657 498 c 2,23,-1
 997 498 l 1,24,25
 1029 490 1029 490 1009 465 c 1,26,-1
 733 261 l 1,27,28
 720 254 720 254 726 241 c 1,29,-1
 836 -91 l 1,30,31
 835 -120 835 -120 806 -109 c 1,32,-1
 528 97 l 2,33,34
 516 106 516 106 506 97 c 1,35,-1
 219 -113 l 1,36,37
 193 -122 193 -122 196 -94 c 1,38,-1
 307 243 l 1,39,40
 313 256 313 256 303 262 c 1,41,-1
 23 465 l 1,42,43
 3 488 3 488 32 498 c 1,44,-1
 375 498 l 2,45,46
 390 498 390 498 394 513 c 1,47,-1
 502 837 l 1,48,49
 517 862 517 862 532 837 c 1,20,-1
EndSplineSet
Substitution: 1 0 'vert' uni2606.vert
EndChar
StartChar: female
Encoding: 9792 9792 1731
Width: 1024
Flags: W
Fore
281 591 m 0,0,1
 281 684 281 684 348 751.5 c 128,-1,2
 415 819 415 819 509 819 c 0,3,4
 602 819 602 819 669.5 751.5 c 128,-1,5
 737 684 737 684 737 591 c 0,6,7
 737 497 737 497 680.5 437 c 128,-1,8
 624 377 624 377 547 366 c 1,9,-1
 547 267 l 1,10,-1
 832 267 l 1,11,-1
 832 193 l 1,12,-1
 546 193 l 1,13,-1
 546 -87 l 1,14,-1
 470 -87 l 1,15,-1
 470 193 l 1,16,-1
 184 193 l 1,17,-1
 184 267 l 1,18,-1
 470 267 l 1,19,-1
 470 367 l 1,20,21
 393 377 393 377 337 437 c 128,-1,22
 281 497 281 497 281 591 c 0,0,1
354 590 m 0,23,24
 354 523 354 523 397.5 479.5 c 128,-1,25
 441 436 441 436 508 436 c 0,26,27
 574 436 574 436 618 479.5 c 128,-1,28
 662 523 662 523 662 590 c 0,29,30
 662 656 662 656 618 700 c 128,-1,31
 574 744 574 744 508 744 c 0,32,33
 441 744 441 744 397.5 700 c 128,-1,34
 354 656 354 656 354 590 c 0,23,24
EndSplineSet
Substitution: 1 0 'vert' female.vert
EndChar
StartChar: male
Encoding: 9794 9794 1733
Width: 1024
Flags: W
Fore
936 716 m 1,0,1
 929 505 929 505 925 292 c 1,2,-1
 899 287 l 1,3,4
 882 466 882 466 861 601 c 1,5,-1
 520 260 l 1,6,7
 561 202 561 202 561 129 c 0,8,9
 561 35 561 35 493.5 -31.5 c 128,-1,10
 426 -98 426 -98 333 -98 c 0,11,12
 239 -98 239 -98 172 -31.5 c 128,-1,13
 105 35 105 35 105 129 c 0,14,15
 105 222 105 222 172 289.5 c 128,-1,16
 239 357 239 357 333 357 c 0,17,18
 410 357 410 357 469 312 c 1,19,-1
 812 655 l 1,20,21
 674 674 674 674 495 691 c 1,22,-1
 500 717 l 1,23,24
 714 720 714 720 924 728 c 1,25,26
 940 732 940 732 936 716 c 1,0,1
178 128 m 0,27,28
 178 61 178 61 221.5 18 c 128,-1,29
 265 -25 265 -25 332 -25 c 0,30,31
 398 -25 398 -25 442 18 c 128,-1,32
 486 61 486 61 486 128 c 0,33,34
 486 194 486 194 442 238 c 128,-1,35
 398 282 398 282 332 282 c 0,36,37
 265 282 265 282 221.5 238 c 128,-1,38
 178 194 178 194 178 128 c 0,27,28
EndSplineSet
Substitution: 1 0 'vert' male.vert
EndChar
StartChar: musicalnote
Encoding: 9834 9834 1773
Width: 1024
Flags: W
Fore
493 809 m 1,0,1
 570 716 570 716 637.5 668.5 c 128,-1,2
 705 621 705 621 772 564 c 128,-1,3
 839 507 839 507 839 430 c 0,4,5
 839 376 839 376 789.5 325 c 128,-1,6
 740 274 740 274 666 224 c 1,7,8
 648 221 648 221 656 237 c 1,9,10
 711 289 711 289 732 329 c 128,-1,11
 753 369 753 369 753 397 c 0,12,13
 753 428 753 428 715 466.5 c 128,-1,14
 677 505 677 505 621 543 c 128,-1,15
 565 581 565 581 520 622 c 1,16,-1
 520 139 l 2,17,18
 520 72 520 72 495.5 33.5 c 128,-1,19
 471 -5 471 -5 428.5 -31 c 128,-1,20
 386 -57 386 -57 338 -58 c 0,21,22
 288 -58 288 -58 254 -36 c 128,-1,23
 220 -14 220 -14 220 25 c 0,24,25
 220 70 220 70 270.5 105 c 128,-1,26
 321 140 321 140 381 142 c 0,27,28
 429 142 429 142 464 132 c 1,29,-1
 464 809 l 1,30,-1
 493 809 l 1,0,1
EndSplineSet
Substitution: 1 0 'vert' musicalnote.vert
EndChar
StartChar: uni266D
Encoding: 9837 9837 1776
Width: 1024
Flags: W
Fore
523 466 m 0,0,1
 607 466 607 466 670.5 411 c 128,-1,2
 734 356 734 356 734 274 c 0,3,4
 734 182 734 182 654 104 c 128,-1,5
 574 26 574 26 334 -77 c 1,6,-1
 300 -77 l 1,7,-1
 300 813 l 1,8,-1
 356 813 l 1,9,-1
 356 383 l 1,10,11
 407 422 407 422 443 444 c 128,-1,12
 479 466 479 466 523 466 c 0,0,1
641 276 m 0,13,14
 641 343 641 343 605.5 376.5 c 128,-1,15
 570 410 570 410 524 410 c 0,16,17
 492 410 492 410 448 387.5 c 128,-1,18
 404 365 404 365 356 302 c 1,19,-1
 356 -8 l 1,20,21
 526 71 526 71 583.5 133.5 c 128,-1,22
 641 196 641 196 641 276 c 0,13,14
EndSplineSet
Substitution: 1 0 'vert' uni266D.vert
EndChar
StartChar: uni266F
Encoding: 9839 9839 1778
Width: 1024
Flags: W
Fore
800 672 m 1,0,-1
 800 576 l 1,1,-1
 649 534 l 1,2,-1
 649 323 l 1,3,-1
 800 365 l 1,4,-1
 800 265 l 1,5,-1
 649 223 l 1,6,-1
 649 -42 l 1,7,-1
 597 -42 l 1,8,-1
 597 209 l 1,9,-1
 420 160 l 1,10,-1
 420 -90 l 1,11,-1
 368 -90 l 1,12,-1
 368 146 l 1,13,-1
 216 104 l 1,14,-1
 216 204 l 1,15,-1
 368 246 l 1,16,-1
 368 457 l 1,17,-1
 216 415 l 1,18,-1
 216 511 l 1,19,-1
 368 553 l 1,20,-1
 368 775 l 1,21,-1
 420 775 l 1,22,-1
 420 567 l 1,23,-1
 597 616 l 1,24,-1
 597 823 l 1,25,-1
 649 823 l 1,26,-1
 649 630 l 1,27,-1
 800 672 l 1,0,-1
597 520 m 1,28,-1
 420 471 l 1,29,-1
 420 260 l 1,30,-1
 597 309 l 1,31,-1
 597 520 l 1,28,-1
EndSplineSet
Substitution: 1 0 'vert' uni266F.vert
EndChar
StartChar: uni3001
Encoding: 12289 12289 1940
Width: 1024
Flags: W
Fore
100 84 m 1,0,-1
 151 161 l 1,1,2
 260 92 260 92 349 1 c 1,3,-1
 348 -9 l 1,4,5
 311 -39 311 -39 277 -77 c 1,6,7
 193 38 193 38 100 84 c 1,0,-1
EndSplineSet
Substitution: 1 0 'vert' uni3001.vert
EndChar
StartChar: uni3002
Encoding: 12290 12290 1941
Width: 1024
Flags: W
Fore
80 26 m 0,0,1
 80 72 80 72 113.5 106 c 128,-1,2
 147 140 147 140 194 140 c 0,3,4
 240 140 240 140 274 106 c 128,-1,5
 308 72 308 72 308 26 c 0,6,7
 308 -21 308 -21 274 -54.5 c 128,-1,8
 240 -88 240 -88 194 -88 c 0,9,10
 147 -88 147 -88 113.5 -54.5 c 128,-1,11
 80 -21 80 -21 80 26 c 0,0,1
118 26 m 0,12,13
 118 -6 118 -6 140 -28 c 128,-1,14
 162 -50 162 -50 194 -50 c 0,15,16
 225 -50 225 -50 247.5 -28 c 128,-1,17
 270 -6 270 -6 270 26 c 0,18,19
 270 57 270 57 247.5 79.5 c 128,-1,20
 225 102 225 102 194 102 c 0,21,22
 162 102 162 102 140 79.5 c 128,-1,23
 118 57 118 57 118 26 c 0,12,13
EndSplineSet
Substitution: 1 0 'vert' uni3002.vert
EndChar
StartChar: uni3003
Encoding: 12291 12291 1942
Width: 1024
Flags: W
Fore
576 164 m 1,0,-1
 504 164 l 1,1,-1
 616 552 l 1,2,-1
 748 552 l 1,3,-1
 576 164 l 1,0,-1
360 552 m 1,4,-1
 492 552 l 1,5,-1
 296 164 l 1,6,-1
 224 164 l 1,7,-1
 360 552 l 1,4,-1
EndSplineSet
Substitution: 1 0 'vert' uni3003.vert
EndChar
StartChar: uni3005
Encoding: 12293 12293 1944
Width: 1024
Flags: W
Fore
227 222 m 1,0,1
 200 265 200 265 160 297 c 1,2,-1
 160 305 l 1,3,4
 244 353 244 353 298 410 c 128,-1,5
 352 467 352 467 389 530 c 128,-1,6
 426 593 426 593 440 636.5 c 128,-1,7
 454 680 454 680 452 693 c 1,8,9
 446 706 446 706 460 709 c 1,10,-1
 568 686 l 1,11,12
 583 681 583 681 570 669 c 1,13,-1
 543 654 l 1,14,15
 523 596 523 596 491 537 c 1,16,-1
 694 537 l 1,17,-1
 702 550 l 2,18,19
 705 555 705 555 710 550 c 0,20,21
 752 514 752 514 792 486 c 1,22,23
 808 473 808 473 788 461 c 1,24,-1
 762 449 l 1,25,26
 749 386 749 386 714.5 327.5 c 128,-1,27
 680 269 680 269 605 187 c 1,28,29
 661 140 661 140 726 79 c 1,30,-1
 726 70 l 1,31,32
 693 47 693 47 651 -5 c 1,33,34
 597 69 597 69 547 116.5 c 128,-1,35
 497 164 497 164 410 213 c 1,36,-1
 463 286 l 1,37,38
 500 263 500 263 530 243 c 1,39,40
 582 289 582 289 617 340 c 128,-1,41
 652 391 652 391 666 457 c 1,42,-1
 443 457 l 1,43,44
 415 416 415 416 367.5 360.5 c 128,-1,45
 320 305 320 305 227 222 c 1,0,1
EndSplineSet
Substitution: 1 0 'vert' uni3005.vert
EndChar
StartChar: uni3006
Encoding: 12294 12294 1945
Width: 1024
Flags: W
Fore
751 682 m 1,0,-1
 844 608 l 1,1,2
 858 589 858 589 834 590 c 2,3,-1
 804 592 l 1,4,5
 683 480 683 480 593 394 c 1,6,7
 635 342 635 342 708 268 c 1,8,-1
 708 256 l 1,9,10
 679 231 679 231 634 182 c 1,11,12
 577 268 577 268 530 333 c 1,13,14
 417 223 417 223 266 37 c 1,15,16
 239 67 239 67 185 94 c 1,17,18
 209 164 209 164 215.5 212 c 128,-1,19
 222 260 222 260 232.5 328.5 c 128,-1,20
 243 397 243 397 260 439.5 c 128,-1,21
 277 482 277 482 309 506 c 128,-1,22
 341 530 341 530 370 532 c 128,-1,23
 399 534 399 534 433.5 525 c 128,-1,24
 468 516 468 516 494.5 498.5 c 128,-1,25
 521 481 521 481 545 454 c 1,26,27
 603 515 603 515 671.5 586.5 c 128,-1,28
 740 658 740 658 736 673 c 1,29,30
 738 686 738 686 751 682 c 1,0,-1
292 188 m 1,31,32
 378 280 378 280 486 392 c 1,33,34
 450 438 450 438 428 454 c 128,-1,35
 406 470 406 470 372 466 c 128,-1,36
 338 462 338 462 323 426 c 128,-1,37
 308 390 308 390 300 325 c 128,-1,38
 292 260 292 260 292 188 c 1,31,32
EndSplineSet
Substitution: 1 0 'vert' uni3006.vert
EndChar
StartChar: uni3007
Encoding: 12295 12295 1946
Width: 1024
Flags: W
Fore
50 365 m 0,0,1
 50 552 50 552 183.5 686 c 128,-1,2
 317 820 317 820 505 820 c 0,3,4
 692 820 692 820 826 686 c 128,-1,5
 960 552 960 552 960 365 c 0,6,7
 960 177 960 177 826 43.5 c 128,-1,8
 692 -90 692 -90 505 -90 c 0,9,10
 317 -90 317 -90 183.5 43.5 c 128,-1,11
 50 177 50 177 50 365 c 0,0,1
112 365 m 0,12,13
 112 201 112 201 222.5 86.5 c 128,-1,14
 333 -28 333 -28 505 -28 c 0,15,16
 677 -28 677 -28 788 86.5 c 128,-1,17
 899 201 899 201 899 365 c 0,18,19
 899 529 899 529 788 644 c 128,-1,20
 677 759 677 759 505 759 c 0,21,22
 333 759 333 759 222.5 644 c 128,-1,23
 112 529 112 529 112 365 c 0,12,13
EndSplineSet
Substitution: 1 0 'vert' uni3007.vert
EndChar
StartChar: uni3008
Encoding: 12296 12296 1947
Width: 1024
Flags: W
Fore
912 858 m 1,0,-1
 980 818 l 1,1,2
 782 580 782 580 565 367 c 0,3,4
 560 363 560 363 565 359 c 0,5,6
 782 146 782 146 980 -91 c 1,7,-1
 912 -131 l 1,8,9
 702 120 702 120 472 345 c 1,10,11
 457 363 457 363 472 381 c 1,12,13
 702 606 702 606 912 858 c 1,0,-1
EndSplineSet
Substitution: 1 0 'vert' uni3008.vert
EndChar
StartChar: uni3009
Encoding: 12297 12297 1948
Width: 1024
Flags: W
Fore
132 858 m 1,0,1
 342 606 342 606 572 381 c 1,2,3
 587 363 587 363 572 345 c 1,4,5
 342 120 342 120 132 -131 c 1,6,-1
 64 -91 l 1,7,8
 262 146 262 146 479 359 c 0,9,10
 484 363 484 363 479 367 c 0,11,12
 262 580 262 580 64 818 c 1,13,-1
 132 858 l 1,0,1
EndSplineSet
Substitution: 1 0 'vert' uni3009.vert
EndChar
StartChar: uni300A
Encoding: 12298 12298 1949
Width: 1024
Flags: W
Fore
718 858 m 1,0,-1
 770 818 l 1,1,2
 572 580 572 580 355 367 c 0,3,4
 350 363 350 363 355 359 c 0,5,6
 572 146 572 146 770 -91 c 1,7,-1
 718 -131 l 1,8,9
 508 120 508 120 278 345 c 1,10,11
 263 363 263 363 278 381 c 1,12,13
 508 606 508 606 718 858 c 1,0,-1
913 858 m 1,14,-1
 965 818 l 1,15,16
 767 580 767 580 550 367 c 0,17,18
 545 363 545 363 550 359 c 0,19,20
 767 146 767 146 965 -91 c 1,21,-1
 913 -131 l 1,22,23
 703 120 703 120 473 345 c 1,24,25
 458 363 458 363 473 381 c 1,26,27
 703 606 703 606 913 858 c 1,14,-1
EndSplineSet
Substitution: 1 0 'vert' uni300A.vert
EndChar
StartChar: uni300B
Encoding: 12299 12299 1950
Width: 1024
Flags: W
Fore
290 858 m 1,0,1
 500 606 500 606 730 381 c 1,2,3
 745 363 745 363 730 345 c 1,4,5
 500 120 500 120 290 -131 c 1,6,-1
 238 -91 l 1,7,8
 436 146 436 146 653 359 c 0,9,10
 658 363 658 363 653 367 c 0,11,12
 436 580 436 580 238 818 c 1,13,-1
 290 858 l 1,0,1
95 858 m 1,14,15
 305 606 305 606 535 381 c 1,16,17
 550 363 550 363 535 345 c 1,18,19
 305 120 305 120 95 -131 c 1,20,-1
 43 -91 l 1,21,22
 241 146 241 146 458 359 c 0,23,24
 463 363 463 363 458 367 c 0,25,26
 241 580 241 580 43 818 c 1,27,-1
 95 858 l 1,14,15
EndSplineSet
Substitution: 1 0 'vert' uni300B.vert
EndChar
StartChar: uni300C
Encoding: 12300 12300 1951
Width: 1024
Flags: W
Fore
731 147 m 1,0,-1
 648 147 l 1,1,-1
 648 843 l 1,2,-1
 957 843 l 1,3,-1
 957 769 l 1,4,-1
 731 769 l 1,5,-1
 731 147 l 1,0,-1
EndSplineSet
Substitution: 1 0 'vert' uni300C.vert
EndChar
StartChar: uni300D
Encoding: 12301 12301 1952
Width: 1024
Flags: W
Fore
287 583 m 1,0,-1
 370 583 l 1,1,-1
 370 -113 l 1,2,-1
 61 -113 l 1,3,-1
 61 -39 l 1,4,-1
 287 -39 l 1,5,-1
 287 583 l 1,0,-1
EndSplineSet
Substitution: 1 0 'vert' uni300D.vert
EndChar
StartChar: uni300E
Encoding: 12302 12302 1953
Width: 1024
Flags: W
Fore
541 846 m 1,0,-1
 960 846 l 1,1,-1
 960 649 l 1,2,-1
 747 649 l 1,3,-1
 747 85 l 1,4,-1
 541 85 l 1,5,-1
 541 846 l 1,0,-1
591 798 m 1,6,-1
 591 129 l 1,7,-1
 697 129 l 1,8,-1
 697 697 l 1,9,-1
 914 697 l 1,10,-1
 914 798 l 1,11,-1
 591 798 l 1,6,-1
EndSplineSet
Substitution: 1 0 'vert' uni300E.vert
EndChar
StartChar: uni300F
Encoding: 12303 12303 1954
Width: 1024
Flags: W
Fore
469 -116 m 1,0,-1
 50 -116 l 1,1,-1
 50 81 l 1,2,-1
 263 81 l 1,3,-1
 263 645 l 1,4,-1
 469 645 l 1,5,-1
 469 -116 l 1,0,-1
419 -68 m 1,6,-1
 419 601 l 1,7,-1
 313 601 l 1,8,-1
 313 33 l 1,9,-1
 96 33 l 1,10,-1
 96 -68 l 1,11,-1
 419 -68 l 1,6,-1
EndSplineSet
Substitution: 1 0 'vert' uni300F.vert
EndChar
StartChar: uni3010
Encoding: 12304 12304 1955
Width: 1024
Flags: W
Fore
662 834 m 1,0,-1
 954 834 l 1,1,-1
 954 797 l 1,2,3
 863 723 863 723 807.5 623.5 c 128,-1,4
 752 524 752 524 752 357 c 0,5,6
 752 186 752 186 807.5 87 c 128,-1,7
 863 -12 863 -12 954 -83 c 1,8,-1
 954 -121 l 1,9,-1
 662 -121 l 1,10,-1
 662 834 l 1,0,-1
EndSplineSet
Substitution: 1 0 'vert' uni3010.vert
EndChar
StartChar: uni3011
Encoding: 12305 12305 1956
Width: 1024
Flags: W
Fore
348 834 m 1,0,-1
 348 -121 l 1,1,-1
 56 -121 l 1,2,-1
 56 -83 l 1,3,4
 147 -12 147 -12 202.5 87 c 128,-1,5
 258 186 258 186 258 357 c 0,6,7
 258 524 258 524 202.5 623.5 c 128,-1,8
 147 723 147 723 56 797 c 1,9,-1
 56 834 l 1,10,-1
 348 834 l 1,0,-1
EndSplineSet
Substitution: 1 0 'vert' uni3011.vert
EndChar
StartChar: uni3012
Encoding: 12306 12306 1957
Width: 1024
Flags: W
Fore
143 789 m 1,0,-1
 870 789 l 1,1,-1
 870 690 l 1,2,-1
 143 690 l 1,3,-1
 143 789 l 1,0,-1
143 529 m 1,4,-1
 870 529 l 1,5,-1
 870 430 l 1,6,-1
 568 430 l 1,7,-1
 568 -62 l 1,8,-1
 448 -62 l 1,9,-1
 448 430 l 1,10,-1
 143 430 l 1,11,-1
 143 529 l 1,4,-1
EndSplineSet
Substitution: 1 0 'vert' uni3012.vert
EndChar
StartChar: uni3013
Encoding: 12307 12307 1958
Width: 1024
Flags: W
Fore
154 584 m 1,0,-1
 863 584 l 1,1,-1
 863 438 l 1,2,-1
 154 438 l 1,3,-1
 154 584 l 1,0,-1
154 292 m 1,4,-1
 863 292 l 1,5,-1
 863 146 l 1,6,-1
 154 146 l 1,7,-1
 154 292 l 1,4,-1
EndSplineSet
Substitution: 1 0 'vert' uni3013.vert
EndChar
StartChar: uni3014
Encoding: 12308 12308 1959
Width: 1024
Flags: W
Fore
661 715 m 1,0,1
 774 758 774 758 887 826 c 1,2,-1
 956 769 l 1,3,4
 854 716 854 716 752 668 c 1,5,-1
 752 58 l 1,6,7
 854 10 854 10 956 -43 c 1,8,-1
 887 -100 l 1,9,10
 774 -32 774 -32 661 11 c 1,11,-1
 661 715 l 1,0,1
EndSplineSet
Substitution: 1 0 'vert' uni3014.vert
EndChar
StartChar: uni3015
Encoding: 12309 12309 1960
Width: 1024
Flags: W
Fore
351 715 m 1,0,-1
 351 11 l 1,1,2
 238 -32 238 -32 125 -100 c 1,3,-1
 56 -43 l 1,4,5
 158 10 158 10 260 58 c 1,6,-1
 260 668 l 1,7,8
 158 716 158 716 56 769 c 1,9,-1
 125 826 l 1,10,11
 238 758 238 758 351 715 c 1,0,-1
EndSplineSet
Substitution: 1 0 'vert' uni3015.vert
EndChar
StartChar: uni301C
Encoding: 12316 12316 1967
Width: 1024
Flags: W
Fore
298 501 m 1,0,1
 375 501 375 501 453 454.5 c 128,-1,2
 531 408 531 408 592 371 c 128,-1,3
 653 334 653 334 722 334 c 1,4,5
 782 340 782 340 826.5 367 c 128,-1,6
 871 394 871 394 922 501 c 1,7,-1
 993 463 l 1,8,9
 926 335 926 335 862 295 c 128,-1,10
 798 255 798 255 722 249 c 1,11,12
 645 249 645 249 567.5 295 c 128,-1,13
 490 341 490 341 428.5 378.5 c 128,-1,14
 367 416 367 416 298 416 c 1,15,16
 238 410 238 410 193.5 383 c 128,-1,17
 149 356 149 356 98 249 c 1,18,-1
 27 287 l 1,19,20
 94 415 94 415 158 455 c 128,-1,21
 222 495 222 495 298 501 c 1,0,1
EndSplineSet
EndChar
StartChar: uni3041
Encoding: 12353 12353 1980
Width: 1024
Flags: W
Fore
579 -52 m 1,0,1
 567 -15 567 -15 543 15 c 1,2,-1
 543 23 l 1,3,4
 596 29 596 29 640.5 47.5 c 128,-1,5
 685 66 685 66 714 100 c 128,-1,6
 743 134 743 134 743 181 c 128,-1,7
 743 228 743 228 717 258.5 c 128,-1,8
 691 289 691 289 657.5 299 c 128,-1,9
 624 309 624 309 600 311 c 1,10,11
 569 247 569 247 543 201 c 128,-1,12
 517 155 517 155 485 112 c 1,13,14
 495 94 495 94 508 75 c 1,15,-1
 506 67 l 1,16,17
 486 58 486 58 441 18 c 1,18,-1
 427 44 l 1,19,20
 404 22 404 22 368.5 0.5 c 128,-1,21
 333 -21 333 -21 298.5 -16 c 128,-1,22
 264 -11 264 -11 242 16 c 128,-1,23
 220 43 220 43 219 94.5 c 128,-1,24
 218 146 218 146 236.5 188.5 c 128,-1,25
 255 231 255 231 286 263 c 128,-1,26
 317 295 317 295 356 316 c 1,27,28
 356 332 356 332 356.5 365.5 c 128,-1,29
 357 399 357 399 361 450 c 1,30,31
 306 448 306 448 238 448 c 1,32,33
 234 478 234 478 226 517 c 1,34,-1
 230 521 l 1,35,36
 307 517 307 517 366 518 c 1,37,38
 372 586 372 586 367 594 c 1,39,40
 363 607 363 607 375 606 c 2,41,-1
 449 596 l 1,42,43
 462 592 462 592 454 582 c 2,44,-1
 444 570 l 1,45,46
 441 545 441 545 439 522 c 1,47,48
 542 536 542 536 599 557 c 1,49,-1
 636 495 l 1,50,51
 567 473 567 473 514 465 c 128,-1,52
 461 457 461 457 432 455 c 1,53,54
 427 394 427 394 426 345 c 1,55,56
 475 361 475 361 544 368 c 1,57,58
 566 425 566 425 562 428 c 1,59,60
 560 445 560 445 577 440 c 2,61,-1
 650 417 l 1,62,63
 662 410 662 410 649 402 c 1,64,-1
 638 393 l 1,65,-1
 626 366 l 1,66,67
 648 362 648 362 692.5 349.5 c 128,-1,68
 737 337 737 337 779 290 c 128,-1,69
 821 243 821 243 822.5 184 c 128,-1,70
 824 125 824 125 784.5 71.5 c 128,-1,71
 745 18 745 18 692.5 -8 c 128,-1,72
 640 -34 640 -34 579 -52 c 1,0,1
519 308 m 1,73,74
 483 301 483 301 428 280 c 1,75,76
 431 244 431 244 437 221 c 128,-1,77
 443 198 443 198 450 178 c 1,78,79
 463 198 463 198 480.5 228.5 c 128,-1,80
 498 259 498 259 519 308 c 1,73,74
362 243 m 1,81,82
 353 237 353 237 333 218.5 c 128,-1,83
 313 200 313 200 298.5 164.5 c 128,-1,84
 284 129 284 129 284 102 c 128,-1,85
 284 75 284 75 292.5 63.5 c 128,-1,86
 301 52 301 52 322 52.5 c 128,-1,87
 343 53 343 53 363 71.5 c 128,-1,88
 383 90 383 90 398 107 c 1,89,90
 379 153 379 153 372 185.5 c 128,-1,91
 365 218 365 218 362 243 c 1,81,82
EndSplineSet
Substitution: 1 0 'vert' uni3041.vert
EndChar
StartChar: uni3042
Encoding: 12354 12354 1981
Width: 1024
Flags: W
Fore
678 723 m 1,0,-1
 703 640 l 1,1,2
 587 620 587 620 507.5 612.5 c 128,-1,3
 428 605 428 605 401 602 c 1,4,5
 395 514 395 514 395 456 c 1,6,7
 460 474 460 474 556 479 c 1,8,9
 572 543 572 543 566 548 c 1,10,11
 564 566 564 566 582 564 c 1,12,-1
 675 545 l 1,13,14
 691 540 691 540 679 528 c 2,15,-1
 663 514 l 1,16,-1
 650 471 l 1,17,18
 690 463 690 463 759 438.5 c 128,-1,19
 828 414 828 414 872 352 c 128,-1,20
 916 290 916 290 918 221.5 c 128,-1,21
 920 153 920 153 868.5 85.5 c 128,-1,22
 817 18 817 18 746.5 -16 c 128,-1,23
 676 -50 676 -50 603 -66 c 1,24,25
 590 -25 590 -25 558 19 c 1,26,-1
 558 30 l 1,27,28
 623 39 623 39 684.5 62 c 128,-1,29
 746 85 746 85 781 125 c 128,-1,30
 816 165 816 165 819 215 c 128,-1,31
 822 265 822 265 789 312 c 128,-1,32
 756 359 756 359 708.5 376 c 128,-1,33
 661 393 661 393 626 398 c 1,34,35
 599 319 599 319 565 250.5 c 128,-1,36
 531 182 531 182 475 116 c 1,37,38
 488 90 488 90 503 63 c 1,39,-1
 502 52 l 1,40,41
 473 43 473 43 407 7 c 1,42,-1
 394 39 l 1,43,44
 370 22 370 22 324 -0.5 c 128,-1,45
 278 -23 278 -23 225 -15.5 c 128,-1,46
 172 -8 172 -8 140.5 30.5 c 128,-1,47
 109 69 109 69 106 137.5 c 128,-1,48
 103 206 103 206 131.5 263.5 c 128,-1,49
 160 321 160 321 206 361 c 128,-1,50
 252 401 252 401 311 427 c 1,51,52
 310 522 310 522 314 596 c 1,53,54
 230 591 230 591 131 587 c 1,55,56
 130 635 130 635 127 675 c 1,57,-1
 131 677 l 1,58,59
 234 673 234 673 320 676 c 1,60,61
 329 777 329 777 321 788 c 1,62,63
 316 806 316 806 331 804 c 2,64,-1
 423 793 l 1,65,66
 439 789 439 789 428 778 c 2,67,-1
 415 765 l 1,68,69
 411 720 411 720 407 680 c 1,70,71
 559 694 559 694 678 723 c 1,0,-1
535 404 m 1,72,73
 479 401 479 401 398 378 c 1,74,75
 404 315 404 315 416 272.5 c 128,-1,76
 428 230 428 230 439 199 c 1,77,78
 466 236 466 236 490 287.5 c 128,-1,79
 514 339 514 339 535 404 c 1,72,73
317 344 m 1,80,81
 297 333 297 333 263.5 306.5 c 128,-1,82
 230 280 230 280 210.5 238.5 c 128,-1,83
 191 197 191 197 190.5 152.5 c 128,-1,84
 190 108 190 108 204.5 88 c 128,-1,85
 219 68 219 68 255 70 c 128,-1,86
 291 72 291 72 319 89.5 c 128,-1,87
 347 107 347 107 365 122 c 1,88,89
 343 188 343 188 332.5 240 c 128,-1,90
 322 292 322 292 317 344 c 1,80,81
EndSplineSet
Substitution: 1 0 'vert' uni3042.vert
EndChar
StartChar: uni3043
Encoding: 12355 12355 1982
Width: 1024
Flags: W
Fore
218 469 m 1,0,1
 219 478 219 478 232 479 c 1,2,-1
 313 460 l 2,3,4
 325 457 325 457 316 448 c 2,5,-1
 306 437 l 1,6,7
 285 327 285 327 291 233 c 128,-1,8
 297 139 297 139 310 108 c 128,-1,9
 323 77 323 77 336 74 c 128,-1,10
 349 71 349 71 358 88.5 c 128,-1,11
 367 106 367 106 396 183 c 1,12,13
 440 157 440 157 469 146 c 1,14,15
 426 65 426 65 402 19 c 128,-1,16
 378 -27 378 -27 344 -30 c 128,-1,17
 310 -33 310 -33 276 2 c 128,-1,18
 242 37 242 37 230 100.5 c 128,-1,19
 218 164 218 164 213.5 240 c 128,-1,20
 209 316 209 316 218.5 387 c 128,-1,21
 228 458 228 458 218 469 c 1,0,1
696 451 m 1,22,23
 751 390 751 390 793 306.5 c 128,-1,24
 835 223 835 223 860 135 c 1,25,-1
 856 127 l 1,26,27
 812 116 812 116 765 96 c 1,28,29
 749 191 749 191 714 271 c 128,-1,30
 679 351 679 351 631 398 c 1,31,-1
 696 451 l 1,22,23
EndSplineSet
Substitution: 1 0 'vert' uni3043.vert
EndChar
StartChar: uni3044
Encoding: 12356 12356 1983
Width: 1024
Flags: W
Fore
137 693 m 1,0,1
 136 706 136 706 153 707 c 1,2,-1
 247 690 l 1,3,4
 261 685 261 685 249 673 c 1,5,-1
 237 659 l 1,6,7
 209 488 209 488 218 362.5 c 128,-1,8
 227 237 227 237 243 193 c 128,-1,9
 259 149 259 149 279 145 c 128,-1,10
 299 141 299 141 313 164.5 c 128,-1,11
 327 188 327 188 351 296 c 1,12,-1
 359 296 l 1,13,14
 403 261 403 261 443 231 c 1,15,16
 400 133 400 133 371 77 c 128,-1,17
 342 21 342 21 296 14.5 c 128,-1,18
 250 8 250 8 210.5 54.5 c 128,-1,19
 171 101 171 101 150.5 186 c 128,-1,20
 130 271 130 271 125.5 372 c 128,-1,21
 121 473 121 473 133 576 c 128,-1,22
 145 679 145 679 137 693 c 1,0,1
756 652 m 1,23,24
 844 561 844 561 893.5 458 c 128,-1,25
 943 355 943 355 973 219 c 1,26,-1
 968 212 l 1,27,28
 917 205 917 205 863 182 c 1,29,30
 839 333 839 333 801.5 420.5 c 128,-1,31
 764 508 764 508 679 593 c 1,32,-1
 756 652 l 1,23,24
EndSplineSet
Substitution: 1 0 'vert' uni3044.vert
EndChar
StartChar: uni3045
Encoding: 12357 12357 1984
Width: 1024
Flags: W
Fore
373 594 m 1,0,1
 489 557 489 557 626 545 c 1,2,-1
 629 539 l 1,3,4
 616 504 616 504 611 468 c 1,5,6
 455 494 455 494 349 525 c 1,7,-1
 373 594 l 1,0,1
265 339 m 1,8,9
 364 375 364 375 424 384.5 c 128,-1,10
 484 394 484 394 549.5 387 c 128,-1,11
 615 380 615 380 647.5 343 c 128,-1,12
 680 306 680 306 688 259.5 c 128,-1,13
 696 213 696 213 681 153 c 128,-1,14
 666 93 666 93 621 39.5 c 128,-1,15
 576 -14 576 -14 532.5 -41 c 128,-1,16
 489 -68 489 -68 405 -98 c 1,17,18
 394 -60 394 -60 367 -27 c 1,19,-1
 367 -16 l 1,20,21
 425 -3 425 -3 470.5 16 c 128,-1,22
 516 35 516 35 549.5 75 c 128,-1,23
 583 115 583 115 597 163 c 128,-1,24
 611 211 611 211 606 243.5 c 128,-1,25
 601 276 601 276 587.5 296 c 128,-1,26
 574 316 574 316 528.5 321 c 128,-1,27
 483 326 483 326 432.5 317 c 128,-1,28
 382 308 382 308 295 258 c 1,29,30
 286 293 286 293 262 331 c 1,31,-1
 265 339 l 1,8,9
EndSplineSet
Substitution: 1 0 'vert' uni3045.vert
EndChar
StartChar: uni3046
Encoding: 12358 12358 1985
Width: 1024
Flags: W
Fore
347 819 m 1,0,1
 519 763 519 763 699 752 c 1,2,-1
 703 744 l 1,3,4
 694 712 694 712 686 660 c 1,5,6
 481 685 481 685 319 731 c 1,7,-1
 347 819 l 1,0,1
198 487 m 1,8,9
 343 528 343 528 429.5 545.5 c 128,-1,10
 516 563 516 563 609 552 c 128,-1,11
 702 541 702 541 748.5 483.5 c 128,-1,12
 795 426 795 426 803 365.5 c 128,-1,13
 811 305 811 305 790.5 223.5 c 128,-1,14
 770 142 770 142 708 74 c 128,-1,15
 646 6 646 6 579.5 -28.5 c 128,-1,16
 513 -63 513 -63 407 -97 c 1,17,18
 391 -43 391 -43 363 -6 c 1,19,-1
 363 4 l 1,20,21
 437 14 437 14 510.5 45 c 128,-1,22
 584 76 584 76 628.5 121 c 128,-1,23
 673 166 673 166 693.5 234 c 128,-1,24
 714 302 714 302 708.5 344 c 128,-1,25
 703 386 703 386 677 423 c 128,-1,26
 651 460 651 460 582.5 470 c 128,-1,27
 514 480 514 480 441.5 464 c 128,-1,28
 369 448 369 448 240 384 c 1,29,30
 223 434 223 434 195 477 c 1,31,-1
 198 487 l 1,8,9
EndSplineSet
Substitution: 1 0 'vert' uni3046.vert
EndChar
StartChar: uni3047
Encoding: 12359 12359 1986
Width: 1024
Flags: W
Fore
560 413 m 1,0,-1
 572 425 l 1,1,2
 577 433 577 433 584 425 c 1,3,4
 620 401 620 401 647 379 c 1,5,6
 658 365 658 365 645 358 c 1,7,-1
 631 354 l 1,8,9
 566 288 566 288 513 234 c 1,10,11
 531 236 531 236 555.5 227.5 c 128,-1,12
 580 219 580 219 589.5 201 c 128,-1,13
 599 183 599 183 600 139 c 128,-1,14
 601 95 601 95 603 67 c 128,-1,15
 605 39 605 39 615.5 30.5 c 128,-1,16
 626 22 626 22 671 22.5 c 128,-1,17
 716 23 716 23 812 34 c 1,18,-1
 817 26 l 1,19,20
 801 -9 801 -9 795 -52 c 1,21,22
 733 -52 733 -52 695 -52 c 128,-1,23
 657 -52 657 -52 605 -48 c 128,-1,24
 553 -44 553 -44 543 -24 c 128,-1,25
 533 -4 533 -4 529.5 38 c 128,-1,26
 526 80 526 80 531.5 123.5 c 128,-1,27
 537 167 537 167 519 172 c 128,-1,28
 501 177 501 177 481.5 171.5 c 128,-1,29
 462 166 462 166 417 135 c 1,30,31
 372 86 372 86 317 26 c 128,-1,32
 262 -34 262 -34 242 -62 c 1,33,34
 203 -24 203 -24 169 -8 c 1,35,-1
 169 -1 l 1,36,37
 366 186 366 186 515 347 c 1,38,39
 380 327 380 327 280 309 c 1,40,41
 270 349 270 349 260 379 c 1,42,-1
 263 388 l 1,43,44
 374 390 374 390 560 413 c 1,0,-1
369 602 m 1,45,46
 463 565 463 565 587 559 c 1,47,48
 580 522 580 522 578 489 c 1,49,50
 444 508 444 508 340 538 c 1,51,-1
 369 602 l 1,45,46
EndSplineSet
Substitution: 1 0 'vert' uni3047.vert
EndChar
StartChar: uni3048
Encoding: 12360 12360 1987
Width: 1024
Flags: W
Fore
604 580 m 1,0,-1
 613 590 l 1,1,2
 620 596 620 596 627 590 c 1,3,4
 672 566 672 566 707 534 c 1,5,6
 724 521 724 521 705 508 c 1,7,-1
 687 502 l 1,8,9
 587 404 587 404 509 326 c 1,10,11
 516 329 516 329 534 334 c 128,-1,12
 552 339 552 339 580.5 328.5 c 128,-1,13
 609 318 609 318 625 294 c 128,-1,14
 641 270 641 270 645 211.5 c 128,-1,15
 649 153 649 153 650.5 115.5 c 128,-1,16
 652 78 652 78 669.5 67.5 c 128,-1,17
 687 57 687 57 751 56.5 c 128,-1,18
 815 56 815 56 931 78 c 1,19,-1
 937 68 l 1,20,21
 921 12 921 12 913 -39 c 1,22,23
 830 -39 830 -39 777 -40 c 128,-1,24
 724 -41 724 -41 663.5 -35.5 c 128,-1,25
 603 -30 603 -30 586.5 -4.5 c 128,-1,26
 570 21 570 21 566 77 c 128,-1,27
 562 133 562 133 561 189.5 c 128,-1,28
 560 246 560 246 542 253 c 128,-1,29
 524 260 524 260 492 252 c 128,-1,30
 460 244 460 244 370 186 c 1,31,32
 318 132 318 132 249 55.5 c 128,-1,33
 180 -21 180 -21 151 -60 c 1,34,35
 119 -15 119 -15 75 19 c 1,36,-1
 75 29 l 1,37,38
 332 267 332 267 558 493 c 1,39,40
 356 476 356 476 215 451 c 1,41,42
 210 497 210 497 190 540 c 1,43,-1
 195 552 l 1,44,45
 348 553 348 553 604 580 c 1,0,-1
334 821 m 1,46,47
 462 778 462 778 627 774 c 1,48,49
 618 731 618 731 618 684 c 1,50,51
 436 700 436 700 306 738 c 1,52,-1
 334 821 l 1,46,47
EndSplineSet
Substitution: 1 0 'vert' uni3048.vert
EndChar
StartChar: uni3049
Encoding: 12361 12361 1988
Width: 1024
Flags: W
Fore
698 484 m 1,0,1
 786 434 786 434 845 379 c 1,2,-1
 845 370 l 1,3,4
 822 358 822 358 790 321 c 1,5,6
 736 389 736 389 660 430 c 1,7,-1
 698 484 l 1,0,1
592 464 m 1,8,-1
 619 396 l 1,9,10
 530 381 530 381 427 366 c 1,11,12
 426 308 426 308 427 258 c 1,13,14
 439 261 439 261 473 266 c 128,-1,15
 507 271 507 271 573 271.5 c 128,-1,16
 639 272 639 272 682.5 256 c 128,-1,17
 726 240 726 240 755 211.5 c 128,-1,18
 784 183 784 183 794 146 c 128,-1,19
 804 109 804 109 794 72.5 c 128,-1,20
 784 36 784 36 755.5 7.5 c 128,-1,21
 727 -21 727 -21 689 -35 c 128,-1,22
 651 -49 651 -49 611.5 -43.5 c 128,-1,23
 572 -38 572 -38 547.5 -19.5 c 128,-1,24
 523 -1 523 -1 494 35 c 1,25,26
 529 60 529 60 555 88 c 1,27,28
 579 43 579 43 606.5 33 c 128,-1,29
 634 23 634 23 656 28 c 128,-1,30
 678 33 678 33 695 46.5 c 128,-1,31
 712 60 712 60 718 84 c 128,-1,32
 724 108 724 108 719.5 134 c 128,-1,33
 715 160 715 160 697 178 c 128,-1,34
 679 196 679 196 649 203 c 128,-1,35
 619 210 619 210 566 210.5 c 128,-1,36
 513 211 513 211 480 204.5 c 128,-1,37
 447 198 447 198 428 193 c 1,38,39
 431 93 431 93 434.5 48.5 c 128,-1,40
 438 4 438 4 427 -17 c 128,-1,41
 416 -38 416 -38 378 -53 c 128,-1,42
 340 -68 340 -68 303 -64 c 128,-1,43
 266 -60 266 -60 235.5 -36 c 128,-1,44
 205 -12 205 -12 195 16.5 c 128,-1,45
 185 45 185 45 194.5 90.5 c 128,-1,46
 204 136 204 136 245 175.5 c 128,-1,47
 286 215 286 215 357 240 c 1,48,49
 356 302 356 302 356 358 c 1,50,51
 297 353 297 353 220 349 c 1,52,53
 219 379 219 379 212 420 c 1,54,55
 296 419 296 419 357 423 c 1,56,57
 360 545 360 545 352 555 c 1,58,59
 351 566 351 566 366 565 c 2,60,-1
 439 555 l 2,61,62
 449 553 449 553 443 543 c 1,63,-1
 433 530 l 1,64,65
 430 478 430 478 429 430 c 1,66,67
 505 441 505 441 592 464 c 1,8,-1
358 172 m 1,68,69
 315 155 315 155 292 128.5 c 128,-1,70
 269 102 269 102 265 71.5 c 128,-1,71
 261 41 261 41 271.5 23.5 c 128,-1,72
 282 6 282 6 303.5 -0.5 c 128,-1,73
 325 -7 325 -7 341.5 2.5 c 128,-1,74
 358 12 358 12 358.5 47.5 c 128,-1,75
 359 83 359 83 358 172 c 1,68,69
EndSplineSet
Substitution: 1 0 'vert' uni3049.vert
EndChar
StartChar: uni304A
Encoding: 12362 12362 1989
Width: 1024
Flags: W
Fore
745 703 m 1,0,1
 876 626 876 626 947 561 c 1,2,-1
 947 553 l 1,3,4
 921 531 921 531 880 484 c 1,5,6
 813 574 813 574 698 627 c 1,7,-1
 745 703 l 1,0,1
620 673 m 1,8,-1
 645 591 l 1,9,10
 551 573 551 573 410 559 c 1,11,12
 409 471 409 471 409 397 c 1,13,14
 428 401 428 401 474 409.5 c 128,-1,15
 520 418 520 418 608 417.5 c 128,-1,16
 696 417 696 417 755.5 395.5 c 128,-1,17
 815 374 815 374 855 337.5 c 128,-1,18
 895 301 895 301 911 247.5 c 128,-1,19
 927 194 927 194 910.5 145 c 128,-1,20
 894 96 894 96 855 58 c 128,-1,21
 816 20 816 20 767 3.5 c 128,-1,22
 718 -13 718 -13 664 -5 c 128,-1,23
 610 3 610 3 579 28.5 c 128,-1,24
 548 54 548 54 507 113 c 1,25,26
 553 138 553 138 578 167 c 1,27,-1
 586 166 l 1,28,29
 620 104 620 104 654.5 88 c 128,-1,30
 689 72 689 72 721 77.5 c 128,-1,31
 753 83 753 83 780 105.5 c 128,-1,32
 807 128 807 128 818 159 c 128,-1,33
 829 190 829 190 821.5 226 c 128,-1,34
 814 262 814 262 784 289 c 128,-1,35
 754 316 754 316 711.5 329 c 128,-1,36
 669 342 669 342 598 341 c 128,-1,37
 527 340 527 340 481.5 331.5 c 128,-1,38
 436 323 436 323 410 316 c 1,39,40
 413 174 413 174 419 117 c 128,-1,41
 425 60 425 60 409.5 32.5 c 128,-1,42
 394 5 394 5 345.5 -18.5 c 128,-1,43
 297 -42 297 -42 247.5 -36.5 c 128,-1,44
 198 -31 198 -31 159 -5 c 128,-1,45
 120 21 120 21 108 60 c 128,-1,46
 96 99 96 99 107 169.5 c 128,-1,47
 118 240 118 240 176.5 290 c 128,-1,48
 235 340 235 340 324 373 c 1,49,50
 323 467 323 467 324 551 c 1,51,52
 239 543 239 543 137 536 c 1,53,54
 138 576 138 576 126 626 c 1,55,56
 233 623 233 623 325 629 c 1,57,58
 329 775 329 775 318 789 c 1,59,60
 317 803 317 803 333 802 c 2,61,-1
 425 793 l 1,62,63
 438 788 438 788 427 777 c 1,64,-1
 414 760 l 1,65,66
 412 696 412 696 411 637 c 1,67,68
 523 650 523 650 620 673 c 1,8,-1
326 286 m 1,69,70
 273 264 273 264 235 234 c 128,-1,71
 197 204 197 204 190.5 144.5 c 128,-1,72
 184 85 184 85 201.5 65 c 128,-1,73
 219 45 219 45 248 40.5 c 128,-1,74
 277 36 277 36 304.5 49 c 128,-1,75
 332 62 332 62 330 111 c 128,-1,76
 328 160 328 160 326 286 c 1,69,70
EndSplineSet
Substitution: 1 0 'vert' uni304A.vert
EndChar
StartChar: uni304B
Encoding: 12363 12363 1990
Width: 1024
Flags: W
Fore
750 656 m 1,0,1
 825 567 825 567 878 486 c 128,-1,2
 931 405 931 405 982 292 c 1,3,-1
 982 285 l 1,4,5
 939 262 939 262 890 233 c 1,6,7
 847 358 847 358 796.5 442.5 c 128,-1,8
 746 527 746 527 682 598 c 1,9,-1
 750 656 l 1,0,1
85 549 m 1,10,-1
 90 555 l 1,11,12
 161 559 161 559 281 572 c 1,13,14
 294 623 294 623 308 692.5 c 128,-1,15
 322 762 322 762 312 780 c 1,16,17
 313 791 313 791 327 794 c 1,18,-1
 415 778 l 1,19,20
 425 772 425 772 415 763 c 1,21,-1
 404 751 l 1,22,23
 386 660 386 660 367 581 c 1,24,25
 454 589 454 589 488.5 581 c 128,-1,26
 523 573 523 573 566 540 c 128,-1,27
 609 507 609 507 614 430.5 c 128,-1,28
 619 354 619 354 617.5 304.5 c 128,-1,29
 616 255 616 255 610 213 c 128,-1,30
 604 171 604 171 587.5 122 c 128,-1,31
 571 73 571 73 536 34 c 128,-1,32
 501 -5 501 -5 468 -10 c 128,-1,33
 435 -15 435 -15 416.5 -3.5 c 128,-1,34
 398 8 398 8 381.5 26 c 128,-1,35
 365 44 365 44 316 86 c 1,36,37
 362 127 362 127 377 158 c 1,38,39
 407 120 407 120 428 101.5 c 128,-1,40
 449 83 449 83 466.5 95.5 c 128,-1,41
 484 108 484 108 500.5 143.5 c 128,-1,42
 517 179 517 179 523.5 221.5 c 128,-1,43
 530 264 530 264 531.5 304 c 128,-1,44
 533 344 533 344 532 405.5 c 128,-1,45
 531 467 531 467 499 491 c 128,-1,46
 467 515 467 515 346 498 c 1,47,48
 336 464 336 464 310.5 381 c 128,-1,49
 285 298 285 298 248 203.5 c 128,-1,50
 211 109 211 109 166 -7 c 1,51,52
 117 19 117 19 77 35 c 1,53,-1
 77 44 l 1,54,55
 130 138 130 138 167 229 c 128,-1,56
 204 320 204 320 227 393 c 128,-1,57
 250 466 250 466 256 485 c 1,58,59
 167 471 167 471 93 457 c 1,60,61
 92 518 92 518 85 549 c 1,10,-1
EndSplineSet
Substitution: 1 0 'vert' uni304B.vert
EndChar
StartChar: uni304C
Encoding: 12364 12364 1991
Width: 1024
Flags: W
Fore
85 549 m 1,0,-1
 90 555 l 1,1,2
 161 559 161 559 281 572 c 1,3,4
 294 623 294 623 308 692.5 c 128,-1,5
 322 762 322 762 312 780 c 1,6,7
 313 791 313 791 327 794 c 1,8,-1
 415 778 l 1,9,10
 425 772 425 772 415 763 c 1,11,-1
 404 751 l 1,12,13
 386 660 386 660 367 581 c 1,14,15
 454 589 454 589 488.5 581 c 128,-1,16
 523 573 523 573 566 540 c 128,-1,17
 609 507 609 507 614 430.5 c 128,-1,18
 619 354 619 354 617.5 304.5 c 128,-1,19
 616 255 616 255 610 213 c 128,-1,20
 604 171 604 171 587.5 122 c 128,-1,21
 571 73 571 73 536 34 c 128,-1,22
 501 -5 501 -5 468 -10 c 128,-1,23
 435 -15 435 -15 416.5 -3.5 c 128,-1,24
 398 8 398 8 381.5 26 c 128,-1,25
 365 44 365 44 316 86 c 1,26,27
 362 127 362 127 377 158 c 1,28,29
 407 120 407 120 428 101.5 c 128,-1,30
 449 83 449 83 466.5 95.5 c 128,-1,31
 484 108 484 108 500.5 143.5 c 128,-1,32
 517 179 517 179 523.5 221.5 c 128,-1,33
 530 264 530 264 531.5 304 c 128,-1,34
 533 344 533 344 532 405.5 c 128,-1,35
 531 467 531 467 499 491 c 128,-1,36
 467 515 467 515 346 498 c 1,37,38
 336 464 336 464 310.5 381 c 128,-1,39
 285 298 285 298 248 203.5 c 128,-1,40
 211 109 211 109 166 -7 c 1,41,42
 117 19 117 19 77 35 c 1,43,-1
 77 44 l 1,44,45
 130 138 130 138 167 229 c 128,-1,46
 204 320 204 320 227 393 c 128,-1,47
 250 466 250 466 256 485 c 1,48,49
 167 471 167 471 93 457 c 1,50,51
 92 518 92 518 85 549 c 1,0,-1
735 625 m 1,52,53
 804 559 804 559 874 463 c 128,-1,54
 944 367 944 367 979 295 c 1,55,-1
 979 288 l 1,56,57
 934 266 934 266 887 236 c 1,58,59
 857 313 857 313 798.5 410.5 c 128,-1,60
 740 508 740 508 672 562 c 1,61,-1
 735 625 l 1,52,53
869 805 m 1,62,63
 946 754 946 754 1004 701 c 1,64,-1
 953 649 l 1,65,66
 899 713 899 713 826 752 c 1,67,-1
 869 805 l 1,62,63
781 725 m 1,68,69
 850 678 850 678 913 613 c 1,70,-1
 861 560 l 1,71,72
 808 628 808 628 738 672 c 1,73,-1
 781 725 l 1,68,69
EndSplineSet
Substitution: 1 0 'vert' uni304C.vert
EndChar
StartChar: uni304D
Encoding: 12365 12365 1992
Width: 1024
Flags: W
Fore
505 788 m 1,0,1
 522 723 522 723 537 674 c 1,2,3
 632 691 632 691 720 721 c 1,4,-1
 756 641 l 1,5,6
 667 615 667 615 566 598 c 1,7,8
 571 585 571 585 585 559 c 128,-1,9
 599 533 599 533 624 489 c 1,10,11
 746 508 746 508 854 549 c 1,12,-1
 889 465 l 1,13,14
 788 436 788 436 664 418 c 1,15,16
 706 352 706 352 790 255 c 1,17,-1
 711 190 l 1,18,19
 649 215 649 215 615.5 223.5 c 128,-1,20
 582 232 582 232 529 238 c 128,-1,21
 476 244 476 244 433 240 c 128,-1,22
 390 236 390 236 355.5 222.5 c 128,-1,23
 321 209 321 209 304 187.5 c 128,-1,24
 287 166 287 166 288.5 133.5 c 128,-1,25
 290 101 290 101 313 75 c 128,-1,26
 336 49 336 49 387.5 38.5 c 128,-1,27
 439 28 439 28 528.5 29.5 c 128,-1,28
 618 31 618 31 710 41 c 1,29,-1
 712 30 l 1,30,31
 699 7 699 7 690 -53 c 1,32,33
 584 -59 584 -59 470 -51.5 c 128,-1,34
 356 -44 356 -44 309.5 -20 c 128,-1,35
 263 4 263 4 237.5 40.5 c 128,-1,36
 212 77 212 77 206.5 127.5 c 128,-1,37
 201 178 201 178 227 215 c 128,-1,38
 253 252 253 252 292 271.5 c 128,-1,39
 331 291 331 291 381 300 c 128,-1,40
 431 309 431 309 486.5 307 c 128,-1,41
 542 305 542 305 637 288 c 1,42,43
 597 349 597 349 568 405 c 1,44,45
 406 387 406 387 172 377 c 1,46,47
 170 422 170 422 160 460 c 1,48,-1
 163 467 l 1,49,50
 376 461 376 461 532 477 c 1,51,52
 515 512 515 512 502 538.5 c 128,-1,53
 489 565 489 565 480 585 c 1,54,55
 371 572 371 572 222 565 c 1,56,57
 221 601 221 601 208 649 c 1,58,-1
 214 654 l 1,59,60
 351 652 351 652 451 662 c 1,61,62
 446 676 446 676 430.5 725.5 c 128,-1,63
 415 775 415 775 404 786 c 1,64,65
 396 797 396 797 411 802 c 1,66,-1
 500 818 l 1,67,68
 514 817 514 817 507 803 c 1,69,-1
 505 788 l 1,0,1
EndSplineSet
Substitution: 1 0 'vert' uni304D.vert
EndChar
StartChar: uni304E
Encoding: 12366 12366 1993
Width: 1024
Flags: W
Fore
172 377 m 1,0,1
 170 422 170 422 160 460 c 1,2,-1
 163 467 l 1,3,4
 376 461 376 461 532 477 c 1,5,6
 515 512 515 512 502 538.5 c 128,-1,7
 489 565 489 565 480 585 c 1,8,9
 371 572 371 572 222 565 c 1,10,11
 221 601 221 601 208 649 c 1,12,-1
 214 654 l 1,13,14
 351 652 351 652 451 662 c 1,15,16
 446 676 446 676 430.5 725.5 c 128,-1,17
 415 775 415 775 404 786 c 1,18,19
 396 797 396 797 411 802 c 1,20,-1
 500 818 l 1,21,22
 514 817 514 817 507 803 c 1,23,-1
 505 788 l 1,24,25
 522 723 522 723 537 674 c 1,26,27
 632 691 632 691 720 721 c 1,28,-1
 756 641 l 1,29,30
 667 615 667 615 566 598 c 1,31,32
 571 585 571 585 585 559 c 128,-1,33
 599 533 599 533 624 489 c 1,34,35
 746 508 746 508 854 549 c 1,36,-1
 889 465 l 1,37,38
 788 436 788 436 664 418 c 1,39,40
 706 352 706 352 790 255 c 1,41,-1
 711 190 l 1,42,43
 649 215 649 215 615.5 223.5 c 128,-1,44
 582 232 582 232 529 238 c 128,-1,45
 476 244 476 244 433 240 c 128,-1,46
 390 236 390 236 355.5 222.5 c 128,-1,47
 321 209 321 209 304 187.5 c 128,-1,48
 287 166 287 166 288.5 133.5 c 128,-1,49
 290 101 290 101 313 75 c 128,-1,50
 336 49 336 49 387.5 38.5 c 128,-1,51
 439 28 439 28 528.5 29.5 c 128,-1,52
 618 31 618 31 710 41 c 1,53,-1
 712 30 l 1,54,55
 699 7 699 7 690 -53 c 1,56,57
 584 -59 584 -59 470 -51.5 c 128,-1,58
 356 -44 356 -44 309.5 -20 c 128,-1,59
 263 4 263 4 237.5 40.5 c 128,-1,60
 212 77 212 77 206.5 127.5 c 128,-1,61
 201 178 201 178 227 215 c 128,-1,62
 253 252 253 252 292 271.5 c 128,-1,63
 331 291 331 291 381 300 c 128,-1,64
 431 309 431 309 486.5 307 c 128,-1,65
 542 305 542 305 637 288 c 1,66,67
 597 349 597 349 568 405 c 1,68,69
 406 387 406 387 172 377 c 1,0,1
845 857 m 1,70,71
 922 806 922 806 980 753 c 1,72,-1
 929 701 l 1,73,74
 875 765 875 765 802 804 c 1,75,-1
 845 857 l 1,70,71
749 789 m 1,76,77
 818 742 818 742 881 677 c 1,78,-1
 829 624 l 1,79,80
 776 692 776 692 706 736 c 1,81,-1
 749 789 l 1,76,77
EndSplineSet
Substitution: 1 0 'vert' uni304E.vert
EndChar
StartChar: uni304F
Encoding: 12367 12367 1994
Width: 1024
Flags: W
Fore
585 801 m 1,0,1
 586 815 586 815 603 813 c 1,2,-1
 695 770 l 2,3,4
 711 762 711 762 693 753 c 2,5,-1
 675 745 l 1,6,7
 567 597 567 597 457 501 c 128,-1,8
 347 405 347 405 340.5 390.5 c 128,-1,9
 334 376 334 376 339 363 c 128,-1,10
 344 350 344 350 452.5 262 c 128,-1,11
 561 174 561 174 728 29 c 1,12,-1
 728 21 l 1,13,14
 694 -9 694 -9 648 -70 c 1,15,16
 488 122 488 122 364.5 228 c 128,-1,17
 241 334 241 334 237.5 353 c 128,-1,18
 234 372 234 372 238 392.5 c 128,-1,19
 242 413 242 413 358 518.5 c 128,-1,20
 474 624 474 624 531.5 704 c 128,-1,21
 589 784 589 784 585 801 c 1,0,1
EndSplineSet
Substitution: 1 0 'vert' uni304F.vert
EndChar
StartChar: uni3050
Encoding: 12368 12368 1995
Width: 1024
Flags: W
Fore
769 637 m 1,0,1
 846 586 846 586 904 533 c 1,2,-1
 853 481 l 1,3,4
 799 545 799 545 726 584 c 1,5,-1
 769 637 l 1,0,1
669 557 m 1,6,7
 738 510 738 510 801 445 c 1,8,-1
 749 392 l 1,9,10
 696 460 696 460 626 504 c 1,11,-1
 669 557 l 1,6,7
585 801 m 1,12,13
 586 815 586 815 603 813 c 1,14,-1
 695 770 l 2,15,16
 711 762 711 762 693 753 c 2,17,-1
 675 745 l 1,18,19
 567 597 567 597 457 501 c 128,-1,20
 347 405 347 405 340.5 390.5 c 128,-1,21
 334 376 334 376 339 363 c 128,-1,22
 344 350 344 350 452.5 262 c 128,-1,23
 561 174 561 174 728 29 c 1,24,-1
 728 21 l 1,25,26
 694 -9 694 -9 648 -70 c 1,27,28
 488 122 488 122 364.5 228 c 128,-1,29
 241 334 241 334 237.5 353 c 128,-1,30
 234 372 234 372 238 392.5 c 128,-1,31
 242 413 242 413 358 518.5 c 128,-1,32
 474 624 474 624 531.5 704 c 128,-1,33
 589 784 589 784 585 801 c 1,12,13
EndSplineSet
Substitution: 1 0 'vert' uni3050.vert
EndChar
StartChar: uni3051
Encoding: 12369 12369 1996
Width: 1024
Flags: W
Fore
133 731 m 1,0,1
 130 744 130 744 147 745 c 1,2,-1
 245 729 l 1,3,4
 259 724 259 724 245 711 c 1,5,-1
 230 695 l 1,6,7
 202 528 202 528 201.5 395 c 128,-1,8
 201 262 201 262 211 215.5 c 128,-1,9
 221 169 221 169 233 162 c 128,-1,10
 245 155 245 155 273 210 c 1,11,-1
 276 210 l 1,12,13
 310 170 310 170 344 137 c 1,14,15
 272 47 272 47 233 41.5 c 128,-1,16
 194 36 194 36 165 81.5 c 128,-1,17
 136 127 136 127 123 203 c 128,-1,18
 110 279 110 279 113.5 402 c 128,-1,19
 117 525 117 525 129 621 c 128,-1,20
 141 717 141 717 133 731 c 1,0,1
904 608 m 1,21,-1
 932 524 l 1,22,23
 862 508 862 508 771 498 c 1,24,25
 773 421 773 421 775 354 c 128,-1,26
 777 287 777 287 766 214.5 c 128,-1,27
 755 142 755 142 723 88.5 c 128,-1,28
 691 35 691 35 646.5 -3 c 128,-1,29
 602 -41 602 -41 529 -82 c 1,30,31
 509 -42 509 -42 475 1 c 1,32,-1
 475 12 l 1,33,34
 549 36 549 36 585.5 65.5 c 128,-1,35
 622 95 622 95 647.5 137 c 128,-1,36
 673 179 673 179 681.5 237.5 c 128,-1,37
 690 296 690 296 690 362.5 c 128,-1,38
 690 429 690 429 689.5 446 c 128,-1,39
 689 463 689 463 687 491 c 1,40,41
 528 481 528 481 401 480 c 1,42,43
 400 524 400 524 390 565 c 1,44,-1
 393 574 l 1,45,46
 549 562 549 562 682 572 c 1,47,48
 681 595 681 595 676 680.5 c 128,-1,49
 671 766 671 766 663 783 c 0,50,51
 656 799 656 799 676 796 c 1,52,-1
 762 794 l 1,53,54
 775 792 775 792 768 780 c 1,55,-1
 761 761 l 1,56,57
 765 658 765 658 768 581 c 1,58,59
 840 591 840 591 904 608 c 1,21,-1
EndSplineSet
Substitution: 1 0 'vert' uni3051.vert
EndChar
StartChar: uni3052
Encoding: 12370 12370 1997
Width: 1024
Flags: W
Fore
817 773 m 1,0,1
 886 726 886 726 931 673 c 1,2,-1
 879 624 l 1,3,4
 840 688 840 688 778 724 c 1,5,-1
 817 773 l 1,0,1
905 853 m 1,6,7
 974 806 974 806 1019 753 c 1,8,-1
 967 704 l 1,9,10
 928 768 928 768 866 804 c 1,11,-1
 905 853 l 1,6,7
133 731 m 1,12,13
 130 744 130 744 147 745 c 1,14,-1
 245 729 l 1,15,16
 259 724 259 724 245 711 c 1,17,-1
 230 695 l 1,18,19
 202 528 202 528 201.5 395 c 128,-1,20
 201 262 201 262 211 215.5 c 128,-1,21
 221 169 221 169 233 162 c 128,-1,22
 245 155 245 155 273 210 c 1,23,-1
 276 210 l 1,24,25
 310 170 310 170 344 137 c 1,26,27
 272 47 272 47 233 41.5 c 128,-1,28
 194 36 194 36 165 81.5 c 128,-1,29
 136 127 136 127 123 203 c 128,-1,30
 110 279 110 279 113.5 402 c 128,-1,31
 117 525 117 525 129 621 c 128,-1,32
 141 717 141 717 133 731 c 1,12,13
904 608 m 1,33,-1
 932 524 l 1,34,35
 862 508 862 508 771 498 c 1,36,37
 773 421 773 421 775 354 c 128,-1,38
 777 287 777 287 766 214.5 c 128,-1,39
 755 142 755 142 723 88.5 c 128,-1,40
 691 35 691 35 646.5 -3 c 128,-1,41
 602 -41 602 -41 529 -82 c 1,42,43
 509 -42 509 -42 475 1 c 1,44,-1
 475 12 l 1,45,46
 549 36 549 36 585.5 65.5 c 128,-1,47
 622 95 622 95 647.5 137 c 128,-1,48
 673 179 673 179 681.5 237.5 c 128,-1,49
 690 296 690 296 690 362.5 c 128,-1,50
 690 429 690 429 689.5 446 c 128,-1,51
 689 463 689 463 687 491 c 1,52,53
 528 481 528 481 401 480 c 1,54,55
 400 524 400 524 390 565 c 1,56,-1
 393 574 l 1,57,58
 549 562 549 562 682 572 c 1,59,60
 681 595 681 595 676 680.5 c 128,-1,61
 671 766 671 766 663 783 c 0,62,63
 656 799 656 799 676 796 c 1,64,-1
 762 794 l 1,65,66
 775 792 775 792 768 780 c 1,67,-1
 761 761 l 1,68,69
 765 658 765 658 768 581 c 1,70,71
 840 591 840 591 904 608 c 1,33,-1
EndSplineSet
Substitution: 1 0 'vert' uni3052.vert
EndChar
StartChar: uni3053
Encoding: 12371 12371 1998
Width: 1024
Flags: W
Fore
306 718 m 1,0,1
 425 675 425 675 505.5 671 c 128,-1,2
 586 667 586 667 756 675 c 1,3,-1
 756 585 l 1,4,5
 575 579 575 579 486.5 585.5 c 128,-1,6
 398 592 398 592 281 627 c 1,7,8
 298 690 298 690 300 718 c 1,9,-1
 306 718 l 1,0,1
199 291 m 1,10,-1
 297 261 l 1,11,12
 269 215 269 215 268.5 185.5 c 128,-1,13
 268 156 268 156 285 140.5 c 128,-1,14
 302 125 302 125 341 114 c 128,-1,15
 380 103 380 103 419.5 97.5 c 128,-1,16
 459 92 459 92 553.5 91 c 128,-1,17
 648 90 648 90 841 107 c 1,18,-1
 849 3 l 1,19,20
 654 0 654 0 547 0 c 128,-1,21
 440 0 440 0 392.5 7.5 c 128,-1,22
 345 15 345 15 293 31 c 128,-1,23
 241 47 241 47 214 76 c 128,-1,24
 187 105 187 105 178 156 c 128,-1,25
 169 207 169 207 199 291 c 1,10,-1
EndSplineSet
Substitution: 1 0 'vert' uni3053.vert
EndChar
StartChar: uni3054
Encoding: 12372 12372 1999
Width: 1024
Flags: W
Fore
306 718 m 1,0,1
 425 675 425 675 505 671 c 128,-1,2
 585 667 585 667 750 675 c 1,3,4
 723 698 723 698 694 716 c 1,5,-1
 737 769 l 1,6,7
 806 722 806 722 869 657 c 1,8,-1
 817 604 l 1,9,10
 787 642 787 642 752 673 c 1,11,-1
 752 585 l 1,12,13
 575 579 575 579 486.5 585.5 c 128,-1,14
 398 592 398 592 281 627 c 1,15,16
 298 690 298 690 300 718 c 1,17,-1
 306 718 l 1,0,1
199 291 m 1,18,-1
 297 261 l 1,19,20
 269 215 269 215 268.5 185.5 c 128,-1,21
 268 156 268 156 285 140.5 c 128,-1,22
 302 125 302 125 341 114 c 128,-1,23
 380 103 380 103 419.5 97.5 c 128,-1,24
 459 92 459 92 553.5 91 c 128,-1,25
 648 90 648 90 841 107 c 1,26,-1
 849 3 l 1,27,28
 654 0 654 0 547 0 c 128,-1,29
 440 0 440 0 392.5 7.5 c 128,-1,30
 345 15 345 15 293 31 c 128,-1,31
 241 47 241 47 214 76 c 128,-1,32
 187 105 187 105 178 156 c 128,-1,33
 169 207 169 207 199 291 c 1,18,-1
833 837 m 1,34,35
 910 786 910 786 968 733 c 1,36,-1
 917 681 l 1,37,38
 863 745 863 745 790 784 c 1,39,-1
 833 837 l 1,34,35
EndSplineSet
Substitution: 1 0 'vert' uni3054.vert
EndChar
StartChar: uni3055
Encoding: 12373 12373 2000
Width: 1024
Flags: W
Fore
168 505 m 1,0,1
 166 547 166 547 152 592 c 1,2,-1
 157 599 l 1,3,4
 342 592 342 592 489 609 c 1,5,6
 468 657 468 657 449 711.5 c 128,-1,7
 430 766 430 766 419 777 c 0,8,9
 408 790 408 790 423 795 c 1,10,-1
 521 812 l 1,11,12
 531 811 531 811 527 799 c 1,13,-1
 524 781 l 1,14,15
 550 687 550 687 578 622 c 1,16,17
 700 644 700 644 807 682 c 1,18,-1
 843 598 l 1,19,20
 741 567 741 567 617 546 c 1,21,22
 642 501 642 501 676.5 448 c 128,-1,23
 711 395 711 395 824 271 c 1,24,-1
 745 206 l 1,25,26
 681 241 681 241 618.5 253 c 128,-1,27
 556 265 556 265 484 266.5 c 128,-1,28
 412 268 412 268 375 248.5 c 128,-1,29
 338 229 338 229 323 203 c 128,-1,30
 308 177 308 177 310 147.5 c 128,-1,31
 312 118 312 118 341 92 c 128,-1,32
 370 66 370 66 433.5 54.5 c 128,-1,33
 497 43 497 43 565 44.5 c 128,-1,34
 633 46 633 46 723 60 c 1,35,-1
 725 53 l 1,36,37
 717 17 717 17 707 -41 c 1,38,39
 590 -46 590 -46 502 -40.5 c 128,-1,40
 414 -35 414 -35 354.5 -11 c 128,-1,41
 295 13 295 13 258.5 58 c 128,-1,42
 222 103 222 103 218.5 146 c 128,-1,43
 215 189 215 189 238.5 230 c 128,-1,44
 262 271 262 271 309.5 300.5 c 128,-1,45
 357 330 357 330 413 336 c 128,-1,46
 469 342 469 342 522.5 338 c 128,-1,47
 576 334 576 334 657 319 c 1,48,49
 608 383 608 383 580 432 c 128,-1,50
 552 481 552 481 526 532 c 1,51,52
 374 512 374 512 168 505 c 1,0,1
EndSplineSet
Substitution: 1 0 'vert' uni3055.vert
EndChar
StartChar: uni3056
Encoding: 12374 12374 2001
Width: 1024
Flags: W
Fore
873 849 m 1,0,1
 950 798 950 798 1008 745 c 1,2,-1
 957 693 l 1,3,4
 903 757 903 757 830 796 c 1,5,-1
 873 849 l 1,0,1
785 781 m 1,6,7
 854 734 854 734 917 669 c 1,8,-1
 865 616 l 1,9,10
 839 649 839 649 809 677 c 1,11,-1
 843 598 l 1,12,13
 741 567 741 567 617 546 c 1,14,15
 642 501 642 501 676.5 448 c 128,-1,16
 711 395 711 395 824 271 c 1,17,-1
 745 206 l 1,18,19
 681 241 681 241 618.5 253 c 128,-1,20
 556 265 556 265 484 266.5 c 128,-1,21
 412 268 412 268 375 248.5 c 128,-1,22
 338 229 338 229 323 203 c 128,-1,23
 308 177 308 177 310 147.5 c 128,-1,24
 312 118 312 118 341 92 c 128,-1,25
 370 66 370 66 433.5 54.5 c 128,-1,26
 497 43 497 43 565 44.5 c 128,-1,27
 633 46 633 46 723 60 c 1,28,-1
 725 53 l 1,29,30
 717 17 717 17 707 -41 c 1,31,32
 590 -46 590 -46 502 -40.5 c 128,-1,33
 414 -35 414 -35 354.5 -11 c 128,-1,34
 295 13 295 13 258.5 58 c 128,-1,35
 222 103 222 103 218.5 146 c 128,-1,36
 215 189 215 189 238.5 230 c 128,-1,37
 262 271 262 271 309.5 300.5 c 128,-1,38
 357 330 357 330 413 336 c 128,-1,39
 469 342 469 342 522.5 338 c 128,-1,40
 576 334 576 334 657 319 c 1,41,42
 608 383 608 383 580 432 c 128,-1,43
 552 481 552 481 526 532 c 1,44,45
 374 512 374 512 168 505 c 1,46,47
 166 547 166 547 152 592 c 1,48,-1
 157 599 l 1,49,50
 342 592 342 592 489 609 c 1,51,52
 468 657 468 657 449 711.5 c 128,-1,53
 430 766 430 766 419 777 c 0,54,55
 408 790 408 790 423 795 c 1,56,-1
 521 812 l 1,57,58
 531 811 531 811 527 799 c 1,59,-1
 524 781 l 1,60,61
 550 687 550 687 578 622 c 1,62,63
 698 644 698 644 804 681 c 1,64,65
 775 707 775 707 742 728 c 1,66,-1
 785 781 l 1,6,7
EndSplineSet
Substitution: 1 0 'vert' uni3056.vert
EndChar
